<?xml version="1.0" encoding="UTF-8"?>
<svg width="1200pt" height="1200pt" version="1.1" viewBox="0 0 1200 1200" xmlns="http://www.w3.org/2000/svg">
 <path d="m459.37 1121.5c25.547-0.046875 47.906-17.25 54.375-42l244.74-930.47 0.046875 0.046875c7.875-30.094-10.078-60.844-40.125-68.766s-60.844 10.031-68.719 40.125l-244.74 930.47h-0.046875c-4.4062 16.875-0.79688 34.828 9.8906 48.656 10.641 13.828 27.141 21.938 44.578 21.938z" fill="#fff"/>
 <path d="m265.13 906.1c21.984 22.031 57.656 22.078 79.641 0.09375 22.031-21.984 22.031-57.656 0.046875-79.641l-226.64-226.55 226.55-226.55c21.984-21.984 21.938-57.656-0.046875-79.641-22.031-21.984-57.656-21.938-79.641 0.09375l-236.16 236.26c-38.531 38.578-38.531 101.11 0 139.69z" fill="#fff"/>
 <path d="m855.28 293.9c-10.594 10.547-16.547 24.891-16.547 39.844 0 14.906 5.9531 29.25 16.547 39.844l226.55 226.4-226.55 226.55c-21.984 21.984-21.984 57.609 0 79.547 21.984 21.984 57.609 21.984 79.547 0l236.26-236.26c38.578-38.578 38.578-101.11 0-139.74l-236.26-236.26c-10.547-10.547-24.844-16.453-39.75-16.453-14.953 0-29.25 5.9062-39.797 16.5z" fill="#fff"/>
</svg>
