<?xml version="1.0" encoding="UTF-8"?>
<svg width="1200pt" height="1200pt" version="1.1" viewBox="0 0 1200 1200" xmlns="http://www.w3.org/2000/svg">
 <path d="m1158.2 580.45c-94.453-205.82-303.94-351.98-553.6-355.4-230.95-3.1875-459.94 131.16-562.87 355.4-5.7188 12.422-5.7188 26.672 0 39.094 100.12 218.21 324.89 358.74 563.29 355.4 237.84-1.9219 454.97-141.42 553.18-355.4 5.6719-12.422 5.6719-26.672 0-39.094zm-558.24 300.79c-157.5-0.32812-281.26-129.28-281.26-281.26 0-159.19 133.45-284.34 284.9-281.26 153.05 1.9688 277.6 128.11 277.6 281.26 0 154.5-126.66 281.26-281.26 281.26zm-463.55-281.26c30.469-59.484 72.047-111.56 121.55-154.18-43.969 97.453-44.062 210.79 0 308.39-49.5-42.656-91.078-94.734-121.55-154.22zm805.55 154.22c43.969-97.453 44.062-210.79 0-308.39 49.5 42.656 91.078 94.734 121.55 154.18-30.469 59.484-72.047 111.56-121.55 154.22z" fill="#fff"/>
 <path d="m600 412.5c-103.41 0-187.5 84.094-187.5 187.5s84.094 187.5 187.5 187.5 187.5-84.094 187.5-187.5-84.094-187.5-187.5-187.5z" fill="#fff"/>
</svg>
