<?xml version="1.0" encoding="UTF-8"?>
<svg width="1200pt" height="1200pt" version="1.1" viewBox="0 0 1200 1200" xmlns="http://www.w3.org/2000/svg">
 <path d="m947.63 506.63h-27.703v-68.531c0-57.609-46.781-104.39-104.39-104.39h-269.53c-5.3906 0-10.547-2.5312-13.781-6.8438l-42.844-55.922c-17.391-22.781-45-36.375-73.547-36.375l-166.22 0.046875c-57.609 0-104.39 46.781-104.39 104.39v522c0 57.609 46.781 104.39 104.39 104.39h646.69c2.1562 0 4.3125-0.23438 6.4688-0.70312 0.60938-0.14062 1.2188-0.23438 1.9219-0.375 1.5469-0.375 3-0.84375 4.4531-1.4531 0.60938-0.23438 1.2188-0.375 1.7812-0.70312 1.9219-0.84375 3.7031-1.7812 5.3906-3 0.23438-0.14062 0.375-0.375 0.60938-0.46875 1.5469-1.0781 3-2.2969 4.3125-3.6094 0.46875-0.375 0.84375-0.84375 1.2188-1.3125 1.0781-1.0781 2.0625-2.2969 3-3.6094 0.375-0.46875 0.70312-1.0781 1.0781-1.5469 0.84375-1.4531 1.6875-2.8594 2.3906-4.4531 0.23438-0.46875 0.46875-0.84375 0.60938-1.3125 0-0.14062 0.14062-0.14062 0.14062-0.23438l117.23-288.84c13.453-33.141 9.6094-70.547-10.453-100.22-19.922-29.25-53.156-46.922-88.828-46.922zm-698.02-200.02h166.22c6.375 0 12.609 3 16.453 8.1562l42.844 55.922c16.781 21.938 43.312 35.062 70.922 35.062h269.53c17.859 0 32.391 14.531 32.391 32.391v68.531l-412.6-0.046875c-62.859 0-119.3 39.703-140.53 99l-77.625 216.84v-483.47c0-17.859 14.484-32.391 32.391-32.391zm730.55 320.39-108.14 266.39h-603.71l94.453-263.53c10.922-30.609 40.219-51.234 72.703-51.234h512.16c11.859 0 22.547 5.625 29.156 15.469s7.8281 21.844 3.375 32.906z" fill="#fff"/>
</svg>
