<?xml version="1.0" encoding="UTF-8" standalone="no"?>
<!-- Created with Inkscape (http://www.inkscape.org/) -->

<svg
   xmlns:dc="http://purl.org/dc/elements/1.1/"
   xmlns:cc="http://creativecommons.org/ns#"
   xmlns:rdf="http://www.w3.org/1999/02/22-rdf-syntax-ns#"
   xmlns:svg="http://www.w3.org/2000/svg"
   xmlns="http://www.w3.org/2000/svg"
   xmlns:sodipodi="http://sodipodi.sourceforge.net/DTD/sodipodi-0.dtd"
   xmlns:inkscape="http://www.inkscape.org/namespaces/inkscape"
   width="633.302mm"
   height="495.13077mm"
   viewBox="0 0 633.30201 495.13076"
   version="1.1"
   id="svg8"
   inkscape:version="0.92.5 (2060ec1f9f, 2020-04-08)"
   sodipodi:docname="under_construction.svg"
   inkscape:export-filename="/home/catherine/Pictures/misc_logos/under_construction.png"
   inkscape:export-xdpi="200"
   inkscape:export-ydpi="200">
  <defs
     id="defs2" />
  <sodipodi:namedview
     id="base"
     pagecolor="#ffffff"
     bordercolor="#666666"
     borderopacity="1.0"
     inkscape:pageopacity="0.0"
     inkscape:pageshadow="2"
     inkscape:zoom="0.21525214"
     inkscape:cx="1675.521"
     inkscape:cy="563.49527"
     inkscape:document-units="mm"
     inkscape:current-layer="layer1"
     showgrid="false"
     fit-margin-top="0"
     fit-margin-left="0"
     fit-margin-right="0"
     fit-margin-bottom="0"
     inkscape:window-width="1880"
     inkscape:window-height="1136"
     inkscape:window-x="40"
     inkscape:window-y="27"
     inkscape:window-maximized="1" />
  <metadata
     id="metadata5">
    <rdf:RDF>
      <cc:Work
         rdf:about="">
        <dc:format>image/svg+xml</dc:format>
        <dc:type
           rdf:resource="http://purl.org/dc/dcmitype/StillImage" />
        <dc:title></dc:title>
      </cc:Work>
    </rdf:RDF>
  </metadata>
  <g
     inkscape:label="Layer 1"
     inkscape:groupmode="layer"
     id="layer1"
     transform="translate(130.74758,509.8881)">
    <g
       id="g1095"
       transform="translate(-555.22557,-531.07228)">
      <g
         id="g1031"
         transform="translate(175.35894,239.61057)">
        <g
           id="g849"
           transform="matrix(-0.42372974,0,0,0.35277778,879.39298,-218.42257)"
           style="fill:#b3b3b3">
          <path
             id="path847"
             d="m 1010.5,291.62 -56.25,-112.5 c -3.1875,-6.3555 -9.6758,-10.367 -16.781,-10.367 h -675 v -63.414 l 112.5,-56.25 v 82.164 c 0,10.352 8.3828,18.75 18.75,18.75 10.3672,0 18.75,-8.3984 18.75,-18.75 v -112.5 c 0,-6.5078 -3.375,-12.523 -8.9062,-15.957 -5.5312,-3.4297 -12.414,-3.7305 -18.242,-0.82422 l -149.98,75 c -6.3555,3.168 -10.367,9.6758 -10.367,16.781 v 75 h -112.5 c -10.367,0 -18.75,8.3984 -18.75,18.75 v 112.5 c 0,10.352 8.3828,18.75 18.75,18.75 h 262.5 v 25.914 l -112.5,56.25 v -44.664 c 0,-10.352 -8.3828,-18.75 -18.75,-18.75 -10.3672,0 -18.75,8.3984 -18.75,18.75 v 693.75002 h -56.25 c -41.363,0 -75,33.637 -75,75 v 56.25 c 0,10.352 8.3828,18.75 18.75,18.75 h 412.5 c 10.367,0 18.75,-8.3984 18.75,-18.75 v -56.25 c 0,-41.363 -33.637,-75 -75,-75 h -206.25 v -82.16402 l 112.5,-56.25 v 100.91002 c 0,10.352 8.3828,18.75 18.75,18.75 10.3672,0 18.75,-8.3984 18.75,-18.75 V 318.74878 h 375 v 56.25 c 0,10.352 8.3828,18.75 18.75,18.75 h 37.5 v 150 c 0,10.352 8.3828,18.75 18.75,18.75 10.3672,0 18.75,-8.3984 18.75,-18.75 v -150 h 37.5 c 10.367,0 18.75,-8.3984 18.75,-18.75 v -56.25 h 56.25 c 6.5078,0 12.523,-3.375 15.957,-8.8867 3.4297,-5.5312 3.7305,-12.43 0.8242,-18.242 z M 506.22,1125 v 37.5 h -375 V 1125 c 0,-20.68 16.82,-37.5 37.5,-37.5 h 300 c 20.68,0 37.5,16.82 37.5,37.5 z M 374.97,607.16 262.47,663.41 v -89.324 l 112.5,-56.25 z m -112.5,98.176 112.5,-56.25 v 89.324 l -112.5,56.25 z m 112.5,-318.75 v 89.324 l -112.5,56.25 v -89.324 z m -112.5,539.32 v -89.324 l 112.5,-56.25 v 89.324 z m 637.5,-569.66 h -75 v -37.5 h 75 z m -768.75,-75 v -75 h 37.5 v 37.5 c 0,10.352 8.3828,18.75 18.75,18.75 10.3672,0 18.75,-8.3984 18.75,-18.75 v -37.5 h 75 v 37.5 c 0,10.352 8.3828,18.75 18.75,18.75 10.3672,0 18.75,-8.3984 18.75,-18.75 v -37.5 h 75 v 37.5 c 0,10.352 8.3828,18.75 18.75,18.75 10.3672,0 18.75,-8.3984 18.75,-18.75 v -37.5 h 75 v 37.5 c 0,10.352 8.3828,18.75 18.75,18.75 10.3672,0 18.75,-8.3984 18.75,-18.75 v -37.5 h 75 v 37.5 c 0,10.352 8.3828,18.75 18.75,18.75 10.3672,0 18.75,-8.3984 18.75,-18.75 v -37.5 h 75 v 37.5 c 0,10.352 8.3828,18.75 18.75,18.75 10.3672,0 18.75,-8.3984 18.75,-18.75 v -37.5 h 75 v 37.5 c 0,10.352 8.3828,18.75 18.75,18.75 10.3672,0 18.75,-8.3984 18.75,-18.75 v -37.5 h 44.664 l 37.5,75 z"
             inkscape:connector-curvature="0"
             style="fill:#b3b3b3" />
        </g>
        <g
           id="g980"
           transform="matrix(0.34925468,0,0,0.54240949,262.43505,-35.104161)">
          <path
             id="path925"
             d="m 202.67486,306.64811 h -82.9945 c -8.89388,0 -16.10783,7.21396 -16.10783,16.10784 v 99.85375 c 0,8.89388 7.21395,16.10783 16.10783,16.10783 h 82.9945 c 8.89812,0 16.10784,-7.21395 16.10784,-16.10783 v -99.85375 c 0,-8.89388 -7.21008,-16.10784 -16.10784,-16.10784"
             inkscape:connector-curvature="0"
             style="fill:#7886ab;stroke-width:0.35277778" />
          <path
             id="path927"
             d="m 467.43276,206.00344 h -82.9945 c -8.89812,0 -16.10784,7.21395 -16.10784,16.10783 v 200.4942 c 0,8.89811 7.21007,16.11206 16.10784,16.11206 h 82.9945 c 8.89388,0 16.10783,-7.21395 16.10783,-16.11206 v -200.4942 c 0,-8.89388 -7.21395,-16.10783 -16.10783,-16.10783"
             inkscape:connector-curvature="0"
             style="fill:#7886ab;stroke-width:0.35277778" />
          <path
             id="path929"
             d="m 335.05558,123.53175 h -82.99803 c -8.89388,0 -16.10783,7.21395 -16.10783,16.10783 V 422.6097 c 0,8.89388 7.21395,16.10783 16.10783,16.10783 h 82.99803 c 8.89388,0 16.10783,-7.21395 16.10783,-16.10783 V 139.63958 c 0,-8.89388 -7.21395,-16.10783 -16.10783,-16.10783"
             inkscape:connector-curvature="0"
             style="fill:#7886ab;stroke-width:0.35277778" />
          <path
             id="path925-7"
             d="m 599.81175,67.011205 h -82.9945 c -8.89388,0 -16.10783,20.303524 -16.10783,45.335145 v 281.03604 c 0,25.03162 7.21395,45.33514 16.10783,45.33514 h 82.9945 c 8.89811,0 16.10783,-20.30352 16.10783,-45.33514 V 112.34635 c 0,-25.031621 -7.21007,-45.335145 -16.10783,-45.335145"
             inkscape:connector-curvature="0"
             style="fill:#7886ab;stroke-width:0.59183419" />
          <path
             id="path929-3"
             d="m 760.33061,3.6741506 h -82.99803 c -8.89388,0 -16.10783,7.2139604 -16.10783,16.1078404 V 302.75209 c 0,8.89388 7.21395,16.10783 16.10783,16.10783 h 82.99803 c 8.89388,0 16.10783,-7.21395 16.10783,-16.10783 V 19.781991 c 0,-8.89388 -7.21395,-16.1078404 -16.10783,-16.1078404"
             inkscape:connector-curvature="0"
             style="fill:#7886ab;stroke-width:0.35277778" />
        </g>
        <rect
           style="fill:#333333;fill-opacity:1;stroke:#808080;stroke-width:1.07744157;stroke-linecap:round;stroke-linejoin:round;stroke-miterlimit:4;stroke-dasharray:none;stroke-dashoffset:0.3999995;stroke-opacity:1"
           id="rect982"
           width="269.11905"
           height="12.628952"
           x="276.6358"
           y="191.74408" />
      </g>
      <text
         id="text1020"
         y="515.46777"
         x="419.80396"
         style="font-style:normal;font-weight:normal;font-size:32.05049896px;line-height:1.25;font-family:sans-serif;letter-spacing:0px;word-spacing:0px;fill:#000000;fill-opacity:1;stroke:none;stroke-width:0.80126244"
         xml:space="preserve"><tspan
           style="font-style:normal;font-variant:normal;font-weight:bold;font-stretch:normal;font-size:59.82760239px;font-family:sans-serif;-inkscape-font-specification:'sans-serif, Bold';font-variant-ligatures:normal;font-variant-caps:normal;font-variant-numeric:normal;font-feature-settings:normal;text-align:start;writing-mode:lr-tb;text-anchor:start;stroke-width:0.80126244"
           y="515.46777"
           x="419.80396"
           id="tspan1018"
           sodipodi:role="line">under construction</tspan></text>
    </g>
  </g>
</svg>
