<?xml version="1.0" encoding="UTF-8" standalone="no"?>
<!-- Created with Inkscape (http://www.inkscape.org/) -->

<svg
   xmlns:dc="http://purl.org/dc/elements/1.1/"
   xmlns:cc="http://creativecommons.org/ns#"
   xmlns:rdf="http://www.w3.org/1999/02/22-rdf-syntax-ns#"
   xmlns:svg="http://www.w3.org/2000/svg"
   xmlns="http://www.w3.org/2000/svg"
   xmlns:sodipodi="http://sodipodi.sourceforge.net/DTD/sodipodi-0.dtd"
   xmlns:inkscape="http://www.inkscape.org/namespaces/inkscape"
   width="1029.0861mm"
   height="573.646mm"
   viewBox="0 0 1029.0861 573.64598"
   version="1.1"
   id="svg8"
   inkscape:version="0.92.5 (2060ec1f9f, 2020-04-08)"
   sodipodi:docname="logo.svg"
   inkscape:export-filename="/home/catherine/Pictures/misc_logos/under_construction.png"
   inkscape:export-xdpi="200"
   inkscape:export-ydpi="200">
  <defs
     id="defs2" />
  <sodipodi:namedview
     id="base"
     pagecolor="#ffffff"
     bordercolor="#666666"
     borderopacity="1.0"
     inkscape:pageopacity="0.0"
     inkscape:pageshadow="2"
     inkscape:zoom="0.21525214"
     inkscape:cx="795.37937"
     inkscape:cy="1094.5199"
     inkscape:document-units="mm"
     inkscape:current-layer="layer1"
     showgrid="false"
     fit-margin-top="0"
     fit-margin-left="0"
     fit-margin-right="0"
     fit-margin-bottom="0"
     inkscape:window-width="1880"
     inkscape:window-height="1136"
     inkscape:window-x="40"
     inkscape:window-y="27"
     inkscape:window-maximized="1" />
  <metadata
     id="metadata5">
    <rdf:RDF>
      <cc:Work
         rdf:about="">
        <dc:format>image/svg+xml</dc:format>
        <dc:type
           rdf:resource="http://purl.org/dc/dcmitype/StillImage" />
        <dc:title></dc:title>
      </cc:Work>
    </rdf:RDF>
  </metadata>
  <g
     inkscape:label="Layer 1"
     inkscape:groupmode="layer"
     id="layer1"
     transform="translate(1107.6019,10.489205)">
    <rect
       style="fill:none;fill-opacity:1;stroke:none;stroke-width:5.69999981;stroke-linecap:round;stroke-linejoin:round;stroke-miterlimit:4;stroke-dasharray:none;stroke-dashoffset:0;stroke-opacity:1"
       id="rect906"
       width="1029.0861"
       height="573.646"
       x="-445.30164"
       y="-744.06073" />
    <rect
       style="fill:none;fill-opacity:1;stroke:none;stroke-width:5.69999981;stroke-linecap:round;stroke-linejoin:round;stroke-miterlimit:4;stroke-dasharray:none;stroke-dashoffset:0;stroke-opacity:1"
       id="rect948"
       width="1029.0861"
       height="573.646"
       x="-1107.6019"
       y="-10.489205" />
    <g
       id="g3294"
       transform="matrix(0.5796292,0,0,0.5796292,-940.83295,-71.401417)">
      <path
         id="path3256"
         d="m 450.74,588.37 h 56.25 V 434.43 h -39.938 c -31.875,0 -57.75,-26.062 -57.75,-57.938 0,-31.876 25.875,-57.75 57.75,-57.75 h 19.688 c 31.875,0 57.75,26.062 57.75,57.75 v 20.438 h 37.688 v -20.438 c 0,-31.688 26.062,-57.75 57.75,-57.75 h 19.688 c 31.875,0 57.938,26.062 57.938,57.75 0,31.688 -26.062,57.938 -57.938,57.938 h -39.938 v 153.94 h 56.25 c 6.1875,-26.25 19.5,-50.25 38.438,-68.812 41.812,-40.875 64.688,-95.438 64.688,-153.74 0,-61.688 -26.25,-120.37 -72.375,-161.26 -45.938,-40.875 -107.62,-60.188 -169.13,-53.062 -95.625,11.25 -172.5,85.125 -187.31,180 -10.688,69.375 11.438,137.44 60.562,186.56 20.062,20.062 33.562,44.062 39.938,70.312 z"
         inkscape:connector-curvature="0"
         style="fill:#b3b3b3;fill-opacity:1" />
      <path
         id="path3258"
         d="m 680.06,376.5 c 0,-11.062 -9.1875,-20.25 -20.438,-20.25 h -19.688 c -11.062,0 -20.25,9.1875 -20.25,20.25 v 20.438 h 39.938 c 11.25,0 20.438,-9.1875 20.438,-20.438 z"
         inkscape:connector-curvature="0"
         style="fill:#b3b3b3;fill-opacity:1" />
      <path
         id="path3260"
         d="m 544.5,434.44 h 37.688 V 588.38 H 544.5 Z"
         inkscape:connector-curvature="0"
         style="fill:#b3b3b3;fill-opacity:1" />
      <path
         id="path3262"
         d="m 486.74,356.26 h -19.688 c -11.062,0 -20.25,9.1875 -20.25,20.25 0,11.0625 9.1875,20.438 20.25,20.438 H 506.99 V 376.51 c 0,-11.062 -9,-20.25 -20.25,-20.25 z"
         inkscape:connector-curvature="0"
         style="fill:#b3b3b3;fill-opacity:1" />
      <path
         id="path3264"
         d="m 716.26,617.81 c -2.0625,-0.5625 -3.9375,-1.125 -6,-1.5 -12.562,-3.1875 -25.312,-4.5 -37.875,-4.5 h -0.75 c -12.375,0 -24.938,1.5 -37.125,4.3125 -9.9375,2.25 -19.688,5.4375 -29.25,9.75 -5.25,2.25 -10.312,4.875 -15.375,7.6875 -23.25,13.312 -42.562,31.5 -56.812,53.25 -6.9375,10.312 -12.562,21.562 -16.688,33.375 -1.875,4.5 -3.375,9.1875 -4.6875,13.875 -10.125,36.75 -7.5,75.188 7.3125,109.69 2.4375,5.625 5.0625,11.25 8.25,16.688 3.1875,5.438 6.5625,10.688 10.312,15.75 21.938,30.375 53.438,52.312 90.188,62.625 14.812,3.9375 29.625,6 44.625,6 28.312,0 56.438,-7.3125 81.75,-21.75 79.875,-45.375 108,-147 62.625,-226.87 -21.938,-38.625 -57.562,-66.562 -100.5,-78.375 z"
         inkscape:connector-curvature="0"
         style="fill:#000000;fill-opacity:1" />
      <path
         id="path3266"
         d="m 500.06,710.63 c 3.9375,-11.625 10.125,-23.25 17.438,-34.312 13.125,-19.688 29.625,-36.75 49.312,-50.438 H 455.06 c 0.9375,34.688 18.188,65.625 45,84.75 z"
         inkscape:connector-curvature="0"
         style="fill:#b3b3b3;fill-opacity:1" />
      <path
         id="path3268"
         d="m 502.5,852.94 -20.438,11.625 c -3.75,-2.625 -8.0625,-4.6875 -12.75,-6 -10.875,-3 -22.5,-1.6875 -32.25,3.9375 l -189.56,107.62 c -9.9375,5.625 -17.062,14.625 -20.062,25.5 -3,11.062 -1.5,22.5 4.125,32.438 v 0.375 c 7.875,13.688 22.312,21.375 37.125,21.375 7.125,0 14.25,-1.6875 20.812,-5.4375 l 189.74,-107.62 c 9.75,-5.625 16.875,-14.625 19.875,-25.5 1.3125,-4.6875 1.6875,-9.375 1.3125,-13.875 l 20.812,-11.812 c -3.75,-4.875 -6.9375,-10.125 -10.125,-15.562 -3.75,-6.1875 -6.5625,-12.375 -8.625,-17.062 z"
         inkscape:connector-curvature="0"
         style="fill:#000000;fill-opacity:1" />
      <path
         id="path3270"
         d="m 297.37,766.69 c 0,10.312 8.4375,18.75 18.75,18.75 h 1.5 c 10.312,0 18.75,-8.4375 18.75,-18.75 0,-33.188 27,-60.188 60.375,-60.188 10.312,0 18.75,-10.125 18.75,-20.438 0,-10.313 -8.4375,-18.75 -18.75,-18.75 -33.375,0 -60.375,-27 -60.375,-60.188 0,-10.5 -9.9375,-18.75 -20.25,-18.75 -10.3125,0 -18.75,8.25 -18.75,18.75 0,33.188 -27,60.188 -60.375,60.188 -10.312,0 -18.75,9.9375 -18.75,20.438 0,10.5005 8.4375,18.75 18.75,18.75 33.375,0 60.375,27 60.375,60.188 z"
         inkscape:connector-curvature="0"
         style="fill:#7886ab;fill-opacity:1" />
      <path
         id="path3272"
         d="m 237,592.5 c 10.5,0 18.75,-8.4375 18.75,-18.75 0,-15.375 12.375,-27.75 27.75,-27.75 10.312,0 18.75,-8.25 18.75,-18.75 0,-10.5 -8.4375,-18.75 -18.75,-18.75 -15.375,0 -27.75,-12.375 -27.75,-27.562 0,-10.312 -8.25,-18.75 -18.75,-18.75 -10.5,0 -18.75,8.4375 -18.75,18.75 0,15.188 -12.375,27.562 -27.562,27.562 -10.312,0 -18.75,8.4375 -18.75,18.75 0,10.3125 8.4375,18.75 18.75,18.75 15.188,0 27.562,12.375 27.562,27.75 0,10.312 8.4375,18.75 18.75,18.75 z"
         inkscape:connector-curvature="0"
         style="fill:#7886ab;fill-opacity:1" />
      <path
         id="path3274"
         d="m 1009.3,530.81 c -54.938,0 -99.75,-44.625 -99.75,-99.75 0,-10.312 -8.4375,-18.75 -18.75,-18.75 h -2.4375 c -10.312,0 -18.75,8.4375 -18.75,18.75 0,55.125 -44.812,99.75 -99.75,99.75 -10.312,0 -18.75,8.4375 -18.75,18.75 v 2.4375 c 0,10.312 8.4375,18.75 18.75,18.75 54.938,0 99.75,44.812 99.75,99.75 0,10.5 8.4375,18.75 18.75,18.75 H 890.8 c 10.312,0 18.75,-8.25 18.75,-18.75 0,-54.938 44.812,-99.75 99.75,-99.75 10.312,0 18.75,-8.4375 18.75,-18.75 V 549.56 c 0,-10.312 -8.4375,-18.75 -18.75,-18.75 z"
         inkscape:connector-curvature="0"
         style="fill:#7886ab;fill-opacity:1" />
    </g>
  </g>
</svg>
