<?xml version="1.0" encoding="UTF-8" standalone="no"?>
<!-- Created with Inkscape (http://www.inkscape.org/) -->

<svg
   xmlns:dc="http://purl.org/dc/elements/1.1/"
   xmlns:cc="http://creativecommons.org/ns#"
   xmlns:rdf="http://www.w3.org/1999/02/22-rdf-syntax-ns#"
   xmlns:svg="http://www.w3.org/2000/svg"
   xmlns="http://www.w3.org/2000/svg"
   xmlns:sodipodi="http://sodipodi.sourceforge.net/DTD/sodipodi-0.dtd"
   xmlns:inkscape="http://www.inkscape.org/namespaces/inkscape"
   width="264.8717mm"
   height="264.9101mm"
   viewBox="0 0 264.87171 264.9101"
   version="1.1"
   id="svg8"
   inkscape:version="0.92.5 (2060ec1f9f, 2020-04-08)"
   sodipodi:docname="best.svg">
  <defs
     id="defs2" />
  <sodipodi:namedview
     id="base"
     pagecolor="#ffffff"
     bordercolor="#666666"
     borderopacity="1.0"
     inkscape:pageopacity="0.0"
     inkscape:pageshadow="2"
     inkscape:zoom="0.49497475"
     inkscape:cx="482.01269"
     inkscape:cy="843.31836"
     inkscape:document-units="mm"
     inkscape:current-layer="layer1"
     showgrid="false"
     fit-margin-top="0"
     fit-margin-left="0"
     fit-margin-right="0"
     fit-margin-bottom="0"
     inkscape:window-width="1880"
     inkscape:window-height="1136"
     inkscape:window-x="40"
     inkscape:window-y="27"
     inkscape:window-maximized="1" />
  <metadata
     id="metadata5">
    <rdf:RDF>
      <cc:Work
         rdf:about="">
        <dc:format>image/svg+xml</dc:format>
        <dc:type
           rdf:resource="http://purl.org/dc/dcmitype/StillImage" />
        <dc:title></dc:title>
      </cc:Work>
    </rdf:RDF>
  </metadata>
  <g
     inkscape:label="Layer 1"
     inkscape:groupmode="layer"
     id="layer1"
     transform="translate(-292.96275,105.95726)">
    <path
       style="fill:#ffffff;fill-opacity:1;stroke:none;stroke-width:2.16199994;stroke-linecap:round;stroke-linejoin:round;stroke-miterlimit:4;stroke-dasharray:none;stroke-dashoffset:0.3999995;stroke-opacity:1"
       d="m 2367.7285,-1237.2461 c -11.523,-0.011 -23.0682,0.9177 -34.5898,1.1231 -47.8814,4.264 -95.2031,14.0244 -140.2891,30.8613 -60.4643,23.0248 -116.7641,57.2619 -164.1269,101.4551 -42.2522,38.8372 -77.5147,85.2986 -104.0391,136.16793 -28.4705,54.45837 -46.3909,114.14675 -53.5586,175.14258 -6.8242,60.86587 -2.252,122.8211 13.0859,182.11718 16.6134,63.22208 45.4375,123.29179 85.0157,175.38672 34.4406,45.88003 77.1061,85.62055 125.0703,117.06641 51.334,33.77151 108.9359,57.53506 168.9023,70.76367 59.8849,12.53582 121.9824,14.84646 182.4922,5.17578 64.5694,-10.21255 127.2292,-32.88414 183.0137,-67.07617 49.0965,-29.67832 92.8939,-68.17755 128.9804,-112.75391 38.7164,-47.70734 68.1318,-102.63017 87.2754,-160.97461 20.1874,-64.03735 28.4953,-132.16311 22.0059,-199.09375 -5.4615,-61.198 -22.6269,-121.09315 -49.5508,-176.28125 -28.9446,-57.89668 -68.6775,-110.48958 -117.3828,-153.23438 -42.86,-38.1018 -92.5555,-68.5629 -145.7871,-89.8555 -57.633,-23.2288 -119.5198,-34.8742 -181.5801,-35.9218 -1.6452,-0.045 -3.2913,-0.067 -4.9375,-0.068 z m 307.9531,224.7695 c 29.0288,0.2178 49.8338,28.72204 49.17,56.04496 0.494,34.8203 -29.2428,58.04794 -49.6289,82.36328 -132.563,143.31313 -268.7108,283.28719 -405.6778,422.4043 -13.0417,15.9956 -36.4015,25.37894 -55.5781,14.65234 -36.5498,-20.02669 -55.7402,-59.76612 -80.9648,-91.33789 -34.5518,-49.02399 -72.4842,-97.04247 -95.8907,-152.58984 -9.9139,-19.56877 3.4477,-39.81971 16.5801,-53.94532 15.3938,-15.53141 35.5366,-34.3684 58.9961,-30.40625 14.3367,12.7881 25.1342,30.31988 37.8672,45.0918 28.05,32.42487 49.1096,73.57963 87.7871,94.95703 15.098,8.62188 32.9818,1.06073 43.8984,-10.73047 105.9198,-107.08175 210.4824,-215.57689 315.8828,-323.19922 22.166,-20.63025 41.0848,-51.99832 74.7247,-53.23632 0.953,-0.053 1.8975,-0.075 2.8339,-0.068 z"
       transform="matrix(0.26458333,0,0,0.26458333,-201.29031,221.39746)"
       id="path940"
       inkscape:connector-curvature="0" />
  </g>
</svg>
