<?xml version="1.0" encoding="UTF-8"?>
<svg width="1200pt" height="1200pt" version="1.1" viewBox="0 0 1200 1200" xmlns="http://www.w3.org/2000/svg">
 <path d="m600 20.953c153.56 0 300.84 61.031 409.45 169.6 108.56 108.61 169.6 255.89 169.6 409.45 0 153.56-61.031 300.84-169.6 409.45-108.61 108.56-255.89 169.6-409.45 169.6-153.56 0-300.84-61.031-409.45-169.6-108.56-108.61-169.6-255.89-169.6-409.45 0.046875-153.56 61.078-300.79 169.64-409.4 108.61-108.56 255.84-169.6 409.4-169.64zm0 193.03c33.797 0.046875 64.219 20.438 77.156 51.656 12.891 31.219 5.7656 67.125-18.094 91.031-23.906 23.906-59.812 31.125-91.031 18.234-31.266-12.844-51.656-43.266-51.797-77.062-0.046875-22.219 8.7656-43.594 24.469-59.344 15.703-15.703 37.031-24.562 59.297-24.516zm-153.24 307.6h124.18c26.812 0 52.5 10.641 71.484 29.578 18.938 18.938 29.578 44.672 29.578 71.438v256.31l80.859 95.625h-123.79c-55.828 0-101.06-45.234-101.06-101.06v-258.42z" fill="#fff" fill-rule="evenodd"/>
</svg>
