<?xml version="1.0" encoding="UTF-8" standalone="no"?>
<!-- Created with Inkscape (http://www.inkscape.org/) -->

<svg
   xmlns:dc="http://purl.org/dc/elements/1.1/"
   xmlns:cc="http://creativecommons.org/ns#"
   xmlns:rdf="http://www.w3.org/1999/02/22-rdf-syntax-ns#"
   xmlns:svg="http://www.w3.org/2000/svg"
   xmlns="http://www.w3.org/2000/svg"
   xmlns:sodipodi="http://sodipodi.sourceforge.net/DTD/sodipodi-0.dtd"
   xmlns:inkscape="http://www.inkscape.org/namespaces/inkscape"
   width="1029.0861mm"
   height="573.646mm"
   viewBox="0 0 1029.0861 573.64598"
   version="1.1"
   id="svg8"
   inkscape:version="0.92.5 (2060ec1f9f, 2020-04-08)"
   sodipodi:docname="logo.svg"
   inkscape:export-filename="/home/catherine/Pictures/misc_logos/under_construction.png"
   inkscape:export-xdpi="200"
   inkscape:export-ydpi="200">
  <defs
     id="defs2" />
  <sodipodi:namedview
     id="base"
     pagecolor="#ffffff"
     bordercolor="#666666"
     borderopacity="1.0"
     inkscape:pageopacity="0.0"
     inkscape:pageshadow="2"
     inkscape:zoom="0.15220625"
     inkscape:cx="3174.9928"
     inkscape:cy="2795.3734"
     inkscape:document-units="mm"
     inkscape:current-layer="layer1"
     showgrid="false"
     fit-margin-top="0"
     fit-margin-left="0"
     fit-margin-right="0"
     fit-margin-bottom="0"
     inkscape:window-width="1880"
     inkscape:window-height="1136"
     inkscape:window-x="40"
     inkscape:window-y="27"
     inkscape:window-maximized="1" />
  <metadata
     id="metadata5">
    <rdf:RDF>
      <cc:Work
         rdf:about="">
        <dc:format>image/svg+xml</dc:format>
        <dc:type
           rdf:resource="http://purl.org/dc/dcmitype/StillImage" />
        <dc:title />
      </cc:Work>
    </rdf:RDF>
  </metadata>
  <g
     inkscape:label="Layer 1"
     inkscape:groupmode="layer"
     id="layer1"
     transform="translate(1107.6019,10.489205)">
    <rect
       style="fill:none;fill-opacity:1;stroke:none;stroke-width:5.69999981;stroke-linecap:round;stroke-linejoin:round;stroke-miterlimit:4;stroke-dasharray:none;stroke-dashoffset:0;stroke-opacity:1"
       id="rect906"
       width="1029.0861"
       height="573.646"
       x="-445.30164"
       y="-744.06073" />
    <path
       id="path927"
       d="m -381.78609,141.31917 c 11.20143,9.68237 20.56766,29.04665 20.56766,42.90623 v 301.41967 c 0,13.85957 -13.03619,25.12396 -28.98368,25.12396 h -405.71363 c -16.01003,0 -28.9837,-11.26439 -28.9837,-25.12396 V 67.022514 c 0,-13.859572 12.97367,-25.123961 28.9837,-25.123961 h 270.47575 c 15.9475,0 38.2874,8.100339 49.48794,17.782262 l 94.16686,81.637465 z M -515.7603,77.466642 v 98.408818 h 113.46997 c -1.83495,-4.4929 -4.4929,-8.92328 -6.64559,-10.75849 L -503.4198,83.229445 c -2.08784,-1.834928 -7.214,-4.177426 -12.40302,-5.759234 z M -399.88806,477.23261 V 209.35115 h -125.55729 c -16.01002,0 -28.9837,-11.2644 -28.9837,-25.12397 V 75.378707 h -231.807 V 477.22993 Z"
       inkscape:connector-curvature="0"
       style="fill-rule:evenodd;stroke-width:0.44652119;fill:#b3b3b3;fill-opacity:1" />
    <rect
       style="fill:none;fill-opacity:1;stroke:none;stroke-width:5.69999981;stroke-linecap:round;stroke-linejoin:round;stroke-miterlimit:4;stroke-dasharray:none;stroke-dashoffset:0;stroke-opacity:1"
       id="rect948"
       width="1029.0861"
       height="573.646"
       x="-1107.6019"
       y="-10.489205" />
    <path
       id="path875"
       d="m -688.52357,273.78118 c -25.0575,12.52894 -32.3237,25.82646 -32.3237,34.12511 0,8.27835 7.2662,21.5966 32.3237,34.10481 23.762,11.9011 58.0892,19.85561 97.21405,19.85561 3.35987,0 6.71958,-0.0607 10.01892,-0.16193 l 1.53826,43.15262 c -3.82543,0.12145 -7.67125,0.20241 -11.55739,0.20241 -44.36683,0 -85.59884,-8.94634 -116.52394,-24.40974 -29.6521,-14.83601 -56.2109,-39.30664 -56.2109,-72.74432 0,-33.45712 26.5553,-57.92947 56.2109,-72.74432 30.9273,-15.46341 72.15711,-24.40974 116.52394,-24.40974 44.34523,0 85.57723,8.94633 116.50232,24.40974 29.65214,14.81571 56.21091,39.28634 56.21091,72.74432 0,37.14118 -32.4454,63.18872 -67.20007,77.78335 -1.51802,0.62744 -3.31943,1.29538 -5.32315,1.78115 -2.02403,0.50602 -4.65518,0.91083 -7.69112,0.7489 -3.25871,-0.18216 -6.23424,-0.99178 -8.84487,-2.22641 -1.19417,-0.54648 -2.1455,-1.11321 -2.77294,-1.51802 -0.46551,-0.28336 -0.87032,-0.56673 -1.05249,-0.68819 0.32384,0.2024 1.1132,0.7084 2.06449,1.17396 1.67993,0.80961 3.54205,1.3966 5.46478,1.67994 3.44088,0.46552 5.58656,-0.28337 4.99932,-0.12144 l -12.00258,-41.47251 c 3.23845,-0.93104 7.79258,-1.90257 12.93352,-1.19417 0.0204,0.0202 0.0404,0.0202 0.0607,0.0202 27.6279,-12.67056 36.18952,-27.12184 36.18952,-35.96714 0,-8.29864 -7.28654,-21.5966 -32.34396,-34.1251 -23.76205,-11.88124 -58.08924,-19.85562 -97.19682,-19.85562 -39.12441,0 -73.4524,7.97481 -97.2141,19.85562 z m 201.57001,74.46286 c 0.0204,0 0.0404,0.0202 0.0607,0.0405 l 0.0201,0.0202 c 0.16192,0.1012 0.12144,0.0607 -0.081,-0.0607 z m -24.53108,35.54182 c -0.0405,-0.0202 -0.0607,-0.0405 -0.0607,-0.0607 h -0.0202 c -0.1012,-0.081 -0.0607,-0.0405 0.081,0.0607 z"
       inkscape:connector-curvature="0"
       style="fill:#7886ab;fill-opacity:1;fill-rule:evenodd;stroke:#b3b3b3;stroke-width:0.4317939;stroke-opacity:1" />
    <path
       id="path873"
       d="m -586.77718,315.15642 c 0,-11.9214 9.67477,-21.59661 21.5966,-21.59661 h 43.17249 c 29.81406,0 53.98287,24.16708 53.98287,53.98288 0,26.98021 -19.79517,49.3454 -45.6622,53.33518 l 39.34721,39.34721 -30.54251,30.54251 -38.69953,-38.71982 v 23.4382 h -43.19234 z m 43.19234,43.17248 v -21.57631 h 21.57631 c 5.97085,0 10.80824,4.81709 10.80824,10.78794 0,5.97084 -4.83739,10.78794 -10.80824,10.78794 z"
       inkscape:connector-curvature="0"
       style="fill:#000000;fill-opacity:1;fill-rule:evenodd;stroke-width:0.4317939" />
  </g>
</svg>
