<?xml version="1.0" encoding="UTF-8" standalone="no"?>
<!-- Created with Inkscape (http://www.inkscape.org/) -->

<svg
   xmlns:dc="http://purl.org/dc/elements/1.1/"
   xmlns:cc="http://creativecommons.org/ns#"
   xmlns:rdf="http://www.w3.org/1999/02/22-rdf-syntax-ns#"
   xmlns:svg="http://www.w3.org/2000/svg"
   xmlns="http://www.w3.org/2000/svg"
   xmlns:sodipodi="http://sodipodi.sourceforge.net/DTD/sodipodi-0.dtd"
   xmlns:inkscape="http://www.inkscape.org/namespaces/inkscape"
   width="1029.0861mm"
   height="573.646mm"
   viewBox="0 0 1029.0861 573.64598"
   version="1.1"
   id="svg8"
   inkscape:version="0.92.5 (2060ec1f9f, 2020-04-08)"
   sodipodi:docname="logo.svg"
   inkscape:export-filename="/home/catherine/Pictures/misc_logos/under_construction.png"
   inkscape:export-xdpi="200"
   inkscape:export-ydpi="200">
  <defs
     id="defs2" />
  <sodipodi:namedview
     id="base"
     pagecolor="#ffffff"
     bordercolor="#666666"
     borderopacity="1.0"
     inkscape:pageopacity="0.0"
     inkscape:pageshadow="2"
     inkscape:zoom="0.10762607"
     inkscape:cx="3686.8488"
     inkscape:cy="1888.4336"
     inkscape:document-units="mm"
     inkscape:current-layer="layer1"
     showgrid="false"
     fit-margin-top="0"
     fit-margin-left="0"
     fit-margin-right="0"
     fit-margin-bottom="0"
     inkscape:window-width="1880"
     inkscape:window-height="1136"
     inkscape:window-x="40"
     inkscape:window-y="27"
     inkscape:window-maximized="1" />
  <metadata
     id="metadata5">
    <rdf:RDF>
      <cc:Work
         rdf:about="">
        <dc:format>image/svg+xml</dc:format>
        <dc:type
           rdf:resource="http://purl.org/dc/dcmitype/StillImage" />
        <dc:title />
      </cc:Work>
    </rdf:RDF>
  </metadata>
  <g
     inkscape:label="Layer 1"
     inkscape:groupmode="layer"
     id="layer1"
     transform="translate(1107.6019,10.489205)">
    <rect
       style="fill:none;fill-opacity:1;stroke:none;stroke-width:5.69999981;stroke-linecap:round;stroke-linejoin:round;stroke-miterlimit:4;stroke-dasharray:none;stroke-dashoffset:0;stroke-opacity:1"
       id="rect906"
       width="1029.0861"
       height="573.646"
       x="-445.30164"
       y="-744.06073" />
    <rect
       style="fill:none;fill-opacity:1;stroke:none;stroke-width:5.69999981;stroke-linecap:round;stroke-linejoin:round;stroke-miterlimit:4;stroke-dasharray:none;stroke-dashoffset:0;stroke-opacity:1"
       id="rect948"
       width="1029.0861"
       height="573.646"
       x="-1107.6019"
       y="-10.489205" />
    <g
       id="g1225"
       transform="matrix(0.45330148,0,0,0.45330148,-905.30489,-32.751787)"
       style="fill:#7886ab;fill-opacity:1">
      <path
         id="path1205"
         d="m 1005.6,258.52 c -0.1172,-0.58594 -0.2344,-1.1719 -0.3516,-1.7578 0.1172,1.5234 0.2344,3.0469 0.2344,4.5703 0,0.82031 -0.3515,4.6875 -0.3515,5.3906 -0.4688,2.3438 -1.1719,4.5703 -1.875,6.7969 l -0.3516,1.0547 -0.1172,0.46875 c -0.1172,0.23438 -0.1172,0.46875 -0.2344,0.58594 0,0.11719 0,0.11719 -0.1172,0.23438 0,0.11719 0,0.11719 -0.1171,0.11719 -0.1172,0.23438 -0.2344,0.46875 -0.3516,0.70313 l -1.4062,2.8125 c -1.52341,2.8125 -3.28121,5.5078 -5.15621,8.2031 0.23438,-0.23437 0.35156,-0.35156 0.35156,-0.46875 -0.11719,0.11719 -0.23438,0.35156 -0.58594,0.70313 -0.11719,0.23437 -0.23438,0.35156 -0.35156,0.46875 -0.35156,0.35156 -0.58594,0.70312 -0.9375,1.1719 -0.58594,0.70313 -1.2891,1.5234 -1.875,2.2266 -2.5781,2.9297 -5.3906,5.8594 -8.3203,8.5547 -0.9375,0.82031 -1.875,1.6406 -2.8125,2.4609 -0.46875,0.35156 -0.82031,0.82031 -1.2891,1.1719 -0.46875,0.46875 -1.0547,0.9375 -1.5234,1.4062 -0.9375,0.82031 -1.9922,1.6406 -2.9297,2.4609 0,0 -0.11719,0.11719 -0.23438,0.11719 -0.11719,0.11719 -0.23437,0.11719 -0.23437,0.23438 -0.11719,0.11719 -0.23438,0.23438 -0.35156,0.35156 -0.35156,0.23437 -0.82031,0.58594 -1.0547,0.70312 -0.46875,0.35156 -1.0547,0.70313 -1.5234,1.0547 -0.58594,0.35156 -1.0547,0.82031 -1.6406,1.1719 -0.46875,0.35156 -0.9375,0.58594 -1.2891,0.9375 -9.6094,6.6797 -19.688,12.422 -30,17.812 -4.5703,2.3438 -9.1406,4.5703 -13.828,6.6797 -2.1094,0.9375 -4.1016,1.875 -6.2109,2.8125 0,0 -0.11719,0 -0.23438,0.11719 -0.11719,0.11719 -0.35156,0.11719 -0.58594,0.23438 h -0.11719 c -0.82031,0.35156 -1.9922,0.9375 -2.2266,0.9375 0.35156,-0.23438 0.70312,-0.35156 1.1719,-0.46875 h -0.11719 -0.11719 c -0.58594,0.23438 -1.1719,0.46875 -1.875,0.82031 -9.6094,3.8672 -19.453,7.5 -29.297,10.781 -11.016,3.75 -22.266,7.0312 -33.398,10.078 -3.3984,0.9375 -6.9141,1.875 -10.312,2.6953 -1.9922,0.46875 -3.9844,0.9375 -5.8594,1.5234 -1.7578,0.46875 -3.5156,0.9375 -5.3906,1.2891 -1.9922,0.46875 -3.8672,0.9375 -5.8594,1.4062 -0.9375,0.23438 -1.7578,0.46875 -2.6953,0.58594 -1.4062,0.35156 -2.9297,0.58594 -4.3359,0.9375 -1.5234,0.35156 -3.1641,0.70313 -4.6875,1.0547 -1.5234,0.35157 -3.1641,0.70312 -4.6875,1.0547 -2.1094,0.46875 -4.2188,0.82031 -6.3281,1.2891 -2.2266,0.46875 -4.5703,0.9375 -6.7969,1.4062 -1.875,0.35156 -3.6328,0.70312 -5.5078,1.0547 -1.6406,0.35156 -3.2812,0.58594 -4.8047,0.9375 -1.7578,0.35156 -3.3984,0.58594 -5.1562,0.9375 -5.9766,1.0547 -11.953,1.9922 -18.047,2.9297 -0.70312,0.11719 -1.2891,0.23438 -1.9922,0.35156 -2.5781,0.35156 -5.0391,0.82031 -7.6172,1.1719 -1.4062,0.23438 -2.6953,0.35156 -4.1016,0.58594 -0.35156,0 -0.70313,0.11719 -1.0547,0.11719 h -0.35156 -0.11719 -0.11719 v -0.11719 c -0.11719,0 -0.23437,-0.35156 -0.35156,-0.35156 0,0 -0.11719,0.11719 -0.23438,0.11719 v -0.11719 h -0.23438 c 0,0 0,0.23437 0.11719,0.23437 l -0.11719,0.23438 c -0.23438,0 -0.58594,0.11719 -0.82031,0.11719 h -0.35156 c -0.46875,0.11719 -0.9375,0.11719 -1.2891,0.11719 -2.4609,0.35156 -4.8047,0.58594 -7.2656,0.9375 -4.8047,0.58594 -9.7266,1.1719 -14.648,1.6406 -4.3359,0.46875 -8.7891,0.9375 -13.125,1.2891 -2.3438,0.23438 -4.8047,0.46875 -7.1484,0.58594 -2.6953,0.23437 -5.2734,0.46875 -7.8516,0.70312 -2.9297,0.23438 -5.8594,0.46875 -8.9062,0.70313 -2.4609,0.11719 -4.9219,0.35156 -7.5,0.46875 -1.2891,0.11719 -2.4609,0.23437 -3.75,0.23437 -1.2891,0.11719 -2.4609,0.11719 -3.75,0.23438 -2.4609,0.11719 -4.9219,0.23437 -7.3828,0.35156 -2.5781,0.11719 -5.0391,0.23438 -7.6172,0.35156 -1.875,0.11719 -3.8672,0.23438 -5.7422,0.23438 -3.8672,0.11719 -7.6172,0.35156 -11.484,0.35156 -1.875,0 -3.8672,0.11719 -5.7422,0.11719 -2.4609,0.11719 -5.0391,0.11719 -7.6172,0.23437 h -0.11719 c -2.3438,0 -4.6875,0.11719 -7.0312,0.11719 h -1.4062 -6.6797 -15.117 -0.46875 c -2.2266,0 -4.4531,0 -6.6797,-0.11719 h -2.1094 c -2.3438,0 -4.6875,-0.11719 -7.0312,-0.11719 -5.2734,-0.11719 -10.547,-0.23438 -15.82,-0.46875 -1.1719,0 -2.3438,-0.11719 -3.3984,-0.11719 -1.1719,0 -2.3438,-0.11719 -3.3984,-0.11719 -0.58594,0 -1.1719,0 -1.7578,-0.11719 -1.9922,-0.11719 -3.8672,-0.11719 -5.8594,-0.23437 -1.7578,-0.11719 -3.5156,-0.11719 -5.2734,-0.23438 -1.2891,0 -2.5781,-0.35156 -3.8672,-0.35156 -3.0469,-0.23438 -6.2109,-0.70312 -9.2578,-0.70312 h -0.11719 c -1.2891,0 -2.5781,0 -3.8672,-0.11719 -1.2891,0 -2.5781,-0.11719 -3.8672,-0.23438 -0.82031,0 -1.7578,-0.11719 -2.5781,-0.11719 h -0.70313 c -1.5234,-0.11719 -3.0469,0 -4.5703,-0.11719 -5.0391,-0.35156 -10.195,-0.82031 -15.234,-1.2891 -5.039,-0.46879 -10.195,-0.9375 -15.234,-1.5234 -0.46875,0 -1.0547,-0.11719 -1.5234,-0.11719 -0.82031,-0.11719 -1.6406,-0.11719 -2.4609,-0.23438 h -0.46875 c -0.46875,0 -0.9375,-0.11719 -1.5234,-0.11719 -0.70313,-0.11719 -1.5234,-0.11719 -2.2266,-0.23438 h -0.23438 c -3.0469,-0.35156 -6.0938,-0.70312 -9.1406,-1.0547 -2.4609,-0.35156 -4.8047,-0.58594 -7.2656,-0.9375 -0.35156,0 -0.58594,-0.11719 -0.9375,-0.23438 -0.11719,0 -0.23438,-0.11719 -0.35156,-0.11719 v -0.23437 0.11719 0.11719 -0.23437 c 0,0 -0.11719,0.23437 -0.11719,0.23437 v 0.11719 l -0.11719,-0.23438 v 0.35156 c 0,0 -0.23437,-0.23438 -0.23437,-0.35156 l -0.23438,0.23438 h -0.11719 -0.11719 -0.23438 c -0.11719,0 -0.11719,0.11719 -0.11719,0.11719 v -0.11719 c -0.23438,0 -0.46875,0 -0.58594,-0.11719 h -0.23438 c -0.9375,-0.11719 -1.9922,-0.23437 -2.9297,-0.46875 -3.3984,-0.46875 -6.6797,-0.9375 -10.078,-1.5234 -1.5234,-0.23438 -3.0469,-0.46875 -4.6875,-0.70312 -1.5234,-0.23438 -3.0469,-0.46875 -4.6875,-0.70312 -1.5234,-0.23438 -3.1641,-0.46875 -4.6875,-0.70312 -5.1562,-0.82031 -10.312,-1.7578 -15.469,-2.8125 -0.23438,0 -0.46875,-0.11719 -0.58594,-0.11719 -2.3438,-0.46875 -4.5703,-0.9375 -6.9141,-1.2891 -6.3281,-1.1719 -12.656,-2.4609 -18.867,-3.8672 -0.46875,-0.11719 -1.0547,-0.23437 -1.6406,-0.35156 -2.5781,-0.58594 -5.1562,-1.0547 -7.7344,-1.6406 0,0 -43.125,-11.484 -44.883,-12.188 -3.8672,-1.1719 -7.7344,-2.4609 -11.602,-3.6328 -0.11719,0 -0.23438,0 -0.23438,-0.11719 -1.7578,-0.46875 -3.3984,-1.0547 -5.0391,-1.6406 -9.2578,-3.1641 -18.516,-6.5625 -27.656,-10.195 -0.35156,-0.11719 -0.82031,-0.35156 -1.1719,-0.46875 -0.35156,-0.11719 -0.82031,-0.35156 -1.1719,-0.46875 -0.11719,0 -0.11719,-0.11719 -0.23438,-0.11719 h 0.11719 c -0.11719,0 -0.23437,-0.11719 -0.35156,-0.11719 0.11719,0 0.11719,0.11719 0.23438,0.11719 -0.11719,-0.11719 -0.35156,-0.11719 -0.58594,-0.23438 -0.11719,0 -0.23438,-0.11719 -0.35156,-0.11719 -0.11718,0 -0.11719,0 -0.23438,-0.11719 h 0.11719 c -1.7578,-0.82031 -3.5156,-1.5234 -5.3906,-2.3438 -4.8047,-2.1094 -9.4922,-4.4531 -14.18,-6.7969 -8.4375,-4.2188 -16.641,-8.9062 -24.609,-14.062 -3.6328,-2.3438 -7.1484,-4.9219 -10.664,-7.3828 -0.35156,-0.23437 -0.58594,-0.46875 -0.9375,-0.70312 l 1.4062,1.0547 c -1.1719,-0.82031 -1.7578,-1.4062 -1.875,-1.5234 h 0.11719 c -0.35156,-0.23438 -0.58594,-0.46875 -0.9375,-0.82031 -1.2891,-1.0547 -2.5781,-2.2266 -3.8672,-3.2812 -3.0469,-2.6953 -6.0938,-5.5078 -8.9062,-8.4375 -0.23438,-0.23438 -1.0547,-1.1719 -1.9922,-2.3438 -1.4062,-1.5234 -2.6953,-3.0469 -3.9844,-4.5703 v 0.11719 c 0.23438,0.35156 0.35156,0.46875 0.35156,0.58594 -0.11719,-0.23438 -0.82031,-1.1719 -1.2891,-1.7578 v -0.11719 c -0.11719,-0.11719 -0.23438,-0.23438 -0.35156,-0.35156 l -0.11719,-0.11719 c -1.0547,-1.5234 -2.1094,-3.1641 -3.1641,-4.8047 -1.0547,-1.7578 -1.9922,-3.5156 -2.9297,-5.3906 v -0.11719 c -0.23438,-0.58594 -1.1719,-2.9297 -1.1719,-3.0469 0.35156,0.46875 0.58594,1.1719 0.82031,1.7578 -0.46875,-1.4062 -1.0547,-2.8125 -1.4062,-4.2188 -0.70312,-2.3438 -0.9375,-4.6875 -1.5234,-7.0312 -0.11719,-1.6406 -0.11719,-3.2812 -0.11719,-4.9219 v -1.0547 c 0,0 -0.11719,0 0,-0.11719 v -0.11719 -0.11719 l 0.11719,-0.46875 v -0.11719 c 0,-0.82031 0.11719,-1.5234 0.23438,-2.3438 0,0.82031 -0.11719,1.4062 -0.11719,1.875 0.11719,-0.9375 0.35156,-2.1094 0.58594,-3.1641 0.35156,-1.7578 0.9375,-3.3984 1.4062,-5.0391 0.11719,-0.46875 0.35156,-1.0547 0.58594,-1.5234 1.6406,-3.1641 3.1641,-6.4453 5.1562,-9.4922 0.9375,-1.5234 1.9922,-2.9297 2.9297,-4.3359 0.46875,-0.46875 0.82031,-1.0547 1.2891,-1.5234 2.9297,-3.5156 6.2109,-6.7969 9.6094,-9.9609 1.6406,-1.5234 3.2812,-3.0469 5.0391,-4.5703 0.9375,-0.82031 1.875,-1.6406 2.9297,-2.3438 0.23438,-0.23438 0.82031,-0.70313 1.4062,-1.0547 -0.23437,0.11719 -0.46875,0.35156 -0.70312,0.46875 0.11719,-0.11719 0.23437,-0.23438 0.35156,-0.23438 0.70312,-0.58594 1.1719,-0.9375 1.2891,-1.0547 -0.11719,0 -0.11719,0.11719 -0.23437,0.23437 l 0.11719,-0.11719 c 0.9375,-0.70312 1.875,-1.2891 2.8125,-1.9922 2.3438,-1.6406 4.8047,-3.2812 7.2656,-4.9219 4.6875,-3.0469 9.375,-5.8594 14.18,-8.5547 10.195,-5.7422 20.859,-10.781 31.523,-15.469 0.70312,-0.23438 1.5234,-0.70312 2.2266,-0.9375 1.4062,-0.58594 2.6953,-1.0547 4.1016,-1.6406 3.5156,-1.4062 6.9141,-2.6953 10.43,-3.9844 6.5625,-2.4609 13.125,-4.6875 19.805,-6.9141 30.234,-9.8438 61.172,-17.227 92.344,-23.086 8.6719,-1.6406 17.344,-3.0469 26.133,-4.4531 4.1016,-0.58594 8.3203,-1.2891 12.422,-1.875 0.46875,0 1.5234,-0.23438 2.4609,-0.35156 0.11719,0 0.35156,0 0.58594,-0.11719 0.23437,0 0.58594,-0.11719 0.82031,-0.11719 h 0.23438 c 1.7578,-0.23437 3.5156,-0.46875 5.2734,-0.70312 18.516,-2.3438 37.031,-4.1016 55.664,-5.5078 77.109,-5.625 155.04,-3.75 231.8,6.0938 0.23438,0 0.46875,0 0.70312,0.11719 -0.11719,0 -0.35156,0 -0.46875,-0.11719 0.9375,0.11719 1.4062,0.11719 1.7578,0.11719 -0.23438,0 -0.70313,0 -1.0547,-0.11719 0.58594,0.11719 1.0547,0.11719 1.5234,0.23438 1.9922,0.23438 3.8672,0.58594 5.7422,0.82031 4.8047,0.70313 9.4922,1.4062 14.297,2.2266 8.3203,1.4062 16.641,2.8125 24.961,4.4531 16.055,3.0469 32.109,6.5625 47.93,10.664 14.648,3.75 29.18,7.9688 43.477,12.773 6.7969,2.3438 13.594,4.6875 20.273,7.2656 3.0469,1.1719 5.9766,2.3438 8.9062,3.5156 1.1719,0.46875 2.4609,1.0547 3.6328,1.5234 -0.58594,-0.11719 -0.9375,-0.35156 -1.2891,-0.35156 0.9375,0.35156 2.1094,0.70312 2.6953,0.9375 11.133,4.9219 22.148,10.312 32.812,16.406 4.9219,2.8125 9.7266,5.8594 14.414,9.0234 2.1094,1.4062 4.1016,2.8125 6.0938,4.3359 0.70312,0.46875 1.2891,0.9375 1.9922,1.4062 -3.2812,-2.8125 3.1641,2.3438 0.70312,0.58594 -0.23437,-0.11719 -0.46875,-0.35156 -0.70312,-0.58594 0.11719,0.11719 0.23437,0.23438 0.35156,0.23438 7.1484,5.8594 13.594,12.188 19.57,19.102 0.23438,0.35156 0.46875,0.58594 0.70313,0.9375 1.2891,1.7578 2.4609,3.6328 3.63278,5.5078 0.9375,1.6406 1.875,3.2812 2.6953,4.9219 0.2344,0.46875 0.4688,0.82031 0.586,1.2891 1.0547,3.1641 2.1094,6.3281 2.8125,9.6094 0,0.23438 0.1171,0.35156 0.1171,0.58594 0,-0.35156 0,-0.58594 -0.1171,-0.9375 -1.5234,-3.5156 -0.586,4.4531 -0.8204,3.5156 z"
         inkscape:connector-curvature="0"
         style="fill:#7886ab;fill-opacity:1" />
      <path
         id="path1207"
         d="m 1005.2,492.3 c 0,0.23437 0.1172,0.46875 0.1172,0.58594 0,0.11719 -0.8203,2.4609 -2.1094,6.5625 0,0.11719 -0.1172,0.23438 -0.1172,0.35156 0,0.23437 -0.1172,0.35156 -0.1172,0.58594 v 0.11719 c 0,0.11719 0,0.23438 -0.1172,0.23438 h 0.2344 c 0,0.23437 0.1172,0.35156 0.1172,0.58594 0,0.11719 -0.3516,0.23438 -0.3516,0.35156 0,0 -0.1172,0.11719 -0.2344,0.11719 l -0.1171,0.11719 c -0.1172,0.23438 -0.2344,0.58594 -0.4688,0.9375 v 0.11719 c -0.2344,0.35156 -0.3516,0.82031 -0.4687,1.0547 -0.586,1.1719 -1.1719,2.2266 -1.87504,3.2812 -0.70312,1.2891 -1.5234,2.4609 -2.2266,3.75 -0.46875,0.70312 -0.9375,1.4062 -1.4062,2.1094 0.46875,-0.35156 -1.875,2.9297 -1.7578,2.3438 -3.2812,3.75 -6.5625,7.3828 -10.195,10.781 -2.1094,1.9922 -4.2188,3.8672 -6.4453,5.625 -0.70312,0.58594 -1.4062,1.1719 -2.2266,1.7578 -1.6406,1.5234 -3.2812,2.9297 -1.1719,0.9375 -0.11719,0 -0.11719,0.11719 -0.23438,0.11719 l -0.11719,0.11719 c -1.0547,0.9375 -2.2266,1.7578 -3.5156,2.4609 -10.898,7.7344 -22.5,14.297 -34.336,20.273 -4.5703,2.2266 -9.1406,4.4531 -13.828,6.5625 -0.70312,0.35156 -6.4453,3.3984 -6.9141,3.0469 0.9375,-0.35156 1.875,-0.82031 2.8125,-1.1719 -0.9375,0.35156 -1.875,0.82031 -2.8125,1.1719 -1.4062,0.58594 -2.9297,1.1719 -4.3359,1.7578 -47.812,18.984 -98.555,30.469 -149.3,38.32 -3.75,0.58594 -7.3828,1.1719 -11.133,1.6406 -1.1719,0.11719 -2.2266,0.46875 -3.3984,0.46875 h -0.23438 -0.23438 -0.11719 -0.11719 -0.23438 -0.23438 -0.11719 -0.23438 -0.11719 -0.23438 c -0.46875,0 -0.82031,0.11719 -1.0547,0.11719 -8.0859,1.0547 -16.172,1.9922 -24.141,2.8125 -15.234,1.6406 -30.469,2.9297 -45.703,3.8672 -24.375,1.5234 -48.867,2.1094 -73.242,2.1094 h -0.58594 c -3.6328,0 -7.2656,0 -10.898,-0.11719 -6.4453,0 -12.891,-0.11719 -19.336,-0.35156 -1.9922,0 -3.8672,-0.11719 -5.8594,-0.11719 -1.1719,0 -2.4609,-0.11719 -3.6328,-0.11719 h -0.82031 -1.2891 c -1.4062,0 -2.9297,-0.11719 -4.3359,-0.11719 -2.5781,-0.11719 -5.1562,-0.23438 -7.7344,-0.35156 -2.5781,-0.11719 -5.0391,-0.23438 -7.6172,-0.35156 h -0.23438 c -0.46875,0 -0.9375,0 -1.4062,-0.11719 -2.6953,-0.11719 -5.2734,-0.35156 -7.9688,-0.46875 h -0.11719 c -3.1641,-0.23438 -6.2109,-0.35156 -9.375,-0.58594 h -0.11719 c -5.9766,-0.35156 -11.953,-0.9375 -17.812,-1.4062 h -0.11719 c -0.70312,0 -1.4062,-0.11719 -2.1094,-0.23438 -1.7578,-0.11719 -3.5156,-0.35156 -5.2734,-0.46875 -0.35156,0 -0.70312,0 -1.0547,-0.11719 -1.0547,-0.11719 -2.1094,-0.23438 -3.0469,-0.35156 h -0.23438 c -0.46875,0 -0.9375,-0.11719 -1.4062,-0.11719 -0.35156,0 -0.82031,-0.11719 -1.1719,-0.11719 -0.70313,-0.11719 -1.4062,-0.11719 -2.1094,-0.23438 -1.1719,-0.11719 -2.3438,-0.23437 -3.6328,-0.35156 -3.1641,-0.35156 -6.3281,-0.70312 -9.4922,-1.0547 -1.4062,-0.11719 -2.9297,-0.35156 -4.3359,-0.46875 -1.0547,-0.11719 -2.2266,-0.23437 -3.2812,-0.35156 -0.58594,-0.11719 -1.1719,-0.11719 -1.7578,-0.23438 -0.82031,-0.11719 -1.7578,-0.23438 -2.5781,-0.35156 -0.58594,-0.11719 -1.1719,-0.11719 -1.7578,-0.23437 -0.23438,0 -0.46875,0 -0.82031,-0.11719 h -0.11719 c -0.11719,0 -0.35156,0 -0.46875,-0.11719 -0.23438,0 -0.46875,0 -0.58594,-0.11719 h -0.35156 -0.46875 -0.23438 -0.11719 v -0.11719 h -0.23437 -0.11719 v 0.11719 0.11719 h -0.46875 v -0.11719 l -0.11719,0.11719 v 0.11719 h -0.11719 -0.11719 -0.23438 l -0.11719,-0.23438 c -0.11719,0 -0.23438,-0.11719 -0.23438,-0.11719 -0.11719,0 -0.23438,0 -0.46875,-0.11719 -0.82031,-0.11719 -1.5234,-0.23438 -2.2266,-0.35156 h -0.35156 c -0.11719,0 -0.23438,0 -0.35156,-0.11719 -3.1641,-0.46875 -6.2109,-0.9375 -9.375,-1.4062 -0.23437,0 -0.58594,-0.11719 -0.82031,-0.11719 -2.2266,-0.35156 -4.4531,-0.70312 -6.6797,-1.0547 -0.35156,0 -0.58594,-0.11719 -0.9375,-0.11719 -0.35156,0 -0.58594,-0.11719 -0.9375,-0.11719 -0.46875,-0.11719 -0.9375,-0.11719 -1.4062,-0.23438 -1.7578,-0.35156 -3.6328,-0.58594 -5.3906,-0.9375 -0.9375,-0.11719 -1.9922,-0.35156 -2.9297,-0.46875 -0.23438,0 -0.46875,-0.11719 -0.82031,-0.11719 -2.1094,-0.35156 -4.1016,-0.70313 -6.2109,-1.0547 -1.7578,-0.35156 -3.5156,-0.58594 -5.3906,-0.9375 -0.9375,-0.23438 -1.9922,-0.35156 -2.9297,-0.58594 -2.5781,-0.46875 -5.0391,-0.9375 -7.6172,-1.5234 -0.23438,0 -0.46875,-0.11719 -0.82031,-0.11719 -2.3438,-0.46875 -4.6875,-0.9375 -7.0312,-1.5234 -0.23438,0 -0.35156,-0.11719 -0.58594,-0.11719 -2.3438,-0.46875 -4.6875,-1.0547 -7.1484,-1.5234 h -0.23437 c -2.4609,-0.58594 -4.8047,-1.0547 -7.1484,-1.6406 -1.6406,-0.35156 -3.2812,-0.82031 -5.0391,-1.1719 -0.35156,-0.11719 -0.82031,-0.23438 -1.1719,-0.23438 -0.70312,-0.11719 -1.2891,-0.35156 -1.9922,-0.46875 -0.11719,0 -0.23438,0 -0.35156,-0.11719 -1.7578,-0.46875 -3.5156,-0.82031 -5.2734,-1.2891 l -8.4375,-2.1094 c -3.2812,-0.82031 -6.4453,-1.7578 -9.7266,-2.6953 -1.2891,-0.35156 -2.5781,-0.70312 -3.8672,-1.0547 -1.2891,-0.35158 -2.5781,-0.70312 -3.8672,-1.1719 -1.4062,-0.46875 -2.9297,-0.82031 -4.3359,-1.2891 -1.9922,-0.58594 -3.9844,-1.1719 -5.9766,-1.7578 -12.188,-3.75 -24.258,-7.9688 -36.094,-12.656 -1.6406,-0.58594 -3.2812,-1.2891 -4.8047,-1.9922 -0.70312,-0.23438 -1.4062,-0.58594 -2.1094,-0.82031 0,0 -0.11719,0 -0.11719,-0.11719 h -0.11719 c 1.875,0.82031 -2.1094,-0.82031 -2.4609,-0.9375 0.11719,0 0.58594,0.23437 1.4062,0.58594 -0.11719,-0.11719 -0.35156,-0.11719 -0.46875,-0.23438 h -0.11719 c -0.46875,-0.11719 -0.82031,-0.35156 -1.2891,-0.58594 -0.46875,-0.23437 -0.9375,-0.35156 -1.2891,-0.58594 h -0.11719 c -0.11719,0 -0.11719,0 -0.23437,-0.11719 -0.11719,0 -0.23438,-0.11719 -0.35156,-0.11719 0,0 -0.11719,0 -0.11719,-0.11719 -0.23438,-0.11719 -0.35156,-0.11719 -0.58594,-0.23437 h -0.11719 c -1.0547,-0.46875 -2.1094,-0.9375 -3.0469,-1.4062 -2.9297,-1.2891 -5.8594,-2.9297 -8.7891,-4.2188 -0.35156,-0.11719 -0.58594,-0.35156 -0.9375,-0.46875 -0.9375,-0.46875 -1.9922,-1.0547 -2.9297,-1.5234 -0.9375,-0.4687 -1.9922,-1.0547 -2.9297,-1.5234 -0.9375,-0.4687 -1.9922,-1.0547 -2.9297,-1.5234 -0.9375,-0.58594 -1.9922,-1.0547 -2.9297,-1.6406 -0.9375,-0.46875 -1.7578,-0.9375 -2.6953,-1.5234 -1.4062,-0.82031 -2.6953,-1.5234 -3.9844,-2.3438 -1.2891,-0.82031 -2.5781,-1.5234 -3.8672,-2.3438 -0.82031,-0.46875 -1.6406,-1.0547 -2.4609,-1.5234 -0.23437,-0.11719 -0.35156,-0.23438 -0.58594,-0.35156 -0.70312,-0.46875 -1.5234,-0.9375 -2.2266,-1.5234 -0.82031,-0.46875 -1.6406,-1.0547 -2.4609,-1.6406 -0.11719,-0.11719 -0.23438,-0.11719 -0.35156,-0.23438 -0.23437,-0.11719 -0.35156,-0.23438 -0.58594,-0.35156 -0.9375,-0.58594 -1.875,-1.2891 -2.9297,-1.9922 -0.9375,-0.70312 -1.9922,-1.4062 -2.9297,-2.1094 -0.11719,-0.11719 -0.35156,-0.23438 -0.46875,-0.35156 -0.11719,-0.11719 -0.46875,-0.35156 -0.82031,-0.58594 -0.23438,-0.11719 -0.46875,-0.35156 -0.58594,-0.46875 0,0 -0.11719,0 -0.11719,-0.11719 2.5781,2.2266 -4.4531,-3.1641 0,0 0,0 -0.11719,-0.11719 -0.23437,-0.11719 h -0.11719 -0.11719 c 0,0 -0.11719,-0.11719 -0.23437,-0.11719 -0.35156,-0.23438 -0.58594,-0.46875 -0.70313,-0.58594 -2.4609,-1.9922 -4.9219,-4.1016 -7.2656,-6.2109 -0.46875,-0.46875 -0.9375,-0.82031 -1.4062,-1.2891 -0.35156,-0.35156 -0.70313,-0.58594 -0.9375,-0.9375 -0.35156,-0.35156 -0.82031,-0.70312 -1.1719,-1.1719 -0.35156,-0.35156 -0.58594,-0.58594 -0.9375,-0.9375 -0.11719,-0.11719 -0.23437,-0.23438 -0.35156,-0.35156 -0.11719,-0.11719 -0.23438,-0.23437 -0.35156,-0.35156 -0.58594,-0.58594 -1.1719,-1.1719 -1.7578,-1.875 -0.70312,-0.70312 -1.4062,-1.5234 -2.1094,-2.2266 -0.11719,-0.11719 -0.11719,-0.11719 -0.23438,-0.23438 0,-0.11719 -0.11719,-0.11719 -0.11719,-0.23437 -0.82031,-0.9375 -1.5234,-1.7578 -2.3438,-2.6953 l -0.11719,-0.11719 c 0.11719,0.23437 0.11719,0.23437 -0.35156,-0.46875 -0.11719,-0.11719 -0.11719,-0.23438 -0.23438,-0.46875 -0.11719,-0.23438 -0.46875,-0.46875 -0.46875,-0.70313 h -0.11719 l -0.23438,-0.23437 v 0.11719 h -0.11719 l -0.11719,-0.23438 h 0.23438 c -0.35156,-0.58594 -0.82031,-1.1719 -1.1719,-1.7578 -0.35156,-0.46875 -0.70312,-1.0547 -0.9375,-1.5234 l -0.70312,-1.1719 c -0.58594,-0.9375 -1.0547,-1.7578 -1.6406,-2.6953 0,-0.11719 -0.11719,-0.23437 -0.11719,-0.35156 -0.46875,-0.9375 -0.9375,-1.7578 -1.4062,-2.6953 -0.35156,-0.70313 -0.70313,-1.875 -1.1719,-2.6953 0,0.11719 0.11719,0.23438 0.11719,0.35156 0.35156,0.82031 0.70312,1.9922 0.82031,2.2266 v -0.11719 -0.11719 c 0,-0.11719 -0.11719,-0.35156 -0.11719,-0.46875 v -0.11719 -0.11719 c -0.23438,-0.58594 -0.46875,-1.2891 -0.70312,-1.6406 0,-0.11719 -0.11719,-0.11719 -0.11719,-0.23438 v -0.11719 c 0.11719,0 0.11719,0.11719 0.11719,0.11719 -0.11719,-0.46875 -0.35156,-0.9375 -0.46875,-1.4062 -0.58594,-1.875 -1.1719,-3.75 -1.6406,-5.625 0,-0.23438 -0.11719,-0.35156 -0.11719,-0.58594 l -0.11719,-0.11719 c -0.11719,-0.35156 -0.23438,-0.70312 -0.23438,-1.0547 v 0.23437 -0.11719 -0.11719 0.11719 -0.11719 c 0,-0.23438 0,-0.58594 -0.11719,-0.82031 v -0.35156 c -0.23438,-1.1719 -0.35156,-2.3438 0,-0.9375 -0.11719,-0.70312 -0.11719,-0.9375 -0.11719,-1.0547 0,0.11719 0.35156,0.9375 0.35156,1.875 0,0.23438 0.11719,0.35156 0.11719,0.58594 v 0.23438 c 0,-0.23438 -0.11719,-0.46875 -0.11719,-0.70313 0,-1.9922 -0.11719,-3.9844 -0.11719,-5.9766 v -140.74 c 3.5156,2.9297 7.2656,5.7422 11.016,8.4375 0.46875,0.35156 1.0547,0.70313 1.5234,1.0547 13.242,9.1406 27.539,16.992 41.836,23.672 22.031,10.43 45,18.984 68.32,26.133 5.7422,1.7578 15.703,4.6875 22.031,6.3281 1.875,0.46875 3.6328,0.9375 5.5078,1.4062 2.3438,0.58594 7.2656,1.875 7.3828,1.875 1.7578,0.46875 3.5156,0.9375 5.1562,1.4062 1.6406,0.35156 3.2812,0.82031 4.8047,1.1719 0.11719,0 0.35156,0 0.46875,0.11719 31.289,7.2656 63.047,12.891 95.039,16.875 1.875,0.23438 3.6328,0.46875 5.5078,0.70312 47.109,5.625 94.57,8.0859 141.68,7.9688 10.43,0 20.859,-0.23438 31.289,-0.46875 0.70312,0 1.5234,0 2.2266,-0.11719 9.9609,-0.35156 19.805,-0.70312 29.766,-1.2891 51.211,-2.9297 102.54,-9.0234 152.81,-19.453 1.6406,-0.35156 3.2812,-0.70312 4.9219,-1.0547 1.4062,-0.35156 2.8125,-0.58594 4.3359,-0.9375 0.70312,-0.11719 1.4062,-0.35156 2.1094,-0.46875 7.2656,-1.6406 14.414,-3.2812 21.562,-5.1562 34.805,-8.7891 69.023,-20.273 101.37,-35.742 9.1406,-4.3359 18.281,-9.1406 27.188,-14.414 0.9375,-0.58594 1.9922,-1.1719 2.9297,-1.7578 1.2891,-0.82031 2.5781,-1.6406 3.75,-2.4609 1.2891,-0.82031 2.6953,-1.7578 3.9844,-2.5781 0.70312,-0.46875 1.4062,-0.9375 1.9922,-1.4062 3.9844,-2.6953 7.85157,-5.625 11.60197,-8.6719 v 139.1 c 0,2.3438 -0.7031,5.8594 -0.3515,8.5547 0.1172,-0.35156 0.2343,-0.70313 0.3515,-1.0547 0.1172,-0.35157 0.2344,-0.70312 0.3516,-1.0547 -0.2344,0.70313 -0.3516,1.7578 -0.4688,2.4609 -0.4687,0.23438 -0.5859,0.35156 -0.5859,0.58594 z"
         inkscape:connector-curvature="0"
         style="fill:#7886ab;fill-opacity:1" />
      <path
         id="path1209"
         d="m 995.98,576.45 c 3.2812,-2.3438 6.4453,-4.6875 9.4922,-7.2656 v 145.9 c 0,0.70312 -0.1172,1.4062 -0.1172,2.1094 -0.1172,0.58594 -0.2344,1.1719 -0.3515,1.7578 0,0.11719 -0.1172,0.35156 -0.1172,0.46875 0,0.23438 -0.1172,0.35156 -0.1172,0.58594 -0.1172,0.46875 -0.2344,0.82031 -0.3516,1.2891 v 0.11719 c -0.3515,1.1719 -0.7031,2.3438 -1.0547,3.6328 -0.1172,0.35156 -0.3515,1.0547 -0.7031,1.7578 0,0.11719 -0.1172,0.23438 -0.1172,0.23438 0,0.11719 -0.1172,0.23438 -0.1172,0.35156 l -0.4687,0.9375 c 0,0.11719 -0.1172,0.23438 -0.1172,0.35156 -0.3516,0.70312 -0.7032,1.4062 -1.1719,2.1094 -0.2344,0.35156 -0.3516,0.70312 -0.586,1.0547 -0.11716,0.11719 -0.11716,0.35156 -0.23435,0.46875 -0.11719,0.23437 -0.23438,0.46875 -0.35156,0.58594 -0.23438,0.35156 -0.35156,0.58594 -0.58594,0.9375 -1.1719,1.875 -2.3438,3.75 -3.6328,5.625 l -0.11719,0.11719 c -0.11719,0.11719 -0.11719,0.23438 -0.23438,0.35156 -0.11719,0.11718 -0.11719,0.23438 -0.23438,0.35156 -0.11719,0.11719 -0.23438,0.35156 -0.35156,0.46875 -1.0547,1.2891 -2.2266,2.5781 -3.2812,3.8672 -4.8047,5.2734 -9.9609,10.078 -15.469,14.648 -0.23438,0.23438 -0.46875,0.35156 -0.70313,0.58594 -0.11719,0.11719 -0.35156,0.23438 -0.46875,0.35156 l -0.11719,0.11719 c -0.11719,0.11719 -0.35156,0.23438 -0.46875,0.35156 h -0.11719 l -0.11719,0.11719 c -0.23438,0.11719 -0.46875,0.35156 -0.70312,0.46875 0,0 0.11719,0 0.11719,-0.11719 -1.1719,0.82031 -2.2266,1.6406 -3.3984,2.4609 -3.6328,2.5781 -7.3828,5.0391 -11.133,7.2656 -5.8594,3.6328 -11.836,6.9141 -17.93,10.078 -0.23438,0.11719 -0.46875,0.23438 -0.70312,0.35156 -3.6328,1.875 -7.2656,3.6328 -10.898,5.3906 -2.1094,0.9375 -4.2188,1.9922 -6.3281,2.9297 -0.46875,0.23438 -0.9375,0.46875 -1.4062,0.58594 -0.82031,0.35156 -1.6406,0.70313 -2.4609,1.0547 -0.11719,0 -0.23438,0.11719 -0.35156,0.11719 h -0.11719 c -0.23438,0.11719 -0.58594,0.23437 -0.82031,0.35156 -0.11719,0 -0.11719,0 -0.11719,0.11719 -0.11719,0.11719 -0.35156,0.11719 -0.46875,0.23437 h -0.11719 -0.11719 c 0,0 -0.11719,0 -0.11719,0.11719 -1.5234,0.58594 -3.0469,1.1719 -4.5703,1.875 -3.2812,1.2891 -6.6797,2.5781 -9.9609,3.8672 -6.6797,2.4609 -13.477,4.8047 -20.273,7.0312 -14.297,4.6875 -28.711,8.7891 -43.359,12.422 -16.055,3.9844 -32.227,7.5 -48.516,10.547 -8.5547,1.6406 -17.109,3.0469 -25.781,4.4531 -4.2188,0.70313 -8.4375,1.2891 -12.773,1.875 -0.35156,0 -0.58594,0.11719 -0.9375,0.11719 h -0.11719 -0.23438 c -0.70312,0.11719 -1.9922,0.23438 -3.0469,0.35156 0,0.35156 0,0 -0.11719,0 0,0 -0.11719,0.58594 -0.23438,0.58594 -0.11719,0 -0.23437,-0.23438 -0.35156,-0.23438 l -0.11719,-0.11719 c -1.4062,0.23437 -3.8672,0.46875 -4.5703,0.58594 -19.102,2.4609 -38.438,4.2188 -57.656,5.625 -2.1094,0.11719 -4.2188,0.23438 -6.4453,0.46875 -1.2891,0.11719 -2.5781,0.11719 -3.8672,0.23438 -1.2891,0.11719 -2.5781,0.11719 -3.8672,0.23438 -1.5234,0.11719 -3.0469,0.23438 -4.6875,0.23438 -54.844,3.0469 -109.92,2.2266 -164.53,-2.4609 -8.6719,-0.70312 -17.344,-1.6406 -25.898,-2.5781 -4.1016,-0.46875 -8.2031,-0.9375 -12.188,-1.4062 -1.9922,-0.23438 -3.9844,-0.46875 -6.0938,-0.70313 -0.70312,-0.11719 -1.2891,-0.11719 -1.9922,-0.23437 h -0.70313 -0.46875 v 0.23437 l 0.11719,0.23438 h -0.23438 -0.11719 c 0,-0.46875 -0.11719,-0.58594 -0.11719,-0.58594 -0.11719,0 -0.11719,0.23438 -0.23438,0.23438 -16.172,-2.2266 -32.109,-5.0391 -48.164,-8.0859 -24.375,-4.6875 -48.633,-10.43 -72.422,-17.578 -3.8672,-1.1719 -7.6172,-2.3438 -11.367,-3.5156 -1.1719,-0.35156 -2.2266,-0.70313 -3.3984,-1.0547 -0.82031,-0.23438 -1.5234,-0.46875 -2.2266,-0.82031 -3.2812,-1.0547 -6.4453,-2.2266 -9.7266,-3.3984 -1.6406,-0.58594 -3.1641,-1.1719 -4.8047,-1.7578 h -0.11719 c -0.58594,-0.23438 -1.2891,-0.46875 -1.875,-0.70313 -0.9375,-0.35156 -1.875,-0.70312 -2.8125,-1.0547 -1.9922,-0.70312 -3.8672,-1.5234 -5.8594,-2.2266 h -0.11719 c -1.1719,-0.46875 -2.2266,-0.9375 -3.3984,-1.2891 -0.9375,-0.35156 -1.875,-0.82031 -2.8125,-1.1719 h 0.11719 c -0.11719,0 -0.23438,-0.11719 -0.46875,-0.23438 -0.23437,-0.11719 -0.46875,-0.23438 -0.82031,-0.35156 -0.11719,0 -0.23438,-0.11719 -0.35156,-0.11719 -0.35156,-0.11719 -0.58594,-0.23438 -0.9375,-0.46875 h -0.11719 -0.11719 c -0.82031,-0.35156 -1.6406,-0.70312 -2.4609,-1.0547 -0.70312,-0.35156 -1.4062,-0.58594 -2.1094,-0.9375 -0.23438,-0.11719 -0.58594,-0.23437 -0.82031,-0.35156 -1.1719,-0.46875 -2.2266,-1.0547 -3.3984,-1.5234 -1.4062,-0.58594 -2.8125,-1.2891 -4.1016,-1.9922 -1.875,-0.9375 -3.75,-1.7578 -5.5078,-2.6953 -5.2734,-2.5781 -10.43,-5.3906 -15.469,-8.3203 -0.35156,-0.23438 -0.82031,-0.46875 -1.1719,-0.70312 -2.3438,-1.4062 -4.8047,-2.8125 -7.1484,-4.3359 -3.3984,-2.2266 -6.7969,-4.4531 -10.078,-6.7969 -0.35156,-0.23437 -1.875,-1.2891 -2.6953,-1.9922 l -0.11719,-0.11719 c 0,0 -0.11719,0.11719 -0.11719,0 0,0 0,0.11719 -0.11719,0.11719 l -0.11719,-0.23438 v -0.11719 c -0.11719,-0.11719 -0.11719,-0.23437 -0.23437,-0.23437 -0.11719,0 -0.11719,-0.11719 -0.23438,-0.23438 -0.35156,-0.23437 -0.70312,-0.58594 -0.9375,-0.82031 -0.46875,-0.35156 -0.9375,-0.82031 -1.4062,-1.1719 -0.23437,-0.11719 -0.46875,-0.35156 -0.58594,-0.46875 -0.35156,-0.23438 -0.58594,-0.46875 -0.9375,-0.70312 -0.23438,-0.23438 -0.46875,-0.46875 -0.82031,-0.70312 -0.82031,-0.70312 -1.6406,-1.4062 -2.3438,-2.1094 -0.58594,-0.46875 -1.0547,-0.9375 -1.6406,-1.5234 -0.70313,-0.58594 -1.2891,-1.2891 -1.9922,-1.875 -0.23438,-0.23437 -0.35156,-0.35156 -0.58594,-0.58594 -0.23437,-0.23438 -0.35156,-0.35156 -0.58594,-0.58594 -0.23438,-0.35156 -0.58594,-0.58594 -0.82031,-0.82031 -1.875,-1.875 -3.75,-3.9844 -5.5078,-5.9766 -0.23438,-0.23437 -1.4062,-1.7578 -2.2266,-2.6953 l -0.23438,-0.23438 c -0.11719,-0.11719 -0.23437,-0.35156 -0.35156,-0.46875 -0.11719,-0.23438 -0.23438,-0.35156 -0.35156,-0.58594 0,0 0,-0.11719 -0.11719,-0.11719 -0.35156,-0.58594 -0.70312,-1.0547 -1.0547,-1.6406 -0.82031,-1.1719 -1.5234,-2.3438 -2.2266,-3.6328 -0.35156,-0.58594 -0.70312,-1.1719 -1.0547,-1.875 -0.11719,-0.23437 -0.23437,-0.35156 -0.35156,-0.58594 -0.11719,-0.35156 -0.35156,-0.58594 -0.46875,-0.9375 0,0 0,-0.11719 -0.11719,-0.11719 -0.46875,-0.82031 -0.9375,-1.7578 -1.2891,-2.5781 -0.11719,-0.11719 0,-0.23437 -0.11719,-0.35156 v -0.11719 h -0.11719 c -0.11719,-0.23437 -0.23438,-0.58594 -0.23438,-0.82031 -0.46875,-1.1719 -0.82031,-2.2266 -1.1719,-3.3984 0,-0.11719 0,-0.23437 -0.11719,-0.35156 -0.23438,-0.70312 -0.46875,-1.5234 -0.70313,-2.2266 0,-0.11719 -0.11719,-0.35156 -0.11719,-0.46875 v -0.23438 -0.23437 c 0,-0.11719 0,-0.11719 -0.11719,-0.23438 -0.23438,-1.0547 -0.46875,-1.9922 -0.58594,-3.0469 v -0.58594 c 0,-0.70312 -0.11719,-1.4062 -0.11719,-1.9922 v -144.96 c 5.3906,4.3359 11.133,8.4375 16.875,12.305 5.7422,3.8672 11.602,7.3828 17.578,10.781 5.5078,3.1641 11.836,7.2656 18.398,9.4922 0.11719,0 0.23438,0.11719 0.35156,0.11719 1.9922,0.9375 3.9844,1.875 6.0938,2.8125 0.9375,0.35156 1.875,0.82031 2.6953,1.1719 1.5234,0.70313 3.0469,1.2891 4.5703,1.9922 1.0547,0.46875 2.1094,0.9375 3.1641,1.4062 38.555,16.406 79.219,27.773 120.23,36.211 27.656,5.625 55.547,10.078 83.672,13.359 3.1641,0.35156 6.2109,0.70313 9.375,1.0547 h 0.23438 c 1.0547,0.11719 1.9922,0.23438 2.9297,0.35156 8.4375,0.82031 16.758,1.6406 25.078,2.3438 7.9688,0.70313 15.938,1.2891 23.906,1.7578 h 0.23438 c 1.0547,0.11719 1.9922,0.11719 3.0469,0.23438 11.484,0.70312 23.086,1.1719 34.57,1.5234 63.867,1.875 127.62,-1.2891 191.02,-9.9609 0.23438,0 0.35156,0 0.58594,-0.11719 19.805,-2.8125 39.375,-6.2109 58.945,-10.195 41.484,-8.4375 82.266,-20.156 121.29,-36.68 10.664,-4.5703 21.68,-9.6094 32.344,-15.469 0.23438,-0.11719 0.35156,-0.23437 0.58594,-0.35156 0.70312,-0.46875 1.5234,-0.82031 2.2266,-1.2891 7.7344,-4.3359 15.352,-9.1406 22.5,-14.297 z"
         inkscape:connector-curvature="0"
         style="fill:#7886ab;fill-opacity:1" />
      <path
         id="path1211"
         d="m 1005.5,794.88 v 141.09 c -0.1172,0.9375 -0.1172,1.7578 -0.2344,2.6953 0,1.4062 0,2.8125 -0.1172,4.2188 -0.5859,2.8125 -1.1719,5.5078 -2.1094,8.3203 -0.4687,1.2891 -1.0547,2.5781 -1.4062,3.8672 0.1172,-0.46875 0.2344,-0.82031 0.3516,-1.1719 -0.1172,0.23438 -0.1172,0.35156 -0.2344,0.46875 -1.5234,2.9297 -3.16409,5.8594 -5.03909,8.5547 -0.58594,0.82031 -1.1719,1.7578 -1.7578,2.5781 0.23438,-0.23437 0.46875,-0.46875 0.58594,-0.70312 -0.35156,0.46875 -0.82031,0.9375 -1.1719,1.4062 -0.23438,0.23437 -0.35156,0.58594 -0.58594,0.82031 -0.46875,0.58594 -0.9375,1.1719 -1.2891,1.2891 -2.1094,2.3438 -4.2188,4.6875 -6.4453,6.9141 -2.5781,2.5781 -5.2734,4.9219 -7.9688,7.2656 -1.5234,1.2891 -3.5156,2.4609 -4.8047,3.8672 -0.58594,0.46875 -1.1719,0.82031 -1.6406,1.2891 -15.469,11.133 -32.344,20.15596 -49.688,27.89096 -2.1094,0.9375 -4.4531,1.7578 -6.4453,2.8125 1.7578,-0.9375 2.5781,-1.4062 2.6953,-1.4062 -0.23437,0.1172 -3.8672,1.875 -5.0391,2.3438 -5.625,2.2266 -11.133,4.3359 -16.875,6.4453 -11.016,3.9844 -22.148,7.5 -33.398,10.781 -25.43,7.3828 -51.211,13.242 -77.344,17.93 -6.7969,1.1719 -13.711,2.3438 -20.508,3.5156 -3.1641,0.4688 -6.3281,0.9375 -9.4922,1.4062 -1.875,0.2344 -3.8672,0.586 -5.7422,0.8203 -0.46875,0.1172 -1.0547,0.1172 -1.5234,0.2344 h -0.46875 -0.23438 -0.35156 -0.35156 0.23437 c -14.883,2.1094 -29.766,3.6328 -44.766,4.9219 -63.047,5.625 -126.68,5.8594 -189.84,1.1719 -15.586,-1.1719 -31.172,-2.6953 -46.641,-4.5703 -3.2812,-0.3515 -6.5625,-0.8203 -9.8438,-1.1719 -0.35156,0 -1.7578,-0.2344 -2.8125,-0.3515 h 0.58594 c -1.0547,-0.1172 -2.2266,-0.3516 -3.2812,-0.4688 -7.6172,-1.0547 -15.234,-2.2266 -22.852,-3.5156 -26.719,-4.4531 -53.203,-9.9609 -79.336,-16.992 -22.383,-6.0938 -44.297,-13.359 -65.742,-22.031 0.11719,0 0.23438,0.1172 0.23438,0.1172 3.5156,1.5234 -0.82031,-0.2344 -1.5234,-0.5859 0.11719,0 0.35156,0.1172 0.70312,0.2343 -1.0547,-0.4687 -2.1094,-0.9375 -3.0469,-1.4062 -2.1094,-0.9375 -4.2188,-1.875 -6.3281,-2.9297 -4.9219,-2.2266 -9.7266,-4.6875 -14.531,-7.1484 -8.0859,-4.2188 -16.055,-8.78905 -23.672,-13.82795 -3.3984,-2.2266 -6.5625,-4.5703 -9.8438,-6.9141 0.23438,0.23437 0.46875,0.46875 0.82031,0.58594 3.2812,2.8125 -4.8047,-3.5156 -1.2891,-0.9375 0.11719,0.11719 0.23438,0.23438 0.35156,0.23438 -0.23437,-0.23438 -0.58594,-0.46875 -0.82031,-0.70312 -1.7578,-1.5234 -3.5156,-2.9297 -5.2734,-4.4531 -4.6875,-4.2188 -8.7891,-8.7891 -12.891,-13.477 0.35156,0.46875 0.58594,0.70312 0.58594,0.70312 -0.23438,-0.11719 -1.1719,-1.2891 -1.9922,-2.2266 -0.23438,-0.23438 -0.35156,-0.46875 -0.46875,-0.70312 -1.0547,-1.4062 -1.9922,-2.9297 -2.9297,-4.4531 -1.4062,-2.3438 -2.5781,-4.6875 -3.75,-7.1484 -0.11719,-0.35156 -0.23438,-0.58594 -0.35156,-0.9375 -0.46875,-1.2891 -0.82031,-2.5781 -1.1719,-3.8672 -0.35156,-1.2891 -0.70312,-2.5781 -0.9375,-3.8672 -0.11719,-0.35156 -0.11719,-0.70313 -0.23437,-1.0547 -0.11719,-0.9375 -0.23438,-1.9922 -0.23438,-2.9297 -0.11719,-1.875 -0.58594,-3.2812 -0.58594,-5.0391 v -1.2891 -0.11719 c 0.11719,-2.5781 0,-5.2734 0,-7.8516 v -131.25 c 24.961,20.391 56.25,35.039 84.961,46.289 1.6406,0.70312 3.3984,1.2891 5.0391,1.9922 h 0.11719 c 1.7578,0.70312 3.5156,1.2891 5.2734,1.875 0.82031,0.35156 1.6406,0.58594 2.5781,0.9375 1.6406,0.58594 3.1641,1.1719 4.8047,1.7578 1.0547,0.35156 2.1094,0.70312 3.1641,1.0547 1.875,0.70312 3.75,1.2891 5.625,1.875 3.3984,1.1719 6.9141,2.2266 10.312,3.2812 10.43,3.2812 20.859,6.2109 31.406,8.7891 11.367,2.8125 22.734,5.5078 34.102,7.8516 h 0.35156 c 29.297,5.9766 58.945,10.43 88.594,13.828 21.562,2.4609 43.242,4.3359 64.922,5.5078 2.1094,0.11719 4.3359,0.23438 6.4453,0.35156 9.375,0.46875 18.75,0.82031 28.008,1.0547 16.875,0.46875 33.75,0.58594 50.625,0.23438 2.1094,0 4.1016,-0.11719 6.2109,-0.11719 h 0.9375 c 2.5781,0 5.1562,-0.11719 7.7344,-0.23438 1.2891,0 2.5781,-0.11719 3.8672,-0.11719 20.273,-0.70312 40.547,-1.875 60.82,-3.6328 18.516,-1.6406 37.148,-3.5156 55.664,-6.0938 16.523,-2.2266 32.93,-4.9219 49.336,-7.9688 17.344,-3.2812 34.688,-7.0312 51.797,-11.484 0.35156,-0.11719 0.58594,-0.11719 0.9375,-0.23438 14.062,-3.75 27.891,-7.8516 41.602,-12.422 28.711,-9.7266 57.422,-21.445 83.32,-37.383 8.2031,-4.8047 16.055,-10.312 23.55498,-16.289 z"
         inkscape:connector-curvature="0"
         style="fill:#7886ab;fill-opacity:1" />
    </g>
    <circle
       style="fill:#b3b3b3;fill-opacity:1;stroke:#b3b3b3;stroke-width:4.56058979;stroke-linecap:round;stroke-linejoin:round;stroke-miterlimit:4;stroke-dasharray:none;stroke-dashoffset:0;stroke-opacity:1"
       id="path1257"
       cx="-472.04205"
       cy="357.63333"
       r="166.90042" />
    <path
       style="fill-rule:evenodd;stroke-width:0.79687804"
       d="M 2282.0039 922.98047 C 2269.8644 922.98047 2260.0391 932.80551 2260.0391 944.94531 C 2260.0391 975.38827 2253.5406 1000.8635 2242.1855 1020.5488 C 2233.4819 1035.5653 2221.8266 1047.3303 2208.0801 1055.2871 C 2194.4466 1063.1311 2178.4602 1067.3535 2160.9414 1067.3535 L 2160.9414 1067.4297 C 2138.1182 1067.4297 2112.7926 1060.3322 2086.5332 1045.166 C 2076.0741 1039.152 2062.7386 1042.7389 2056.7246 1053.1602 L 2056.6875 1053.1211 L 1936.5645 1261.1875 C 1930.5132 1271.6467 1934.0625 1285.0554 1944.5586 1291.1445 C 1970.37 1306.0485 1988.8982 1324.2405 2000.2539 1343.8516 C 2009.0324 1359.0544 2013.4395 1375.1915 2013.4395 1391.3281 C 2013.4395 1407.4648 2009.0319 1423.6765 2000.291 1438.8418 L 2000.2559 1438.8066 C 1988.9381 1458.4171 1970.4115 1476.6097 1944.5625 1491.5137 C 1934.1037 1497.565 1930.5168 1510.9743 1936.5684 1521.4707 L 1936.5723 1521.4707 L 2056.6934 1729.5352 C 2062.7449 1739.9946 2076.1559 1743.5808 2086.6523 1737.5293 L 2087.6973 1736.8574 C 2113.4714 1722.215 2138.4229 1715.3418 2160.9473 1715.3418 C 2178.466 1715.3418 2194.4542 1719.487 2208.0879 1727.4062 C 2221.7965 1735.3252 2233.4505 1747.1294 2242.1914 1762.2207 L 2242.8262 1763.2285 C 2253.7709 1782.7275 2260.0469 1807.83 2260.0469 1837.7129 C 2260.0469 1849.8524 2269.8699 1859.6758 2282.0098 1859.6758 L 2522.2285 1859.6758 C 2534.3683 1859.6758 2544.1934 1849.8524 2544.1934 1837.7129 C 2544.1934 1807.2699 2550.6915 1781.7947 2562.0469 1762.1094 C 2570.7505 1747.0932 2582.4061 1735.326 2596.1523 1727.3691 C 2609.7861 1719.5251 2625.7726 1715.3047 2643.291 1715.3047 L 2643.291 1715.2285 C 2666.1143 1715.2285 2691.4415 1722.3263 2717.7012 1737.4922 C 2728.16 1743.5062 2741.4938 1739.9196 2747.5078 1729.498 L 2747.543 1729.5352 L 2867.6641 1521.4707 C 2873.7153 1511.0116 2870.1664 1497.6028 2859.6699 1491.5137 C 2833.8585 1476.6097 2815.3323 1458.4177 2803.9766 1438.8066 C 2795.1984 1423.6038 2790.7891 1407.4668 2790.7891 1391.3301 C 2790.7891 1375.1934 2795.1967 1358.9816 2803.9375 1343.8164 L 2803.9727 1343.8496 C 2815.2908 1324.2392 2833.817 1306.0485 2859.666 1291.1445 C 2870.1248 1285.0932 2873.7117 1271.6823 2867.6602 1261.1855 L 2747.5391 1053.1211 C 2741.4878 1042.662 2728.0788 1039.0774 2717.582 1045.1289 L 2716.5352 1045.8008 C 2690.7607 1060.4435 2665.8102 1067.3164 2643.2852 1067.3164 C 2625.767 1067.3164 2609.7782 1063.1695 2596.1445 1055.25 C 2582.4359 1047.3311 2570.7819 1035.5288 2562.041 1020.4375 L 2561.4062 1019.4277 C 2550.4618 999.92881 2544.1855 974.82818 2544.1855 944.94531 C 2544.1855 932.80551 2534.3624 922.98047 2522.2227 922.98047 L 2282.0039 922.98047 z M 2402.1855 1169.0098 C 2463.5946 1169.0098 2519.1756 1193.9252 2559.4023 1234.1172 C 2599.6692 1274.3844 2624.5098 1329.9643 2624.5098 1391.332 C 2624.5098 1452.7411 2599.5943 1508.3224 2559.4023 1548.5488 C 2519.1352 1588.816 2463.5533 1613.6562 2402.1855 1613.6562 C 2340.7767 1613.6562 2285.1953 1588.7408 2244.9688 1548.5488 C 2204.7019 1508.2817 2179.8613 1452.6994 2179.8613 1391.332 C 2179.8613 1329.9232 2204.7768 1274.3436 2244.9688 1234.1172 C 2285.236 1193.8504 2340.8181 1169.0098 2402.1855 1169.0098 z M 2402.0996 1212.8984 C 2352.8335 1212.8984 2308.1953 1232.8806 2275.9219 1265.1543 C 2243.6105 1297.4653 2223.6641 1342.0659 2223.6641 1391.332 C 2223.6641 1440.6013 2243.6481 1485.2361 2275.9219 1517.5098 C 2308.2325 1549.8204 2352.8335 1569.7676 2402.0996 1569.7676 C 2451.3655 1569.7676 2496.0037 1549.7832 2528.2773 1517.5098 C 2560.5883 1485.1985 2580.5352 1440.5982 2580.5352 1391.332 C 2580.5352 1342.0659 2560.5507 1297.428 2528.2773 1265.1543 C 2495.966 1232.8433 2451.3655 1212.8984 2402.0996 1212.8984 z M 2404.623 1275.1445 C 2428.4381 1275.1445 2446.5549 1280.5222 2458.9746 1291.2773 C 2471.3943 1302.0325 2477.5401 1314.5163 2477.4121 1328.7285 C 2477.4121 1342.9407 2474.4045 1355.5513 2468.3867 1366.5625 C 2462.3689 1377.5737 2454.6232 1385.2561 2445.1484 1389.6094 C 2432.4727 1395.6271 2425.3665 1405.3588 2423.8301 1418.8027 C 2423.1899 1424.8205 2420.5011 1429.9427 2415.7637 1434.168 C 2411.1543 1438.3932 2405.7767 1440.5059 2399.6309 1440.5059 L 2399.0547 1440.5059 C 2391.6285 1440.5059 2385.4173 1437.4963 2380.4238 1431.4785 C 2375.4304 1425.3327 2373.6385 1418.5473 2375.0469 1411.1211 C 2378.3759 1393.836 2387.1472 1380.1345 2401.3594 1370.0195 C 2415.5716 1360.0326 2422.7411 1347.8695 2422.8691 1333.5293 C 2422.8691 1320.2134 2413.5216 1313.1072 2394.8281 1312.2109 C 2384.073 1311.6988 2375.3036 1315.0925 2368.5176 1322.3906 C 2361.7316 1329.6888 2354.5601 1331.2252 2347.0059 1327 C 2342.3965 1324.1832 2338.9394 1319.4451 2336.6348 1312.7871 C 2334.3301 1306.1291 2334.7795 1299.6625 2337.9805 1293.3887 C 2341.3094 1287.2429 2345.7268 1283.467 2351.2324 1282.0586 C 2369.0297 1277.4492 2386.8258 1275.1445 2404.623 1275.1445 z M 2399.2461 1457.4062 C 2409.233 1457.4063 2417.2995 1460.4139 2423.4453 1466.4316 C 2429.5911 1472.4494 2432.7928 1480.1318 2433.0488 1489.4785 C 2433.3049 1498.8253 2430.3587 1506.5729 2424.2129 1512.7188 C 2417.683 1518.7365 2409.2324 1521.7441 2398.8613 1521.7441 C 2388.6183 1521.7441 2380.4251 1518.7365 2374.2793 1512.7188 C 2368.2615 1506.5729 2365.252 1498.8253 2365.252 1489.4785 C 2365.38 1480.1318 2368.5816 1472.4494 2374.8555 1466.4316 C 2381.1293 1460.4139 2389.2592 1457.4062 2399.2461 1457.4062 z "
       transform="matrix(0.26458333,0,0,0.26458333,-1107.6019,-10.489205)"
       id="path1246" />
  </g>
</svg>
