<?xml version="1.0" encoding="UTF-8" standalone="no"?>
<svg
   xmlns:dc="http://purl.org/dc/elements/1.1/"
   xmlns:cc="http://creativecommons.org/ns#"
   xmlns:rdf="http://www.w3.org/1999/02/22-rdf-syntax-ns#"
   xmlns:svg="http://www.w3.org/2000/svg"
   xmlns="http://www.w3.org/2000/svg"
   xmlns:sodipodi="http://sodipodi.sourceforge.net/DTD/sodipodi-0.dtd"
   xmlns:inkscape="http://www.inkscape.org/namespaces/inkscape"
   width="1626.5027pt"
   height="28620.336pt"
   version="1.1"
   viewBox="0 0 1626.5028 28620.336"
   id="svg6"
   sodipodi:docname="code_bg.svg"
   inkscape:version="0.92.5 (2060ec1f9f, 2020-04-08)">
  <metadata
     id="metadata12">
    <rdf:RDF>
      <cc:Work
         rdf:about="">
        <dc:format>image/svg+xml</dc:format>
        <dc:type
           rdf:resource="http://purl.org/dc/dcmitype/StillImage" />
        <dc:title></dc:title>
      </cc:Work>
    </rdf:RDF>
  </metadata>
  <defs
     id="defs10" />
  <sodipodi:namedview
     pagecolor="#ffffff"
     bordercolor="#666666"
     borderopacity="1"
     objecttolerance="10"
     gridtolerance="10"
     guidetolerance="10"
     inkscape:pageopacity="0"
     inkscape:pageshadow="2"
     inkscape:window-width="2599"
     inkscape:window-height="2096"
     id="namedview8"
     showgrid="false"
     inkscape:zoom="0.052149125"
     inkscape:cx="-2513.1825"
     inkscape:cy="9659.7576"
     inkscape:window-x="40"
     inkscape:window-y="27"
     inkscape:window-maximized="0"
     inkscape:current-layer="svg6"
     fit-margin-top="0"
     fit-margin-left="0"
     fit-margin-right="0"
     fit-margin-bottom="0" />
  <rect
     style="fill:#94854d;fill-opacity:0.98584906;stroke:#000000;stroke-width:3.73711395;stroke-linecap:round;stroke-linejoin:round;stroke-miterlimit:4;stroke-dasharray:none;stroke-dashoffset:0.3999995;stroke-opacity:1"
     id="rect822"
     width="1622.7656"
     height="28616.6"
     x="1.868557"
     y="1.868557" />
  <g
     id="g2185"
     transform="translate(209.07489,13710.2)">
    <path
       id="path2168"
       d="m 459.37,1121.5 c 25.547,-0.047 47.906,-17.25 54.375,-42 l 244.74,-930.47 0.0469,0.0469 c 7.875,-30.094 -10.078,-60.843995 -40.125,-68.765995 -30.04701,-7.922 -60.84401,10.031 -68.719,40.124995 l -244.74,930.47 h -0.0469 c -4.4062,16.875 -0.79688,34.828 9.8906,48.656 10.641,13.828 27.141,21.938 44.578,21.938 z"
       inkscape:connector-curvature="0"
       style="fill:#ffffff" />
    <path
       id="path2170"
       d="m 265.13,906.1 c 21.984,22.031 57.656,22.078 79.641,0.0937 22.031,-21.984 22.031,-57.656 0.0469,-79.641 l -226.64,-226.55 226.55,-226.55 c 21.984,-21.984 21.938,-57.656 -0.0469,-79.641 -22.031,-21.984 -57.656,-21.938 -79.641,0.0937 l -236.16,236.26 c -38.531,38.578 -38.531,101.11 0,139.69 z"
       inkscape:connector-curvature="0"
       style="fill:#ffffff" />
    <path
       id="path2172"
       d="m 855.28,293.9 c -10.594,10.547 -16.547,24.891 -16.547,39.844 0,14.906 5.9531,29.25 16.547,39.844 l 226.55,226.4 -226.55,226.55 c -21.984,21.984 -21.984,57.609 0,79.547 21.984,21.984 57.609,21.984 79.547,0 l 236.26,-236.26 c 38.578,-38.578 38.578,-101.11 0,-139.74 l -236.26,-236.26 c -10.547,-10.547 -24.844,-16.453 -39.75,-16.453 -14.953,0 -29.25,5.9062 -39.797,16.5 z"
       inkscape:connector-curvature="0"
       style="fill:#ffffff" />
  </g>
</svg>
