<?xml version="1.0" encoding="UTF-8" standalone="no"?>
<!-- Created with Inkscape (http://www.inkscape.org/) -->

<svg
   xmlns:dc="http://purl.org/dc/elements/1.1/"
   xmlns:cc="http://creativecommons.org/ns#"
   xmlns:rdf="http://www.w3.org/1999/02/22-rdf-syntax-ns#"
   xmlns:svg="http://www.w3.org/2000/svg"
   xmlns="http://www.w3.org/2000/svg"
   xmlns:sodipodi="http://sodipodi.sourceforge.net/DTD/sodipodi-0.dtd"
   xmlns:inkscape="http://www.inkscape.org/namespaces/inkscape"
   width="1029.0861mm"
   height="573.646mm"
   viewBox="0 0 1029.0861 573.64598"
   version="1.1"
   id="svg8"
   inkscape:version="0.92.5 (2060ec1f9f, 2020-04-08)"
   sodipodi:docname="logo.svg"
   inkscape:export-filename="/home/catherine/Pictures/misc_logos/under_construction.png"
   inkscape:export-xdpi="200"
   inkscape:export-ydpi="200">
  <defs
     id="defs2" />
  <sodipodi:namedview
     id="base"
     pagecolor="#ffffff"
     bordercolor="#666666"
     borderopacity="1.0"
     inkscape:pageopacity="0.0"
     inkscape:pageshadow="2"
     inkscape:zoom="0.15220625"
     inkscape:cx="225.60105"
     inkscape:cy="-788.59031"
     inkscape:document-units="mm"
     inkscape:current-layer="layer1"
     showgrid="false"
     fit-margin-top="0"
     fit-margin-left="0"
     fit-margin-right="0"
     fit-margin-bottom="0"
     inkscape:window-width="1880"
     inkscape:window-height="1136"
     inkscape:window-x="40"
     inkscape:window-y="27"
     inkscape:window-maximized="1" />
  <metadata
     id="metadata5">
    <rdf:RDF>
      <cc:Work
         rdf:about="">
        <dc:format>image/svg+xml</dc:format>
        <dc:type
           rdf:resource="http://purl.org/dc/dcmitype/StillImage" />
        <dc:title />
      </cc:Work>
    </rdf:RDF>
  </metadata>
  <g
     inkscape:label="Layer 1"
     inkscape:groupmode="layer"
     id="layer1"
     transform="translate(1107.6019,10.489205)">
    <rect
       style="fill:none;fill-opacity:1;stroke:none;stroke-width:5.69999981;stroke-linecap:round;stroke-linejoin:round;stroke-miterlimit:4;stroke-dasharray:none;stroke-dashoffset:0;stroke-opacity:1"
       id="rect906"
       width="1029.0861"
       height="573.646"
       x="-445.30164"
       y="-744.06073" />
    <rect
       style="fill:none;fill-opacity:1;stroke:none;stroke-width:5.69999981;stroke-linecap:round;stroke-linejoin:round;stroke-miterlimit:4;stroke-dasharray:none;stroke-dashoffset:0;stroke-opacity:1"
       id="rect948"
       width="1029.0861"
       height="573.646"
       x="-1107.6019"
       y="-10.489205" />
    <g
       id="g1448"
       transform="matrix(1.3580718,0,0,1.3580718,1024.4608,-760.29963)">
      <path
         sodipodi:nodetypes="csscccsccccscsssscsscccsccccccsscccssccc"
         style="fill:#b3b3b3;fill-opacity:1;stroke-width:0.35277778"
         inkscape:connector-curvature="0"
         d="m -994.17355,739.6217 c -1.25264,-1.48276 -3.1006,-2.33853 -5.04508,-2.33853 h -383.64587 c -1.9444,0 -3.7923,0.85577 -5.045,2.33853 -1.2596,1.48551 -1.8025,3.44646 -1.4787,5.36469 l 26.4584,158.75 c 0.5291,3.18742 3.288,5.52591 6.5235,5.52591 h 71.4799 c 13.7085,0 28.5088,-0.33261 40.2874,-0.33261 l -34.3167,-39.76411 c -5.0451,-5.9683 -6.1365,-14.07795 -2.8484,-21.16808 3.288,-7.09013 10.1865,-11.4942 18.0026,-11.4942 h 33.0729 v -79.375 c 0,-3.65302 2.9587,-6.61459 6.6146,-6.61459 h 66.1459 c 3.6558,0 6.6145,2.96139 6.6145,6.61459 v 79.375 h 33.073 c 7.8161,0 14.7147,4.40548 18.0026,11.4942 3.2879,7.08872 2.1966,15.19978 -2.8484,21.16808 l -33.2304,39.76411 c 11.7766,0 30.9405,0.33261 39.2011,0.33261 h 71.4799 c 3.2356,0 5.9944,-2.33853 6.5235,-5.52591 l 26.45837,-158.75 c 0.32246,-1.91823 -0.21911,-3.87914 -1.47863,-5.36469 z m -51.34555,-15.56791 v -66.14601 h 6.6146 c 10.9432,0 19.8438,8.90059 19.8438,19.84375 v 46.30208 z m -317.5,-1.8e-4 v -85.98958 c 0,-10.94316 8.9006,-19.84375 19.8438,-19.84375 h 6.6146 v 105.83333 z"
         id="path1404" />
      <path
         sodipodi:nodetypes="sccsssscsscccsssssssssssssssssssssssssssssss"
         style="fill:#7886ab;fill-opacity:1;stroke-width:0.35348335"
         inkscape:connector-curvature="0"
         d="m -1111.5076,625.2298 v -42.50991 l 49.1377,49.13772 h -42.5098 c -3.6564,0 -6.6279,-2.97424 -6.6279,-6.62781 z m 6.6279,19.88344 c -10.9651,0 -19.8834,-8.91839 -19.8834,-19.88344 v -46.39469 h -178.951 c -10.9651,0 -19.8835,8.91839 -19.8835,19.88344 v 125.33524 h 265.1126 v -78.94055 z m -192.2066,-33.13906 c 0,-3.66032 2.9645,-6.62781 6.6278,-6.62781 h 145.8119 c 3.6631,0 6.6278,2.96731 6.6278,6.62781 v 26.51124 c 0,3.66033 -2.9646,6.62782 -6.6278,6.62782 h -145.8119 c -3.6632,0 -6.6278,-2.96731 -6.6278,-6.62782 z m 59.6503,53.0225 c 0,3.66031 -2.9645,6.62781 -6.6278,6.62781 h -13.2556 c -3.6632,0 -6.6278,-2.96732 -6.6278,-6.62781 0,-3.6605 2.9645,-6.62782 6.6278,-6.62782 h 13.2556 c 3.6632,0 6.6278,2.96732 6.6278,6.62782 z m 145.8119,33.13905 h -198.8344 c -3.6632,0 -6.6278,-2.96731 -6.6278,-6.62781 0,-3.66049 2.9645,-6.62781 6.6278,-6.62781 h 198.8344 c 3.6631,0 6.6279,2.96732 6.6279,6.62781 0,3.6605 -2.9647,6.62781 -6.6279,6.62781 z m 0,-26.51124 h -125.9284 c -3.6632,0 -6.6279,-2.96732 -6.6279,-6.62781 0,-3.6605 2.9646,-6.62782 6.6279,-6.62782 h 125.9284 c 3.6631,0 6.6279,2.96732 6.6279,6.62782 0,3.66049 -2.9647,6.62781 -6.6279,6.62781 z"
         id="path1404-4" />
      <path
         sodipodi:nodetypes="ccscccscsssscsccc"
         style="stroke-width:0.35277778"
         inkscape:connector-curvature="0"
         d="m -1113.2291,859.4596 -72.7604,85.98922 c -1.2595,1.4855 -3.1075,2.3413 -5.0518,2.3413 -1.9443,0 -3.7923,-0.8558 -5.0518,-2.3413 l -72.7604,-85.98922 c -1.6605,-1.9665 -2.0353,-4.7184 -0.9494,-7.057 1.0845,-2.3357 3.423,-3.8308 6.0014,-3.8308 h 46.3021 v -79.375 c 0,-3.653 2.9586,-6.6146 6.6146,-6.6146 h 39.6875 c 3.6558,0 6.6146,2.9614 6.6146,6.6146 v 79.375 h 46.302 c 2.577,0 4.9156,1.4952 6.0015,3.8308 1.0845,2.3386 0.7111,5.0906 -0.9495,7.057 z"
         id="path1404-4-4" />
    </g>
  </g>
</svg>
