<?xml version="1.0" encoding="UTF-8" standalone="no"?>
<!-- Created with Inkscape (http://www.inkscape.org/) -->

<svg
   xmlns:dc="http://purl.org/dc/elements/1.1/"
   xmlns:cc="http://creativecommons.org/ns#"
   xmlns:rdf="http://www.w3.org/1999/02/22-rdf-syntax-ns#"
   xmlns:svg="http://www.w3.org/2000/svg"
   xmlns="http://www.w3.org/2000/svg"
   xmlns:sodipodi="http://sodipodi.sourceforge.net/DTD/sodipodi-0.dtd"
   xmlns:inkscape="http://www.inkscape.org/namespaces/inkscape"
   width="1029.0861mm"
   height="573.646mm"
   viewBox="0 0 1029.0861 573.64598"
   version="1.1"
   id="svg8"
   inkscape:version="0.92.5 (2060ec1f9f, 2020-04-08)"
   sodipodi:docname="logo.svg"
   inkscape:export-filename="/home/catherine/Pictures/misc_logos/under_construction.png"
   inkscape:export-xdpi="200"
   inkscape:export-ydpi="200">
  <defs
     id="defs2" />
  <sodipodi:namedview
     id="base"
     pagecolor="#ffffff"
     bordercolor="#666666"
     borderopacity="1.0"
     inkscape:pageopacity="0.0"
     inkscape:pageshadow="2"
     inkscape:zoom="0.076103124"
     inkscape:cx="6032.0946"
     inkscape:cy="-1743.316"
     inkscape:document-units="mm"
     inkscape:current-layer="layer1"
     showgrid="false"
     fit-margin-top="0"
     fit-margin-left="0"
     fit-margin-right="0"
     fit-margin-bottom="0"
     inkscape:window-width="1880"
     inkscape:window-height="1136"
     inkscape:window-x="40"
     inkscape:window-y="27"
     inkscape:window-maximized="1" />
  <metadata
     id="metadata5">
    <rdf:RDF>
      <cc:Work
         rdf:about="">
        <dc:format>image/svg+xml</dc:format>
        <dc:type
           rdf:resource="http://purl.org/dc/dcmitype/StillImage" />
        <dc:title></dc:title>
      </cc:Work>
    </rdf:RDF>
  </metadata>
  <g
     inkscape:label="Layer 1"
     inkscape:groupmode="layer"
     id="layer1"
     transform="translate(1107.6019,10.489205)">
    <rect
       style="fill:none;fill-opacity:1;stroke:none;stroke-width:5.69999981;stroke-linecap:round;stroke-linejoin:round;stroke-miterlimit:4;stroke-dasharray:none;stroke-dashoffset:0;stroke-opacity:1"
       id="rect906"
       width="1029.0861"
       height="573.646"
       x="-445.30164"
       y="-744.06073" />
    <rect
       style="fill:none;fill-opacity:1;stroke:none;stroke-width:5.69999981;stroke-linecap:round;stroke-linejoin:round;stroke-miterlimit:4;stroke-dasharray:none;stroke-dashoffset:0;stroke-opacity:1"
       id="rect948"
       width="1029.0861"
       height="573.646"
       x="-1107.6019"
       y="-10.489205" />
    <g
       id="g1327"
       transform="matrix(0.80010351,0,0,0.80010351,-100.41484,-776.23786)">
      <g
         style="fill:#7886ab;fill-opacity:1"
         transform="matrix(0.56655354,0,0,0.56655354,-1005.9824,929.23736)"
         id="g1225">
        <path
           style="fill:#7886ab;fill-opacity:1"
           inkscape:connector-curvature="0"
           d="m 1005.6,258.52 c -0.1172,-0.58594 -0.2344,-1.1719 -0.3516,-1.7578 0.1172,1.5234 0.2344,3.0469 0.2344,4.5703 0,0.82031 -0.3515,4.6875 -0.3515,5.3906 -0.4688,2.3438 -1.1719,4.5703 -1.875,6.7969 l -0.3516,1.0547 -0.1172,0.46875 c -0.1172,0.23438 -0.1172,0.46875 -0.2344,0.58594 0,0.11719 0,0.11719 -0.1172,0.23438 0,0.11719 0,0.11719 -0.1171,0.11719 -0.1172,0.23438 -0.2344,0.46875 -0.3516,0.70313 l -1.4062,2.8125 c -1.52341,2.8125 -3.28121,5.5078 -5.15621,8.2031 0.23438,-0.23437 0.35156,-0.35156 0.35156,-0.46875 -0.11719,0.11719 -0.23438,0.35156 -0.58594,0.70313 -0.11719,0.23437 -0.23438,0.35156 -0.35156,0.46875 -0.35156,0.35156 -0.58594,0.70312 -0.9375,1.1719 -0.58594,0.70313 -1.2891,1.5234 -1.875,2.2266 -2.5781,2.9297 -5.3906,5.8594 -8.3203,8.5547 -0.9375,0.82031 -1.875,1.6406 -2.8125,2.4609 -0.46875,0.35156 -0.82031,0.82031 -1.2891,1.1719 -0.46875,0.46875 -1.0547,0.9375 -1.5234,1.4062 -0.9375,0.82031 -1.9922,1.6406 -2.9297,2.4609 0,0 -0.11719,0.11719 -0.23438,0.11719 -0.11719,0.11719 -0.23437,0.11719 -0.23437,0.23438 -0.11719,0.11719 -0.23438,0.23438 -0.35156,0.35156 -0.35156,0.23437 -0.82031,0.58594 -1.0547,0.70312 -0.46875,0.35156 -1.0547,0.70313 -1.5234,1.0547 -0.58594,0.35156 -1.0547,0.82031 -1.6406,1.1719 -0.46875,0.35156 -0.9375,0.58594 -1.2891,0.9375 -9.6094,6.6797 -19.688,12.422 -30,17.812 -4.5703,2.3438 -9.1406,4.5703 -13.828,6.6797 -2.1094,0.9375 -4.1016,1.875 -6.2109,2.8125 0,0 -0.11719,0 -0.23438,0.11719 -0.11719,0.11719 -0.35156,0.11719 -0.58594,0.23438 h -0.11719 c -0.82031,0.35156 -1.9922,0.9375 -2.2266,0.9375 0.35156,-0.23438 0.70312,-0.35156 1.1719,-0.46875 h -0.11719 -0.11719 c -0.58594,0.23438 -1.1719,0.46875 -1.875,0.82031 -9.6094,3.8672 -19.453,7.5 -29.297,10.781 -11.016,3.75 -22.266,7.0312 -33.398,10.078 -3.3984,0.9375 -6.9141,1.875 -10.312,2.6953 -1.9922,0.46875 -3.9844,0.9375 -5.8594,1.5234 -1.7578,0.46875 -3.5156,0.9375 -5.3906,1.2891 -1.9922,0.46875 -3.8672,0.9375 -5.8594,1.4062 -0.9375,0.23438 -1.7578,0.46875 -2.6953,0.58594 -1.4062,0.35156 -2.9297,0.58594 -4.3359,0.9375 -1.5234,0.35156 -3.1641,0.70313 -4.6875,1.0547 -1.5234,0.35157 -3.1641,0.70312 -4.6875,1.0547 -2.1094,0.46875 -4.2188,0.82031 -6.3281,1.2891 -2.2266,0.46875 -4.5703,0.9375 -6.7969,1.4062 -1.875,0.35156 -3.6328,0.70312 -5.5078,1.0547 -1.6406,0.35156 -3.2812,0.58594 -4.8047,0.9375 -1.7578,0.35156 -3.3984,0.58594 -5.1562,0.9375 -5.9766,1.0547 -11.953,1.9922 -18.047,2.9297 -0.70312,0.11719 -1.2891,0.23438 -1.9922,0.35156 -2.5781,0.35156 -5.0391,0.82031 -7.6172,1.1719 -1.4062,0.23438 -2.6953,0.35156 -4.1016,0.58594 -0.35156,0 -0.70313,0.11719 -1.0547,0.11719 h -0.35156 -0.11719 -0.11719 v -0.11719 c -0.11719,0 -0.23437,-0.35156 -0.35156,-0.35156 0,0 -0.11719,0.11719 -0.23438,0.11719 v -0.11719 h -0.23438 c 0,0 0,0.23437 0.11719,0.23437 l -0.11719,0.23438 c -0.23438,0 -0.58594,0.11719 -0.82031,0.11719 h -0.35156 c -0.46875,0.11719 -0.9375,0.11719 -1.2891,0.11719 -2.4609,0.35156 -4.8047,0.58594 -7.2656,0.9375 -4.8047,0.58594 -9.7266,1.1719 -14.648,1.6406 -4.3359,0.46875 -8.7891,0.9375 -13.125,1.2891 -2.3438,0.23438 -4.8047,0.46875 -7.1484,0.58594 -2.6953,0.23437 -5.2734,0.46875 -7.8516,0.70312 -2.9297,0.23438 -5.8594,0.46875 -8.9062,0.70313 -2.4609,0.11719 -4.9219,0.35156 -7.5,0.46875 -1.2891,0.11719 -2.4609,0.23437 -3.75,0.23437 -1.2891,0.11719 -2.4609,0.11719 -3.75,0.23438 -2.4609,0.11719 -4.9219,0.23437 -7.3828,0.35156 -2.5781,0.11719 -5.0391,0.23438 -7.6172,0.35156 -1.875,0.11719 -3.8672,0.23438 -5.7422,0.23438 -3.8672,0.11719 -7.6172,0.35156 -11.484,0.35156 -1.875,0 -3.8672,0.11719 -5.7422,0.11719 -2.4609,0.11719 -5.0391,0.11719 -7.6172,0.23437 h -0.11719 c -2.3438,0 -4.6875,0.11719 -7.0312,0.11719 h -1.4062 -6.6797 -15.117 -0.46875 c -2.2266,0 -4.4531,0 -6.6797,-0.11719 h -2.1094 c -2.3438,0 -4.6875,-0.11719 -7.0312,-0.11719 -5.2734,-0.11719 -10.547,-0.23438 -15.82,-0.46875 -1.1719,0 -2.3438,-0.11719 -3.3984,-0.11719 -1.1719,0 -2.3438,-0.11719 -3.3984,-0.11719 -0.58594,0 -1.1719,0 -1.7578,-0.11719 -1.9922,-0.11719 -3.8672,-0.11719 -5.8594,-0.23437 -1.7578,-0.11719 -3.5156,-0.11719 -5.2734,-0.23438 -1.2891,0 -2.5781,-0.35156 -3.8672,-0.35156 -3.0469,-0.23438 -6.2109,-0.70312 -9.2578,-0.70312 h -0.11719 c -1.2891,0 -2.5781,0 -3.8672,-0.11719 -1.2891,0 -2.5781,-0.11719 -3.8672,-0.23438 -0.82031,0 -1.7578,-0.11719 -2.5781,-0.11719 h -0.70313 c -1.5234,-0.11719 -3.0469,0 -4.5703,-0.11719 -5.0391,-0.35156 -10.195,-0.82031 -15.234,-1.2891 -5.039,-0.46879 -10.195,-0.9375 -15.234,-1.5234 -0.46875,0 -1.0547,-0.11719 -1.5234,-0.11719 -0.82031,-0.11719 -1.6406,-0.11719 -2.4609,-0.23438 h -0.46875 c -0.46875,0 -0.9375,-0.11719 -1.5234,-0.11719 -0.70313,-0.11719 -1.5234,-0.11719 -2.2266,-0.23438 h -0.23438 c -3.0469,-0.35156 -6.0938,-0.70312 -9.1406,-1.0547 -2.4609,-0.35156 -4.8047,-0.58594 -7.2656,-0.9375 -0.35156,0 -0.58594,-0.11719 -0.9375,-0.23438 -0.11719,0 -0.23438,-0.11719 -0.35156,-0.11719 v -0.23437 0.11719 0.11719 -0.23437 c 0,0 -0.11719,0.23437 -0.11719,0.23437 v 0.11719 l -0.11719,-0.23438 v 0.35156 c 0,0 -0.23437,-0.23438 -0.23437,-0.35156 l -0.23438,0.23438 h -0.11719 -0.11719 -0.23438 c -0.11719,0 -0.11719,0.11719 -0.11719,0.11719 v -0.11719 c -0.23438,0 -0.46875,0 -0.58594,-0.11719 h -0.23438 c -0.9375,-0.11719 -1.9922,-0.23437 -2.9297,-0.46875 -3.3984,-0.46875 -6.6797,-0.9375 -10.078,-1.5234 -1.5234,-0.23438 -3.0469,-0.46875 -4.6875,-0.70312 -1.5234,-0.23438 -3.0469,-0.46875 -4.6875,-0.70312 -1.5234,-0.23438 -3.1641,-0.46875 -4.6875,-0.70312 -5.1562,-0.82031 -10.312,-1.7578 -15.469,-2.8125 -0.23438,0 -0.46875,-0.11719 -0.58594,-0.11719 -2.3438,-0.46875 -4.5703,-0.9375 -6.9141,-1.2891 -6.3281,-1.1719 -12.656,-2.4609 -18.867,-3.8672 -0.46875,-0.11719 -1.0547,-0.23437 -1.6406,-0.35156 -2.5781,-0.58594 -5.1562,-1.0547 -7.7344,-1.6406 0,0 -43.125,-11.484 -44.883,-12.188 -3.8672,-1.1719 -7.7344,-2.4609 -11.602,-3.6328 -0.11719,0 -0.23438,0 -0.23438,-0.11719 -1.7578,-0.46875 -3.3984,-1.0547 -5.0391,-1.6406 -9.2578,-3.1641 -18.516,-6.5625 -27.656,-10.195 -0.35156,-0.11719 -0.82031,-0.35156 -1.1719,-0.46875 -0.35156,-0.11719 -0.82031,-0.35156 -1.1719,-0.46875 -0.11719,0 -0.11719,-0.11719 -0.23438,-0.11719 h 0.11719 c -0.11719,0 -0.23437,-0.11719 -0.35156,-0.11719 0.11719,0 0.11719,0.11719 0.23438,0.11719 -0.11719,-0.11719 -0.35156,-0.11719 -0.58594,-0.23438 -0.11719,0 -0.23438,-0.11719 -0.35156,-0.11719 -0.11718,0 -0.11719,0 -0.23438,-0.11719 h 0.11719 c -1.7578,-0.82031 -3.5156,-1.5234 -5.3906,-2.3438 -4.8047,-2.1094 -9.4922,-4.4531 -14.18,-6.7969 -8.4375,-4.2188 -16.641,-8.9062 -24.609,-14.062 -3.6328,-2.3438 -7.1484,-4.9219 -10.664,-7.3828 -0.35156,-0.23437 -0.58594,-0.46875 -0.9375,-0.70312 l 1.4062,1.0547 c -1.1719,-0.82031 -1.7578,-1.4062 -1.875,-1.5234 h 0.11719 c -0.35156,-0.23438 -0.58594,-0.46875 -0.9375,-0.82031 -1.2891,-1.0547 -2.5781,-2.2266 -3.8672,-3.2812 -3.0469,-2.6953 -6.0938,-5.5078 -8.9062,-8.4375 -0.23438,-0.23438 -1.0547,-1.1719 -1.9922,-2.3438 -1.4062,-1.5234 -2.6953,-3.0469 -3.9844,-4.5703 v 0.11719 c 0.23438,0.35156 0.35156,0.46875 0.35156,0.58594 -0.11719,-0.23438 -0.82031,-1.1719 -1.2891,-1.7578 v -0.11719 c -0.11719,-0.11719 -0.23438,-0.23438 -0.35156,-0.35156 l -0.11719,-0.11719 c -1.0547,-1.5234 -2.1094,-3.1641 -3.1641,-4.8047 -1.0547,-1.7578 -1.9922,-3.5156 -2.9297,-5.3906 v -0.11719 c -0.23438,-0.58594 -1.1719,-2.9297 -1.1719,-3.0469 0.35156,0.46875 0.58594,1.1719 0.82031,1.7578 -0.46875,-1.4062 -1.0547,-2.8125 -1.4062,-4.2188 -0.70312,-2.3438 -0.9375,-4.6875 -1.5234,-7.0312 -0.11719,-1.6406 -0.11719,-3.2812 -0.11719,-4.9219 v -1.0547 c 0,0 -0.11719,0 0,-0.11719 v -0.11719 -0.11719 l 0.11719,-0.46875 v -0.11719 c 0,-0.82031 0.11719,-1.5234 0.23438,-2.3438 0,0.82031 -0.11719,1.4062 -0.11719,1.875 0.11719,-0.9375 0.35156,-2.1094 0.58594,-3.1641 0.35156,-1.7578 0.9375,-3.3984 1.4062,-5.0391 0.11719,-0.46875 0.35156,-1.0547 0.58594,-1.5234 1.6406,-3.1641 3.1641,-6.4453 5.1562,-9.4922 0.9375,-1.5234 1.9922,-2.9297 2.9297,-4.3359 0.46875,-0.46875 0.82031,-1.0547 1.2891,-1.5234 2.9297,-3.5156 6.2109,-6.7969 9.6094,-9.9609 1.6406,-1.5234 3.2812,-3.0469 5.0391,-4.5703 0.9375,-0.82031 1.875,-1.6406 2.9297,-2.3438 0.23438,-0.23438 0.82031,-0.70313 1.4062,-1.0547 -0.23437,0.11719 -0.46875,0.35156 -0.70312,0.46875 0.11719,-0.11719 0.23437,-0.23438 0.35156,-0.23438 0.70312,-0.58594 1.1719,-0.9375 1.2891,-1.0547 -0.11719,0 -0.11719,0.11719 -0.23437,0.23437 l 0.11719,-0.11719 c 0.9375,-0.70312 1.875,-1.2891 2.8125,-1.9922 2.3438,-1.6406 4.8047,-3.2812 7.2656,-4.9219 4.6875,-3.0469 9.375,-5.8594 14.18,-8.5547 10.195,-5.7422 20.859,-10.781 31.523,-15.469 0.70312,-0.23438 1.5234,-0.70312 2.2266,-0.9375 1.4062,-0.58594 2.6953,-1.0547 4.1016,-1.6406 3.5156,-1.4062 6.9141,-2.6953 10.43,-3.9844 6.5625,-2.4609 13.125,-4.6875 19.805,-6.9141 30.234,-9.8438 61.172,-17.227 92.344,-23.086 8.6719,-1.6406 17.344,-3.0469 26.133,-4.4531 4.1016,-0.58594 8.3203,-1.2891 12.422,-1.875 0.46875,0 1.5234,-0.23438 2.4609,-0.35156 0.11719,0 0.35156,0 0.58594,-0.11719 0.23437,0 0.58594,-0.11719 0.82031,-0.11719 h 0.23438 c 1.7578,-0.23437 3.5156,-0.46875 5.2734,-0.70312 18.516,-2.3438 37.031,-4.1016 55.664,-5.5078 77.109,-5.625 155.04,-3.75 231.8,6.0938 0.23438,0 0.46875,0 0.70312,0.11719 -0.11719,0 -0.35156,0 -0.46875,-0.11719 0.9375,0.11719 1.4062,0.11719 1.7578,0.11719 -0.23438,0 -0.70313,0 -1.0547,-0.11719 0.58594,0.11719 1.0547,0.11719 1.5234,0.23438 1.9922,0.23438 3.8672,0.58594 5.7422,0.82031 4.8047,0.70313 9.4922,1.4062 14.297,2.2266 8.3203,1.4062 16.641,2.8125 24.961,4.4531 16.055,3.0469 32.109,6.5625 47.93,10.664 14.648,3.75 29.18,7.9688 43.477,12.773 6.7969,2.3438 13.594,4.6875 20.273,7.2656 3.0469,1.1719 5.9766,2.3438 8.9062,3.5156 1.1719,0.46875 2.4609,1.0547 3.6328,1.5234 -0.58594,-0.11719 -0.9375,-0.35156 -1.2891,-0.35156 0.9375,0.35156 2.1094,0.70312 2.6953,0.9375 11.133,4.9219 22.148,10.312 32.812,16.406 4.9219,2.8125 9.7266,5.8594 14.414,9.0234 2.1094,1.4062 4.1016,2.8125 6.0938,4.3359 0.70312,0.46875 1.2891,0.9375 1.9922,1.4062 -3.2812,-2.8125 3.1641,2.3438 0.70312,0.58594 -0.23437,-0.11719 -0.46875,-0.35156 -0.70312,-0.58594 0.11719,0.11719 0.23437,0.23438 0.35156,0.23438 7.1484,5.8594 13.594,12.188 19.57,19.102 0.23438,0.35156 0.46875,0.58594 0.70313,0.9375 1.2891,1.7578 2.4609,3.6328 3.63278,5.5078 0.9375,1.6406 1.875,3.2812 2.6953,4.9219 0.2344,0.46875 0.4688,0.82031 0.586,1.2891 1.0547,3.1641 2.1094,6.3281 2.8125,9.6094 0,0.23438 0.1171,0.35156 0.1171,0.58594 0,-0.35156 0,-0.58594 -0.1171,-0.9375 -1.5234,-3.5156 -0.586,4.4531 -0.8204,3.5156 z"
           id="path1205" />
        <path
           style="fill:#7886ab;fill-opacity:1"
           inkscape:connector-curvature="0"
           d="m 1005.2,492.3 c 0,0.23437 0.1172,0.46875 0.1172,0.58594 0,0.11719 -0.8203,2.4609 -2.1094,6.5625 0,0.11719 -0.1172,0.23438 -0.1172,0.35156 0,0.23437 -0.1172,0.35156 -0.1172,0.58594 v 0.11719 c 0,0.11719 0,0.23438 -0.1172,0.23438 h 0.2344 c 0,0.23437 0.1172,0.35156 0.1172,0.58594 0,0.11719 -0.3516,0.23438 -0.3516,0.35156 0,0 -0.1172,0.11719 -0.2344,0.11719 l -0.1171,0.11719 c -0.1172,0.23438 -0.2344,0.58594 -0.4688,0.9375 v 0.11719 c -0.2344,0.35156 -0.3516,0.82031 -0.4687,1.0547 -0.586,1.1719 -1.1719,2.2266 -1.87504,3.2812 -0.70312,1.2891 -1.5234,2.4609 -2.2266,3.75 -0.46875,0.70312 -0.9375,1.4062 -1.4062,2.1094 0.46875,-0.35156 -1.875,2.9297 -1.7578,2.3438 -3.2812,3.75 -6.5625,7.3828 -10.195,10.781 -2.1094,1.9922 -4.2188,3.8672 -6.4453,5.625 -0.70312,0.58594 -1.4062,1.1719 -2.2266,1.7578 -1.6406,1.5234 -3.2812,2.9297 -1.1719,0.9375 -0.11719,0 -0.11719,0.11719 -0.23438,0.11719 l -0.11719,0.11719 c -1.0547,0.9375 -2.2266,1.7578 -3.5156,2.4609 -10.898,7.7344 -22.5,14.297 -34.336,20.273 -4.5703,2.2266 -9.1406,4.4531 -13.828,6.5625 -0.70312,0.35156 -6.4453,3.3984 -6.9141,3.0469 0.9375,-0.35156 1.875,-0.82031 2.8125,-1.1719 -0.9375,0.35156 -1.875,0.82031 -2.8125,1.1719 -1.4062,0.58594 -2.9297,1.1719 -4.3359,1.7578 -47.812,18.984 -98.555,30.469 -149.3,38.32 -3.75,0.58594 -7.3828,1.1719 -11.133,1.6406 -1.1719,0.11719 -2.2266,0.46875 -3.3984,0.46875 h -0.23438 -0.23438 -0.11719 -0.11719 -0.23438 -0.23438 -0.11719 -0.23438 -0.11719 -0.23438 c -0.46875,0 -0.82031,0.11719 -1.0547,0.11719 -8.0859,1.0547 -16.172,1.9922 -24.141,2.8125 -15.234,1.6406 -30.469,2.9297 -45.703,3.8672 -24.375,1.5234 -48.867,2.1094 -73.242,2.1094 h -0.58594 c -3.6328,0 -7.2656,0 -10.898,-0.11719 -6.4453,0 -12.891,-0.11719 -19.336,-0.35156 -1.9922,0 -3.8672,-0.11719 -5.8594,-0.11719 -1.1719,0 -2.4609,-0.11719 -3.6328,-0.11719 h -0.82031 -1.2891 c -1.4062,0 -2.9297,-0.11719 -4.3359,-0.11719 -2.5781,-0.11719 -5.1562,-0.23438 -7.7344,-0.35156 -2.5781,-0.11719 -5.0391,-0.23438 -7.6172,-0.35156 h -0.23438 c -0.46875,0 -0.9375,0 -1.4062,-0.11719 -2.6953,-0.11719 -5.2734,-0.35156 -7.9688,-0.46875 h -0.11719 c -3.1641,-0.23438 -6.2109,-0.35156 -9.375,-0.58594 h -0.11719 c -5.9766,-0.35156 -11.953,-0.9375 -17.812,-1.4062 h -0.11719 c -0.70312,0 -1.4062,-0.11719 -2.1094,-0.23438 -1.7578,-0.11719 -3.5156,-0.35156 -5.2734,-0.46875 -0.35156,0 -0.70312,0 -1.0547,-0.11719 -1.0547,-0.11719 -2.1094,-0.23438 -3.0469,-0.35156 h -0.23438 c -0.46875,0 -0.9375,-0.11719 -1.4062,-0.11719 -0.35156,0 -0.82031,-0.11719 -1.1719,-0.11719 -0.70313,-0.11719 -1.4062,-0.11719 -2.1094,-0.23438 -1.1719,-0.11719 -2.3438,-0.23437 -3.6328,-0.35156 -3.1641,-0.35156 -6.3281,-0.70312 -9.4922,-1.0547 -1.4062,-0.11719 -2.9297,-0.35156 -4.3359,-0.46875 -1.0547,-0.11719 -2.2266,-0.23437 -3.2812,-0.35156 -0.58594,-0.11719 -1.1719,-0.11719 -1.7578,-0.23438 -0.82031,-0.11719 -1.7578,-0.23438 -2.5781,-0.35156 -0.58594,-0.11719 -1.1719,-0.11719 -1.7578,-0.23437 -0.23438,0 -0.46875,0 -0.82031,-0.11719 h -0.11719 c -0.11719,0 -0.35156,0 -0.46875,-0.11719 -0.23438,0 -0.46875,0 -0.58594,-0.11719 h -0.35156 -0.46875 -0.23438 -0.11719 v -0.11719 h -0.23437 -0.11719 v 0.11719 0.11719 h -0.46875 v -0.11719 l -0.11719,0.11719 v 0.11719 h -0.11719 -0.11719 -0.23438 l -0.11719,-0.23438 c -0.11719,0 -0.23438,-0.11719 -0.23438,-0.11719 -0.11719,0 -0.23438,0 -0.46875,-0.11719 -0.82031,-0.11719 -1.5234,-0.23438 -2.2266,-0.35156 h -0.35156 c -0.11719,0 -0.23438,0 -0.35156,-0.11719 -3.1641,-0.46875 -6.2109,-0.9375 -9.375,-1.4062 -0.23437,0 -0.58594,-0.11719 -0.82031,-0.11719 -2.2266,-0.35156 -4.4531,-0.70312 -6.6797,-1.0547 -0.35156,0 -0.58594,-0.11719 -0.9375,-0.11719 -0.35156,0 -0.58594,-0.11719 -0.9375,-0.11719 -0.46875,-0.11719 -0.9375,-0.11719 -1.4062,-0.23438 -1.7578,-0.35156 -3.6328,-0.58594 -5.3906,-0.9375 -0.9375,-0.11719 -1.9922,-0.35156 -2.9297,-0.46875 -0.23438,0 -0.46875,-0.11719 -0.82031,-0.11719 -2.1094,-0.35156 -4.1016,-0.70313 -6.2109,-1.0547 -1.7578,-0.35156 -3.5156,-0.58594 -5.3906,-0.9375 -0.9375,-0.23438 -1.9922,-0.35156 -2.9297,-0.58594 -2.5781,-0.46875 -5.0391,-0.9375 -7.6172,-1.5234 -0.23438,0 -0.46875,-0.11719 -0.82031,-0.11719 -2.3438,-0.46875 -4.6875,-0.9375 -7.0312,-1.5234 -0.23438,0 -0.35156,-0.11719 -0.58594,-0.11719 -2.3438,-0.46875 -4.6875,-1.0547 -7.1484,-1.5234 h -0.23437 c -2.4609,-0.58594 -4.8047,-1.0547 -7.1484,-1.6406 -1.6406,-0.35156 -3.2812,-0.82031 -5.0391,-1.1719 -0.35156,-0.11719 -0.82031,-0.23438 -1.1719,-0.23438 -0.70312,-0.11719 -1.2891,-0.35156 -1.9922,-0.46875 -0.11719,0 -0.23438,0 -0.35156,-0.11719 -1.7578,-0.46875 -3.5156,-0.82031 -5.2734,-1.2891 l -8.4375,-2.1094 c -3.2812,-0.82031 -6.4453,-1.7578 -9.7266,-2.6953 -1.2891,-0.35156 -2.5781,-0.70312 -3.8672,-1.0547 -1.2891,-0.35158 -2.5781,-0.70312 -3.8672,-1.1719 -1.4062,-0.46875 -2.9297,-0.82031 -4.3359,-1.2891 -1.9922,-0.58594 -3.9844,-1.1719 -5.9766,-1.7578 -12.188,-3.75 -24.258,-7.9688 -36.094,-12.656 -1.6406,-0.58594 -3.2812,-1.2891 -4.8047,-1.9922 -0.70312,-0.23438 -1.4062,-0.58594 -2.1094,-0.82031 0,0 -0.11719,0 -0.11719,-0.11719 h -0.11719 c 1.875,0.82031 -2.1094,-0.82031 -2.4609,-0.9375 0.11719,0 0.58594,0.23437 1.4062,0.58594 -0.11719,-0.11719 -0.35156,-0.11719 -0.46875,-0.23438 h -0.11719 c -0.46875,-0.11719 -0.82031,-0.35156 -1.2891,-0.58594 -0.46875,-0.23437 -0.9375,-0.35156 -1.2891,-0.58594 h -0.11719 c -0.11719,0 -0.11719,0 -0.23437,-0.11719 -0.11719,0 -0.23438,-0.11719 -0.35156,-0.11719 0,0 -0.11719,0 -0.11719,-0.11719 -0.23438,-0.11719 -0.35156,-0.11719 -0.58594,-0.23437 h -0.11719 c -1.0547,-0.46875 -2.1094,-0.9375 -3.0469,-1.4062 -2.9297,-1.2891 -5.8594,-2.9297 -8.7891,-4.2188 -0.35156,-0.11719 -0.58594,-0.35156 -0.9375,-0.46875 -0.9375,-0.46875 -1.9922,-1.0547 -2.9297,-1.5234 -0.9375,-0.4687 -1.9922,-1.0547 -2.9297,-1.5234 -0.9375,-0.4687 -1.9922,-1.0547 -2.9297,-1.5234 -0.9375,-0.58594 -1.9922,-1.0547 -2.9297,-1.6406 -0.9375,-0.46875 -1.7578,-0.9375 -2.6953,-1.5234 -1.4062,-0.82031 -2.6953,-1.5234 -3.9844,-2.3438 -1.2891,-0.82031 -2.5781,-1.5234 -3.8672,-2.3438 -0.82031,-0.46875 -1.6406,-1.0547 -2.4609,-1.5234 -0.23437,-0.11719 -0.35156,-0.23438 -0.58594,-0.35156 -0.70312,-0.46875 -1.5234,-0.9375 -2.2266,-1.5234 -0.82031,-0.46875 -1.6406,-1.0547 -2.4609,-1.6406 -0.11719,-0.11719 -0.23438,-0.11719 -0.35156,-0.23438 -0.23437,-0.11719 -0.35156,-0.23438 -0.58594,-0.35156 -0.9375,-0.58594 -1.875,-1.2891 -2.9297,-1.9922 -0.9375,-0.70312 -1.9922,-1.4062 -2.9297,-2.1094 -0.11719,-0.11719 -0.35156,-0.23438 -0.46875,-0.35156 -0.11719,-0.11719 -0.46875,-0.35156 -0.82031,-0.58594 -0.23438,-0.11719 -0.46875,-0.35156 -0.58594,-0.46875 0,0 -0.11719,0 -0.11719,-0.11719 2.5781,2.2266 -4.4531,-3.1641 0,0 0,0 -0.11719,-0.11719 -0.23437,-0.11719 h -0.11719 -0.11719 c 0,0 -0.11719,-0.11719 -0.23437,-0.11719 -0.35156,-0.23438 -0.58594,-0.46875 -0.70313,-0.58594 -2.4609,-1.9922 -4.9219,-4.1016 -7.2656,-6.2109 -0.46875,-0.46875 -0.9375,-0.82031 -1.4062,-1.2891 -0.35156,-0.35156 -0.70313,-0.58594 -0.9375,-0.9375 -0.35156,-0.35156 -0.82031,-0.70312 -1.1719,-1.1719 -0.35156,-0.35156 -0.58594,-0.58594 -0.9375,-0.9375 -0.11719,-0.11719 -0.23437,-0.23438 -0.35156,-0.35156 -0.11719,-0.11719 -0.23438,-0.23437 -0.35156,-0.35156 -0.58594,-0.58594 -1.1719,-1.1719 -1.7578,-1.875 -0.70312,-0.70312 -1.4062,-1.5234 -2.1094,-2.2266 -0.11719,-0.11719 -0.11719,-0.11719 -0.23438,-0.23438 0,-0.11719 -0.11719,-0.11719 -0.11719,-0.23437 -0.82031,-0.9375 -1.5234,-1.7578 -2.3438,-2.6953 l -0.11719,-0.11719 c 0.11719,0.23437 0.11719,0.23437 -0.35156,-0.46875 -0.11719,-0.11719 -0.11719,-0.23438 -0.23438,-0.46875 -0.11719,-0.23438 -0.46875,-0.46875 -0.46875,-0.70313 h -0.11719 l -0.23438,-0.23437 v 0.11719 h -0.11719 l -0.11719,-0.23438 h 0.23438 c -0.35156,-0.58594 -0.82031,-1.1719 -1.1719,-1.7578 -0.35156,-0.46875 -0.70312,-1.0547 -0.9375,-1.5234 l -0.70312,-1.1719 c -0.58594,-0.9375 -1.0547,-1.7578 -1.6406,-2.6953 0,-0.11719 -0.11719,-0.23437 -0.11719,-0.35156 -0.46875,-0.9375 -0.9375,-1.7578 -1.4062,-2.6953 -0.35156,-0.70313 -0.70313,-1.875 -1.1719,-2.6953 0,0.11719 0.11719,0.23438 0.11719,0.35156 0.35156,0.82031 0.70312,1.9922 0.82031,2.2266 v -0.11719 -0.11719 c 0,-0.11719 -0.11719,-0.35156 -0.11719,-0.46875 v -0.11719 -0.11719 c -0.23438,-0.58594 -0.46875,-1.2891 -0.70312,-1.6406 0,-0.11719 -0.11719,-0.11719 -0.11719,-0.23438 v -0.11719 c 0.11719,0 0.11719,0.11719 0.11719,0.11719 -0.11719,-0.46875 -0.35156,-0.9375 -0.46875,-1.4062 -0.58594,-1.875 -1.1719,-3.75 -1.6406,-5.625 0,-0.23438 -0.11719,-0.35156 -0.11719,-0.58594 l -0.11719,-0.11719 c -0.11719,-0.35156 -0.23438,-0.70312 -0.23438,-1.0547 v 0.23437 -0.11719 -0.11719 0.11719 -0.11719 c 0,-0.23438 0,-0.58594 -0.11719,-0.82031 v -0.35156 c -0.23438,-1.1719 -0.35156,-2.3438 0,-0.9375 -0.11719,-0.70312 -0.11719,-0.9375 -0.11719,-1.0547 0,0.11719 0.35156,0.9375 0.35156,1.875 0,0.23438 0.11719,0.35156 0.11719,0.58594 v 0.23438 c 0,-0.23438 -0.11719,-0.46875 -0.11719,-0.70313 0,-1.9922 -0.11719,-3.9844 -0.11719,-5.9766 v -140.74 c 3.5156,2.9297 7.2656,5.7422 11.016,8.4375 0.46875,0.35156 1.0547,0.70313 1.5234,1.0547 13.242,9.1406 27.539,16.992 41.836,23.672 22.031,10.43 45,18.984 68.32,26.133 5.7422,1.7578 15.703,4.6875 22.031,6.3281 1.875,0.46875 3.6328,0.9375 5.5078,1.4062 2.3438,0.58594 7.2656,1.875 7.3828,1.875 1.7578,0.46875 3.5156,0.9375 5.1562,1.4062 1.6406,0.35156 3.2812,0.82031 4.8047,1.1719 0.11719,0 0.35156,0 0.46875,0.11719 31.289,7.2656 63.047,12.891 95.039,16.875 1.875,0.23438 3.6328,0.46875 5.5078,0.70312 47.109,5.625 94.57,8.0859 141.68,7.9688 10.43,0 20.859,-0.23438 31.289,-0.46875 0.70312,0 1.5234,0 2.2266,-0.11719 9.9609,-0.35156 19.805,-0.70312 29.766,-1.2891 51.211,-2.9297 102.54,-9.0234 152.81,-19.453 1.6406,-0.35156 3.2812,-0.70312 4.9219,-1.0547 1.4062,-0.35156 2.8125,-0.58594 4.3359,-0.9375 0.70312,-0.11719 1.4062,-0.35156 2.1094,-0.46875 7.2656,-1.6406 14.414,-3.2812 21.562,-5.1562 34.805,-8.7891 69.023,-20.273 101.37,-35.742 9.1406,-4.3359 18.281,-9.1406 27.188,-14.414 0.9375,-0.58594 1.9922,-1.1719 2.9297,-1.7578 1.2891,-0.82031 2.5781,-1.6406 3.75,-2.4609 1.2891,-0.82031 2.6953,-1.7578 3.9844,-2.5781 0.70312,-0.46875 1.4062,-0.9375 1.9922,-1.4062 3.9844,-2.6953 7.85157,-5.625 11.60197,-8.6719 v 139.1 c 0,2.3438 -0.7031,5.8594 -0.3515,8.5547 0.1172,-0.35156 0.2343,-0.70313 0.3515,-1.0547 0.1172,-0.35157 0.2344,-0.70312 0.3516,-1.0547 -0.2344,0.70313 -0.3516,1.7578 -0.4688,2.4609 -0.4687,0.23438 -0.5859,0.35156 -0.5859,0.58594 z"
           id="path1207" />
        <path
           style="fill:#7886ab;fill-opacity:1"
           inkscape:connector-curvature="0"
           d="m 995.98,576.45 c 3.2812,-2.3438 6.4453,-4.6875 9.4922,-7.2656 v 145.9 c 0,0.70312 -0.1172,1.4062 -0.1172,2.1094 -0.1172,0.58594 -0.2344,1.1719 -0.3515,1.7578 0,0.11719 -0.1172,0.35156 -0.1172,0.46875 0,0.23438 -0.1172,0.35156 -0.1172,0.58594 -0.1172,0.46875 -0.2344,0.82031 -0.3516,1.2891 v 0.11719 c -0.3515,1.1719 -0.7031,2.3438 -1.0547,3.6328 -0.1172,0.35156 -0.3515,1.0547 -0.7031,1.7578 0,0.11719 -0.1172,0.23438 -0.1172,0.23438 0,0.11719 -0.1172,0.23438 -0.1172,0.35156 l -0.4687,0.9375 c 0,0.11719 -0.1172,0.23438 -0.1172,0.35156 -0.3516,0.70312 -0.7032,1.4062 -1.1719,2.1094 -0.2344,0.35156 -0.3516,0.70312 -0.586,1.0547 -0.11716,0.11719 -0.11716,0.35156 -0.23435,0.46875 -0.11719,0.23437 -0.23438,0.46875 -0.35156,0.58594 -0.23438,0.35156 -0.35156,0.58594 -0.58594,0.9375 -1.1719,1.875 -2.3438,3.75 -3.6328,5.625 l -0.11719,0.11719 c -0.11719,0.11719 -0.11719,0.23438 -0.23438,0.35156 -0.11719,0.11718 -0.11719,0.23438 -0.23438,0.35156 -0.11719,0.11719 -0.23438,0.35156 -0.35156,0.46875 -1.0547,1.2891 -2.2266,2.5781 -3.2812,3.8672 -4.8047,5.2734 -9.9609,10.078 -15.469,14.648 -0.23438,0.23438 -0.46875,0.35156 -0.70313,0.58594 -0.11719,0.11719 -0.35156,0.23438 -0.46875,0.35156 l -0.11719,0.11719 c -0.11719,0.11719 -0.35156,0.23438 -0.46875,0.35156 h -0.11719 l -0.11719,0.11719 c -0.23438,0.11719 -0.46875,0.35156 -0.70312,0.46875 0,0 0.11719,0 0.11719,-0.11719 -1.1719,0.82031 -2.2266,1.6406 -3.3984,2.4609 -3.6328,2.5781 -7.3828,5.0391 -11.133,7.2656 -5.8594,3.6328 -11.836,6.9141 -17.93,10.078 -0.23438,0.11719 -0.46875,0.23438 -0.70312,0.35156 -3.6328,1.875 -7.2656,3.6328 -10.898,5.3906 -2.1094,0.9375 -4.2188,1.9922 -6.3281,2.9297 -0.46875,0.23438 -0.9375,0.46875 -1.4062,0.58594 -0.82031,0.35156 -1.6406,0.70313 -2.4609,1.0547 -0.11719,0 -0.23438,0.11719 -0.35156,0.11719 h -0.11719 c -0.23438,0.11719 -0.58594,0.23437 -0.82031,0.35156 -0.11719,0 -0.11719,0 -0.11719,0.11719 -0.11719,0.11719 -0.35156,0.11719 -0.46875,0.23437 h -0.11719 -0.11719 c 0,0 -0.11719,0 -0.11719,0.11719 -1.5234,0.58594 -3.0469,1.1719 -4.5703,1.875 -3.2812,1.2891 -6.6797,2.5781 -9.9609,3.8672 -6.6797,2.4609 -13.477,4.8047 -20.273,7.0312 -14.297,4.6875 -28.711,8.7891 -43.359,12.422 -16.055,3.9844 -32.227,7.5 -48.516,10.547 -8.5547,1.6406 -17.109,3.0469 -25.781,4.4531 -4.2188,0.70313 -8.4375,1.2891 -12.773,1.875 -0.35156,0 -0.58594,0.11719 -0.9375,0.11719 h -0.11719 -0.23438 c -0.70312,0.11719 -1.9922,0.23438 -3.0469,0.35156 0,0.35156 0,0 -0.11719,0 0,0 -0.11719,0.58594 -0.23438,0.58594 -0.11719,0 -0.23437,-0.23438 -0.35156,-0.23438 l -0.11719,-0.11719 c -1.4062,0.23437 -3.8672,0.46875 -4.5703,0.58594 -19.102,2.4609 -38.438,4.2188 -57.656,5.625 -2.1094,0.11719 -4.2188,0.23438 -6.4453,0.46875 -1.2891,0.11719 -2.5781,0.11719 -3.8672,0.23438 -1.2891,0.11719 -2.5781,0.11719 -3.8672,0.23438 -1.5234,0.11719 -3.0469,0.23438 -4.6875,0.23438 -54.844,3.0469 -109.92,2.2266 -164.53,-2.4609 -8.6719,-0.70312 -17.344,-1.6406 -25.898,-2.5781 -4.1016,-0.46875 -8.2031,-0.9375 -12.188,-1.4062 -1.9922,-0.23438 -3.9844,-0.46875 -6.0938,-0.70313 -0.70312,-0.11719 -1.2891,-0.11719 -1.9922,-0.23437 h -0.70313 -0.46875 v 0.23437 l 0.11719,0.23438 h -0.23438 -0.11719 c 0,-0.46875 -0.11719,-0.58594 -0.11719,-0.58594 -0.11719,0 -0.11719,0.23438 -0.23438,0.23438 -16.172,-2.2266 -32.109,-5.0391 -48.164,-8.0859 -24.375,-4.6875 -48.633,-10.43 -72.422,-17.578 -3.8672,-1.1719 -7.6172,-2.3438 -11.367,-3.5156 -1.1719,-0.35156 -2.2266,-0.70313 -3.3984,-1.0547 -0.82031,-0.23438 -1.5234,-0.46875 -2.2266,-0.82031 -3.2812,-1.0547 -6.4453,-2.2266 -9.7266,-3.3984 -1.6406,-0.58594 -3.1641,-1.1719 -4.8047,-1.7578 h -0.11719 c -0.58594,-0.23438 -1.2891,-0.46875 -1.875,-0.70313 -0.9375,-0.35156 -1.875,-0.70312 -2.8125,-1.0547 -1.9922,-0.70312 -3.8672,-1.5234 -5.8594,-2.2266 h -0.11719 c -1.1719,-0.46875 -2.2266,-0.9375 -3.3984,-1.2891 -0.9375,-0.35156 -1.875,-0.82031 -2.8125,-1.1719 h 0.11719 c -0.11719,0 -0.23438,-0.11719 -0.46875,-0.23438 -0.23437,-0.11719 -0.46875,-0.23438 -0.82031,-0.35156 -0.11719,0 -0.23438,-0.11719 -0.35156,-0.11719 -0.35156,-0.11719 -0.58594,-0.23438 -0.9375,-0.46875 h -0.11719 -0.11719 c -0.82031,-0.35156 -1.6406,-0.70312 -2.4609,-1.0547 -0.70312,-0.35156 -1.4062,-0.58594 -2.1094,-0.9375 -0.23438,-0.11719 -0.58594,-0.23437 -0.82031,-0.35156 -1.1719,-0.46875 -2.2266,-1.0547 -3.3984,-1.5234 -1.4062,-0.58594 -2.8125,-1.2891 -4.1016,-1.9922 -1.875,-0.9375 -3.75,-1.7578 -5.5078,-2.6953 -5.2734,-2.5781 -10.43,-5.3906 -15.469,-8.3203 -0.35156,-0.23438 -0.82031,-0.46875 -1.1719,-0.70312 -2.3438,-1.4062 -4.8047,-2.8125 -7.1484,-4.3359 -3.3984,-2.2266 -6.7969,-4.4531 -10.078,-6.7969 -0.35156,-0.23437 -1.875,-1.2891 -2.6953,-1.9922 l -0.11719,-0.11719 c 0,0 -0.11719,0.11719 -0.11719,0 0,0 0,0.11719 -0.11719,0.11719 l -0.11719,-0.23438 v -0.11719 c -0.11719,-0.11719 -0.11719,-0.23437 -0.23437,-0.23437 -0.11719,0 -0.11719,-0.11719 -0.23438,-0.23438 -0.35156,-0.23437 -0.70312,-0.58594 -0.9375,-0.82031 -0.46875,-0.35156 -0.9375,-0.82031 -1.4062,-1.1719 -0.23437,-0.11719 -0.46875,-0.35156 -0.58594,-0.46875 -0.35156,-0.23438 -0.58594,-0.46875 -0.9375,-0.70312 -0.23438,-0.23438 -0.46875,-0.46875 -0.82031,-0.70312 -0.82031,-0.70312 -1.6406,-1.4062 -2.3438,-2.1094 -0.58594,-0.46875 -1.0547,-0.9375 -1.6406,-1.5234 -0.70313,-0.58594 -1.2891,-1.2891 -1.9922,-1.875 -0.23438,-0.23437 -0.35156,-0.35156 -0.58594,-0.58594 -0.23437,-0.23438 -0.35156,-0.35156 -0.58594,-0.58594 -0.23438,-0.35156 -0.58594,-0.58594 -0.82031,-0.82031 -1.875,-1.875 -3.75,-3.9844 -5.5078,-5.9766 -0.23438,-0.23437 -1.4062,-1.7578 -2.2266,-2.6953 l -0.23438,-0.23438 c -0.11719,-0.11719 -0.23437,-0.35156 -0.35156,-0.46875 -0.11719,-0.23438 -0.23438,-0.35156 -0.35156,-0.58594 0,0 0,-0.11719 -0.11719,-0.11719 -0.35156,-0.58594 -0.70312,-1.0547 -1.0547,-1.6406 -0.82031,-1.1719 -1.5234,-2.3438 -2.2266,-3.6328 -0.35156,-0.58594 -0.70312,-1.1719 -1.0547,-1.875 -0.11719,-0.23437 -0.23437,-0.35156 -0.35156,-0.58594 -0.11719,-0.35156 -0.35156,-0.58594 -0.46875,-0.9375 0,0 0,-0.11719 -0.11719,-0.11719 -0.46875,-0.82031 -0.9375,-1.7578 -1.2891,-2.5781 -0.11719,-0.11719 0,-0.23437 -0.11719,-0.35156 v -0.11719 h -0.11719 c -0.11719,-0.23437 -0.23438,-0.58594 -0.23438,-0.82031 -0.46875,-1.1719 -0.82031,-2.2266 -1.1719,-3.3984 0,-0.11719 0,-0.23437 -0.11719,-0.35156 -0.23438,-0.70312 -0.46875,-1.5234 -0.70313,-2.2266 0,-0.11719 -0.11719,-0.35156 -0.11719,-0.46875 v -0.23438 -0.23437 c 0,-0.11719 0,-0.11719 -0.11719,-0.23438 -0.23438,-1.0547 -0.46875,-1.9922 -0.58594,-3.0469 v -0.58594 c 0,-0.70312 -0.11719,-1.4062 -0.11719,-1.9922 v -144.96 c 5.3906,4.3359 11.133,8.4375 16.875,12.305 5.7422,3.8672 11.602,7.3828 17.578,10.781 5.5078,3.1641 11.836,7.2656 18.398,9.4922 0.11719,0 0.23438,0.11719 0.35156,0.11719 1.9922,0.9375 3.9844,1.875 6.0938,2.8125 0.9375,0.35156 1.875,0.82031 2.6953,1.1719 1.5234,0.70313 3.0469,1.2891 4.5703,1.9922 1.0547,0.46875 2.1094,0.9375 3.1641,1.4062 38.555,16.406 79.219,27.773 120.23,36.211 27.656,5.625 55.547,10.078 83.672,13.359 3.1641,0.35156 6.2109,0.70313 9.375,1.0547 h 0.23438 c 1.0547,0.11719 1.9922,0.23438 2.9297,0.35156 8.4375,0.82031 16.758,1.6406 25.078,2.3438 7.9688,0.70313 15.938,1.2891 23.906,1.7578 h 0.23438 c 1.0547,0.11719 1.9922,0.11719 3.0469,0.23438 11.484,0.70312 23.086,1.1719 34.57,1.5234 63.867,1.875 127.62,-1.2891 191.02,-9.9609 0.23438,0 0.35156,0 0.58594,-0.11719 19.805,-2.8125 39.375,-6.2109 58.945,-10.195 41.484,-8.4375 82.266,-20.156 121.29,-36.68 10.664,-4.5703 21.68,-9.6094 32.344,-15.469 0.23438,-0.11719 0.35156,-0.23437 0.58594,-0.35156 0.70312,-0.46875 1.5234,-0.82031 2.2266,-1.2891 7.7344,-4.3359 15.352,-9.1406 22.5,-14.297 z"
           id="path1209" />
        <path
           style="fill:#7886ab;fill-opacity:1"
           inkscape:connector-curvature="0"
           d="m 1005.5,794.88 v 141.09 c -0.1172,0.9375 -0.1172,1.7578 -0.2344,2.6953 0,1.4062 0,2.8125 -0.1172,4.2188 -0.5859,2.8125 -1.1719,5.5078 -2.1094,8.3203 -0.4687,1.2891 -1.0547,2.5781 -1.4062,3.8672 0.1172,-0.46875 0.2344,-0.82031 0.3516,-1.1719 -0.1172,0.23438 -0.1172,0.35156 -0.2344,0.46875 -1.5234,2.9297 -3.16409,5.8594 -5.03909,8.5547 -0.58594,0.82031 -1.1719,1.7578 -1.7578,2.5781 0.23438,-0.23437 0.46875,-0.46875 0.58594,-0.70312 -0.35156,0.46875 -0.82031,0.9375 -1.1719,1.4062 -0.23438,0.23437 -0.35156,0.58594 -0.58594,0.82031 -0.46875,0.58594 -0.9375,1.1719 -1.2891,1.2891 -2.1094,2.3438 -4.2188,4.6875 -6.4453,6.9141 -2.5781,2.5781 -5.2734,4.9219 -7.9688,7.2656 -1.5234,1.2891 -3.5156,2.4609 -4.8047,3.8672 -0.58594,0.46875 -1.1719,0.82031 -1.6406,1.2891 -15.469,11.133 -32.344,20.15596 -49.688,27.89096 -2.1094,0.9375 -4.4531,1.7578 -6.4453,2.8125 1.7578,-0.9375 2.5781,-1.4062 2.6953,-1.4062 -0.23437,0.1172 -3.8672,1.875 -5.0391,2.3438 -5.625,2.2266 -11.133,4.3359 -16.875,6.4453 -11.016,3.9844 -22.148,7.5 -33.398,10.781 -25.43,7.3828 -51.211,13.242 -77.344,17.93 -6.7969,1.1719 -13.711,2.3438 -20.508,3.5156 -3.1641,0.4688 -6.3281,0.9375 -9.4922,1.4062 -1.875,0.2344 -3.8672,0.586 -5.7422,0.8203 -0.46875,0.1172 -1.0547,0.1172 -1.5234,0.2344 h -0.46875 -0.23438 -0.35156 -0.35156 0.23437 c -14.883,2.1094 -29.766,3.6328 -44.766,4.9219 -63.047,5.625 -126.68,5.8594 -189.84,1.1719 -15.586,-1.1719 -31.172,-2.6953 -46.641,-4.5703 -3.2812,-0.3515 -6.5625,-0.8203 -9.8438,-1.1719 -0.35156,0 -1.7578,-0.2344 -2.8125,-0.3515 h 0.58594 c -1.0547,-0.1172 -2.2266,-0.3516 -3.2812,-0.4688 -7.6172,-1.0547 -15.234,-2.2266 -22.852,-3.5156 -26.719,-4.4531 -53.203,-9.9609 -79.336,-16.992 -22.383,-6.0938 -44.297,-13.359 -65.742,-22.031 0.11719,0 0.23438,0.1172 0.23438,0.1172 3.5156,1.5234 -0.82031,-0.2344 -1.5234,-0.5859 0.11719,0 0.35156,0.1172 0.70312,0.2343 -1.0547,-0.4687 -2.1094,-0.9375 -3.0469,-1.4062 -2.1094,-0.9375 -4.2188,-1.875 -6.3281,-2.9297 -4.9219,-2.2266 -9.7266,-4.6875 -14.531,-7.1484 -8.0859,-4.2188 -16.055,-8.78905 -23.672,-13.82795 -3.3984,-2.2266 -6.5625,-4.5703 -9.8438,-6.9141 0.23438,0.23437 0.46875,0.46875 0.82031,0.58594 3.2812,2.8125 -4.8047,-3.5156 -1.2891,-0.9375 0.11719,0.11719 0.23438,0.23438 0.35156,0.23438 -0.23437,-0.23438 -0.58594,-0.46875 -0.82031,-0.70312 -1.7578,-1.5234 -3.5156,-2.9297 -5.2734,-4.4531 -4.6875,-4.2188 -8.7891,-8.7891 -12.891,-13.477 0.35156,0.46875 0.58594,0.70312 0.58594,0.70312 -0.23438,-0.11719 -1.1719,-1.2891 -1.9922,-2.2266 -0.23438,-0.23438 -0.35156,-0.46875 -0.46875,-0.70312 -1.0547,-1.4062 -1.9922,-2.9297 -2.9297,-4.4531 -1.4062,-2.3438 -2.5781,-4.6875 -3.75,-7.1484 -0.11719,-0.35156 -0.23438,-0.58594 -0.35156,-0.9375 -0.46875,-1.2891 -0.82031,-2.5781 -1.1719,-3.8672 -0.35156,-1.2891 -0.70312,-2.5781 -0.9375,-3.8672 -0.11719,-0.35156 -0.11719,-0.70313 -0.23437,-1.0547 -0.11719,-0.9375 -0.23438,-1.9922 -0.23438,-2.9297 -0.11719,-1.875 -0.58594,-3.2812 -0.58594,-5.0391 v -1.2891 -0.11719 c 0.11719,-2.5781 0,-5.2734 0,-7.8516 v -131.25 c 24.961,20.391 56.25,35.039 84.961,46.289 1.6406,0.70312 3.3984,1.2891 5.0391,1.9922 h 0.11719 c 1.7578,0.70312 3.5156,1.2891 5.2734,1.875 0.82031,0.35156 1.6406,0.58594 2.5781,0.9375 1.6406,0.58594 3.1641,1.1719 4.8047,1.7578 1.0547,0.35156 2.1094,0.70312 3.1641,1.0547 1.875,0.70312 3.75,1.2891 5.625,1.875 3.3984,1.1719 6.9141,2.2266 10.312,3.2812 10.43,3.2812 20.859,6.2109 31.406,8.7891 11.367,2.8125 22.734,5.5078 34.102,7.8516 h 0.35156 c 29.297,5.9766 58.945,10.43 88.594,13.828 21.562,2.4609 43.242,4.3359 64.922,5.5078 2.1094,0.11719 4.3359,0.23438 6.4453,0.35156 9.375,0.46875 18.75,0.82031 28.008,1.0547 16.875,0.46875 33.75,0.58594 50.625,0.23438 2.1094,0 4.1016,-0.11719 6.2109,-0.11719 h 0.9375 c 2.5781,0 5.1562,-0.11719 7.7344,-0.23438 1.2891,0 2.5781,-0.11719 3.8672,-0.11719 20.273,-0.70312 40.547,-1.875 60.82,-3.6328 18.516,-1.6406 37.148,-3.5156 55.664,-6.0938 16.523,-2.2266 32.93,-4.9219 49.336,-7.9688 17.344,-3.2812 34.688,-7.0312 51.797,-11.484 0.35156,-0.11719 0.58594,-0.11719 0.9375,-0.23438 14.062,-3.75 27.891,-7.8516 41.602,-12.422 28.711,-9.7266 57.422,-21.445 83.32,-37.383 8.2031,-4.8047 16.055,-10.312 23.55498,-16.289 z"
           id="path1211" />
      </g>
      <circle
         r="208.59854"
         cy="1417.1556"
         cx="-464.47391"
         id="path1257"
         style="fill:#b3b3b3;fill-opacity:1;stroke:#b3b3b3;stroke-width:5.69999981;stroke-linecap:round;stroke-linejoin:round;stroke-miterlimit:4;stroke-dasharray:none;stroke-dashoffset:0;stroke-opacity:1" />
      <g
         transform="matrix(0.28212602,0,0,0.28212602,-633.74802,1247.8597)"
         id="g1244">
        <path
           inkscape:connector-curvature="0"
           d="m 680.29,947.16 0.84375,-0.84375 55.312,-55.453 c 7.3125,-7.3125 7.3125,-19.453 0,-26.859 l -29.391,-29.391 c -9.7031,-9.7031 -11.859,-24.938 -5.0625,-37.078 13.922,-24.234 24.609,-50.297 31.781,-77.156 3.7031,-13.453 15.938,-22.781 29.859,-22.781 h 41.062 c 10.453,0 18.938,-8.5312 18.938,-19.078 v -91.453 c 0,-10.453 -8.5312,-19.078 -18.938,-19.078 h -41.062 c -13.922,0 -26.156,-9.375 -29.766,-22.781 -0.70312,-2.8594 -1.6875,-5.625 -2.3906,-8.625 -0.375,-0.46875 -0.46875,-0.9375 -0.46875,-1.6875 -7.3125,-23.625 -17.156,-46.453 -29.625,-68.062 -6.8438,-12 -4.7812,-27.234 4.9219,-37.078 l 29.391,-29.391 c 7.4531,-7.4531 7.4531,-19.453 0,-26.859 l -64.547,-64.547 c -3.7031,-3.7031 -8.5312,-5.625 -13.547,-5.625 -1.3125,0 -2.5312,0.14062 -3.7031,0.375 -3.7031,0.70312 -7.0781,2.5312 -9.7031,5.2969 l -29.391,29.297 c -9.7031,9.8438 -25.078,11.859 -37.219,4.9219 -24.375,-14.062 -50.531,-24.938 -77.766,-32.391 -13.312,-3.7031 -22.688,-15.844 -22.688,-29.766 v -41.156 c 0,-10.453 -8.625,-19.078 -19.078,-19.078 h -91.453 c -10.453,0 -19.078,8.625 -19.078,19.078 v 40.781 c 0,13.922 -9.375,26.156 -22.781,29.766 -27.234,7.3125 -53.531,18.141 -78,32.156 -12,6.8438 -27.234,4.7812 -36.938,-5.0625 l -29.156,-29.062 c -7.4531,-7.4531 -19.547,-7.4531 -26.859,0 l -64.688,64.547 c -7.4531,7.4531 -7.4531,19.547 0,26.859 l 28.688,28.688 c 9.8438,9.8438 11.859,25.219 4.7812,37.312 -14.391,24.938 -25.547,51.609 -33,79.312 -3.7031,13.453 -15.844,22.781 -29.766,22.781 l -40.875,-0.0469 c -10.406,0 -18.938,8.6719 -18.938,19.125 v 91.45299 c 0,10.54701 8.5313,19.078 18.938,19.078 l 41.062,-0.0469 c 13.922,0 26.156,9.375 29.766,22.781 7.4531,27.375 18.469,53.766 32.625,78.375 6.8438,12 4.7812,27.375 -4.9219,37.219 l -28.688,28.453 c -3.7031,3.7031 -5.5312,8.5312 -5.5312,13.547 0,5.0625 1.9219,9.8438 5.5312,13.453 l 64.547,64.688 c 3.7031,3.7031 8.5312,5.5312 13.547,5.5312 5.0625,0 9.8438,-1.9219 13.547,-5.5312 l 28.688,-28.688 c 5.7656,-6 13.781,-9 21.703,-9 5.2969,0 10.453,1.3125 15.234,4.0781 24.703,14.156 51.375,25.219 78.844,32.531 13.453,3.7031 22.781,15.938 22.781,29.859 v 40.78096 c 0,10.453 8.625,19.078 19.078,19.078 h 91.453 c 10.453,0 19.078,-8.625 19.078,-19.078 v -41.39096 c 0,-13.781 9.375,-26.062 22.688,-29.766 27.609,-7.4531 54,-18.469 78.703,-32.766 12,-7.0781 27.375,-5.0625 37.219,4.7812 l 28.922,28.922 c 3.6094,3.7031 8.3906,5.5312 13.547,5.5312 5.0625,0 9.8438,-1.9219 13.453,-5.5312 z M 410.61,802.69 c -94.312,0 -171,-76.688 -171,-171 0,-94.312 76.688,-171 171,-171 94.312,0 171,76.688 171,171 0,94.312 -76.688,171 -171,171 z"
           id="path1227" />
        <path
           inkscape:connector-curvature="0"
           d="m 606.61,329.86 29.391,-29.25 c 3,-3 6.6094,-5.2969 10.312,-6.8438 v -0.70312 c 0,-55.781 45.234,-101.06 101.06,-101.06 55.688,0 101.06,45.234 101.06,101.06 0,54 -42.609,98.297 -96,100.92 -1.3125,5.3906 -4.0781,10.547 -8.1562,14.859 l -29.391,29.391 c -6.1406,6.1406 -7.2188,15.469 -3,22.922 12.234,21.375 22.078,43.922 29.391,67.078 h 33.609 c 4.6875,0 8.5312,-3.8438 8.5312,-8.5312 v -23.766 c 0,-9.1406 6.1406,-17.156 14.859,-19.453 15.609,-4.3125 30.609,-10.547 44.625,-18.703 7.9219,-4.5469 18,-3.2344 24.469,3.1406 l 16.688,16.688 c 3.2344,3.2344 8.625,3.2344 11.859,0 l 37.312,-37.219 c 3.2344,-3.375 3.2344,-8.7656 0,-12 l -16.922,-17.062 c -6.4688,-6.375 -7.7812,-16.312 -3.2344,-24.234 7.7812,-13.781 13.922,-28.453 18.141,-43.922 2.3906,-8.7656 10.453,-14.859 19.547,-14.859 h 23.625 c 4.6875,0 8.5312,-3.8438 8.5312,-8.5312 v -52.688 c 0,-4.6875 -3.8438,-8.5312 -8.5312,-8.5312 h -23.625 c -9.2344,0 -17.156,-6.1406 -19.547,-14.859 -4.2188,-15.609 -10.312,-30.469 -18.375,-44.391 -4.5469,-7.9219 -3.2344,-18 3.1406,-24.375 l 16.922,-17.062 c 1.6875,-1.5469 2.5312,-3.7031 2.5312,-6 0,-2.2969 -0.84375,-4.3125 -2.5312,-6 l -37.219,-37.312 c -3.1406,-3.1406 -8.8594,-3.1406 -12,0 l -16.922,16.922 c -6.4688,6.4688 -16.453,7.7812 -24.375,3.2344 -13.922,-7.9219 -28.688,-14.156 -44.156,-18.469 -8.8594,-2.2969 -14.859,-10.312 -14.859,-19.453 v -23.484 c 0,-4.6875 -3.8438,-8.5312 -8.5312,-8.5312 h -52.688 c -4.6875,0 -8.5312,3.8438 -8.5312,8.5312 v 23.531 c 0,9.1406 -6.1406,17.156 -14.859,19.547 -15.469,4.0781 -30.375,10.219 -44.391,18.234 -7.7812,4.4531 -17.859,3.1406 -24.234,-3.2344 l -16.781,-16.781 c -1.6875,-1.6875 -3.7031,-2.5312 -6,-2.5312 -2.2969,0 -4.4531,0.84375 -6.1406,2.5312 l -37.219,37.312 c -3.2344,3.2344 -3.2344,8.625 0,12 l 16.547,16.453 c 6.4688,6.4688 7.6875,16.547 3.1406,24.375 -8.1562,14.156 -14.531,29.297 -18.844,45.141 -2.3906,8.8594 -10.312,14.859 -19.453,14.859 h -23.625 c -4.6875,0 -8.5312,3.8438 -8.5312,8.5312 v 35.156 c 24.375,7.5469 48,17.859 70.312,30.609 7.5938,4.1719 16.922,2.9531 23.062,-3.1875 z"
           id="path1229" />
        <path
           inkscape:connector-curvature="0"
           d="m 1188,802.08 h -29.625 c -10.781,0 -20.156,-7.2188 -22.922,-17.531 -5.2969,-19.453 -13.219,-38.297 -23.156,-55.781 -5.2969,-9.2344 -3.8438,-21.141 3.8438,-28.688 l 21.234,-21.141 c 2.2969,-2.2969 3.375,-5.2969 3.375,-8.5312 0,-3.2343 -1.0781,-6.375 -3.375,-8.5312 l -46.547,-46.547 c -2.2031,-2.1094 -5.2031,-3.3281 -8.4375,-3.3281 -3.2344,0 -6.375,1.3125 -8.5312,3.4688 l -21.141,21.141 c -7.5469,7.5469 -19.312,9.1406 -28.688,3.8438 -17.391,-9.9375 -36.141,-17.859 -55.453,-23.062 -10.219,-2.7656 -17.391,-12.234 -17.391,-23.062 v -29.625 c 0,-6.7031 -5.3906,-12 -12,-12 h -65.766 c -6.7031,0 -12,5.2969 -12,12 v 29.297 c 0,10.781 -7.2188,20.297 -17.531,22.922 -2.7656,0.70312 -5.5312,1.5469 -8.1562,2.3906 v 59.062 c 0,17.062 -13.922,30.844 -30.844,30.844 h -41.062 c -8.625,0 -16.219,5.7656 -18.469,14.062 -7.4531,27.844 -18.609,54.703 -32.859,80.062 -4.3125,7.3125 -3,16.781 3,22.781 l 29.391,29.625 c 12,12 12,31.453 0,43.453 l -52.688,52.688 c 2.0625,4.4531 4.5469,9 7.0781,13.453 5.2969,9.375 3.8438,21.141 -3.8438,28.688 l -20.625,20.625 c -2.2969,2.2969 -3.6094,5.2969 -3.6094,8.5312 0,3.2343 1.3125,6.2344 3.6094,8.5312 l 46.453,46.547 c 2.2969,2.2969 5.2969,3.4688 8.625,3.4688 3.1406,0 6.2344,-1.3125 8.5312,-3.4688 l 20.625,-20.625 c 7.5469,-7.5469 19.312,-9.2344 28.688,-3.9375 17.531,10.219 36.469,18 56.297,23.297 10.312,2.7656 17.531,12.234 17.531,23.062 v 29.297 c 0,6.6094 5.2969,12 12,12 h 65.766 c 6.6094,0 12,-5.3906 12,-12 v -29.766 c 0,-10.547 7.2188,-20.156 17.391,-22.922 19.547,-5.2969 38.391,-13.312 56.156,-23.391 9.2344,-5.3906 21.141,-3.9375 28.688,3.7031 l 20.859,20.859 c 4.6875,4.6875 12.234,4.6875 16.922,0 l 46.547,-46.547 c 2.2969,-2.2969 3.4688,-5.2969 3.4688,-8.5312 0,-3.2343 -1.3125,-6.2344 -3.4688,-8.5312 l -21.234,-21.234 c -7.4531,-7.4531 -9.1406,-19.219 -3.8438,-28.547 9.8438,-17.297 17.531,-35.859 22.781,-54.938 2.7656,-10.312 12.234,-17.531 22.922,-17.531 l 29.484,-0.14062 c 6.6094,0 12,-5.3906 12,-12 v -65.766 c 0,-6.6094 -5.3906,-12 -12,-12 z M 904.92,961.79 c -63.844,0 -115.69,-51.844 -115.69,-115.55 0,-63.844 51.844,-115.69 115.69,-115.69 63.703,0 115.55,51.844 115.55,115.69 0,63.703 -51.844,115.55 -115.55,115.55 z"
           id="path1231" />
      </g>
    </g>
  </g>
</svg>
