<?xml version="1.0" encoding="UTF-8" standalone="no"?>
<!-- Created with Inkscape (http://www.inkscape.org/) -->

<svg
   width="1029.0861mm"
   height="573.646mm"
   viewBox="0 0 1029.0861 573.64599"
   version="1.1"
   id="svg8"
   inkscape:version="1.2.2 (b0a8486541, 2022-12-01)"
   sodipodi:docname="logo.svg"
   inkscape:export-filename="/home/catherine/Pictures/misc_logos/under_construction.png"
   inkscape:export-xdpi="200"
   inkscape:export-ydpi="200"
   xml:space="preserve"
   xmlns:inkscape="http://www.inkscape.org/namespaces/inkscape"
   xmlns:sodipodi="http://sodipodi.sourceforge.net/DTD/sodipodi-0.dtd"
   xmlns="http://www.w3.org/2000/svg"
   xmlns:svg="http://www.w3.org/2000/svg"
   xmlns:rdf="http://www.w3.org/1999/02/22-rdf-syntax-ns#"
   xmlns:cc="http://creativecommons.org/ns#"
   xmlns:dc="http://purl.org/dc/elements/1.1/"><defs
     id="defs2" /><sodipodi:namedview
     id="base"
     pagecolor="#ffffff"
     bordercolor="#666666"
     borderopacity="1.0"
     inkscape:pageopacity="0.0"
     inkscape:pageshadow="2"
     inkscape:zoom="0.27614258"
     inkscape:cx="1926.541"
     inkscape:cy="1247.5439"
     inkscape:document-units="mm"
     inkscape:current-layer="layer1"
     showgrid="false"
     fit-margin-top="0"
     fit-margin-left="0"
     fit-margin-right="0"
     fit-margin-bottom="0"
     inkscape:window-width="1876"
     inkscape:window-height="1131"
     inkscape:window-x="0"
     inkscape:window-y="0"
     inkscape:window-maximized="1"
     inkscape:showpageshadow="2"
     inkscape:pagecheckerboard="0"
     inkscape:deskcolor="#d1d1d1" /><metadata
     id="metadata5"><rdf:RDF><cc:Work
         rdf:about=""><dc:format>image/svg+xml</dc:format><dc:type
           rdf:resource="http://purl.org/dc/dcmitype/StillImage" /></cc:Work></rdf:RDF></metadata><g
     inkscape:label="Layer 1"
     inkscape:groupmode="layer"
     id="layer1"
     transform="translate(2875.3353,-989.80972)"><g
       id="g1751"
       style="fill:#ffffff"
       transform="translate(77.225474,36.834684)"><rect
         y="952.97504"
         x="-2952.5608"
         height="573.646"
         width="1029.0861"
         id="rect948"
         style="fill:#ffffff;fill-opacity:1;stroke:none;stroke-width:5.7;stroke-linecap:round;stroke-linejoin:round;stroke-miterlimit:4;stroke-dasharray:none;stroke-dashoffset:0;stroke-opacity:1" /></g><g
       fill="#305699"
       id="g422"
       transform="matrix(0.28280289,0,0,0.28280289,-2541.0323,1133.4997)"><path
         d="m 682.8,596.4 306,-315.6 50.398,48 c 10.801,10.801 27.602,14.398 42,8.3984 14.398,-4.8008 24,-18 26.398,-33.602 l 26.398,-225.6 c 1.1992,-12 -2.3984,-25.199 -12,-33.602 -9.6016,-8.3984 -21.602,-13.199 -33.602,-10.801 l -226.79,34.809 C 846,70.8008 834,81.6014 829.204,96.0044 c -4.8008,14.398 -1.1992,31.199 10.801,40.801 l 50.398,48 -259.2,267.6 -147.6,-144 c -12,-12 -27.602,-18 -44.398,-19.199 -19.199,-1.1992 -39.602,6 -54,20.398 l -337.2,348 c -25.203,28.801 -24.004,72.004 2.3945,98.402 7.1992,7.1992 15.602,12 25.199,15.602 3.6016,1.1992 8.3984,2.3984 13.199,3.6016 3.6016,0 7.1992,1.1992 10.801,1.1992 18,0 34.801,-7.1992 48,-20.398 l 289.2,-300 147.6,142.8 c 27.598,26.398 71.996,25.199 98.398,-2.4023 z"
         id="path414"
         style="fill:#7886ab;fill-opacity:1" /><path
         d="M 342,909.6 H 139.2 c -21.602,0 -38.398,16.801 -38.398,38.398 v 180 c 0,21.602 16.801,38.398 38.398,38.398 H 342 c 21.602,0 38.398,-16.801 38.398,-38.398 v -180 C 380.398,927.6 363.601,909.6 342,909.6 Z"
         id="path416"
         style="fill:#000000" /><path
         d="M 736.8,748.8 H 534 c -21.602,0 -38.398,16.801 -38.398,38.398 v 340.8 c 0,21.602 16.801,38.398 38.398,38.398 h 202.8 c 21.602,0 38.398,-16.801 38.398,-38.398 v -342 c 0,-20.398 -16.801,-37.199 -38.398,-37.199 z"
         id="path418"
         style="fill:#000000" /><path
         d="M 1131.6,586.8 H 928.8 c -21.602,0 -38.398,16.801 -38.398,38.398 l -0.004,502.8 c 0,21.602 16.801,38.398 38.398,38.398 h 202.8 c 21.602,0 38.398,-16.801 38.398,-38.398 v -502.8 c 0,-21.598 -16.801,-38.398 -38.398,-38.398 z"
         id="path420"
         style="fill:#000000" /></g><path
       d="m -2134.096,1503.2725 h -453.2808 c -31.225,0.032 -61.3498,-11.5408 -84.5184,-32.4688 -23.1731,-20.9304 -37.7405,-49.7221 -40.8782,-80.7871 -3.14,-31.0661 5.3777,-62.19 23.8983,-87.3328 18.5183,-25.1399 45.7193,-42.5012 76.3214,-48.7144 -0.5049,-26.9277 7.6252,-53.3073 23.1978,-75.2813 15.5758,-21.973 37.7754,-38.3788 63.3476,-46.8188 25.5759,-8.4418 53.1812,-8.4719 78.7718,-0.087 18.7568,-25.3303 43.1827,-45.9186 71.3211,-60.1218 28.1375,-14.2008 59.2109,-21.6236 90.729,-21.6694 36.0125,0.4911 71.2563,10.4913 102.1575,28.9938 30.9011,18.4995 56.3624,44.8421 73.8007,76.3568 17.4371,31.5115 26.2345,67.0726 25.5001,103.0858 22.7735,10.3562 42.0423,27.1159 55.4557,48.2348 13.4157,21.1185 20.3956,45.6825 20.0901,70.6985 -0.038,33.3801 -13.3195,65.3806 -36.9239,88.9898 -23.602,23.6044 -55.605,36.8825 -88.9898,36.9237 z m -352.5511,-327.3672 c -20.0379,0 -39.2513,7.96 -53.4198,22.1284 -14.1684,14.1659 -22.1261,33.3819 -22.1261,53.4197 v 25.181 c 0,6.6791 -2.6533,13.0831 -7.3771,17.8068 -4.7213,4.7237 -11.1277,7.3748 -17.8067,7.3748 -26.9902,0 -51.9303,14.4005 -65.4219,37.7752 -13.4961,23.3725 -13.4961,52.1711 0,75.546 13.4939,23.3745 38.434,37.7728 65.4219,37.7728 h 453.2808 c 24.8413,-0.5921 47.8882,-13.0784 61.955,-33.5657 14.0633,-20.4875 17.4349,-46.481 9.0595,-69.8758 -8.3754,-23.3953 -27.4767,-41.3467 -51.345,-48.2554 -5.5844,-1.2534 -10.5742,-4.3701 -14.148,-8.8368 -3.576,-4.4667 -5.5224,-10.0189 -5.5201,-15.7408 v -25.181 c -0.03,-33.2372 -11.0171,-65.5331 -31.2611,-91.8925 -20.2443,-26.3606 -48.6133,-45.308 -80.7166,-53.9132 -32.1016,-8.6052 -66.1446,-6.3829 -96.8577,6.319 -30.713,12.6994 -56.3805,35.1746 -73.0308,63.9409 -3.3099,5.7473 -8.7522,9.9544 -15.144,11.7154 -6.3922,1.7582 -13.2207,0.9227 -19.0048,-2.3206 -11.1734,-6.2083 -23.7561,-9.4423 -36.5385,-9.3942 z"
       fill="#305699"
       id="path405"
       style="fill:#b3b3b3;fill-opacity:1;stroke-width:0.587585" /></g></svg>
