<?xml version="1.0" encoding="UTF-8" standalone="no"?>
<!-- Created with Inkscape (http://www.inkscape.org/) -->

<svg
   xmlns:dc="http://purl.org/dc/elements/1.1/"
   xmlns:cc="http://creativecommons.org/ns#"
   xmlns:rdf="http://www.w3.org/1999/02/22-rdf-syntax-ns#"
   xmlns:svg="http://www.w3.org/2000/svg"
   xmlns="http://www.w3.org/2000/svg"
   xmlns:sodipodi="http://sodipodi.sourceforge.net/DTD/sodipodi-0.dtd"
   xmlns:inkscape="http://www.inkscape.org/namespaces/inkscape"
   width="517.43378mm"
   height="517.43378mm"
   viewBox="0 0 517.43378 517.43378"
   version="1.1"
   id="svg2273"
   inkscape:version="0.92.5 (2060ec1f9f, 2020-04-08)"
   sodipodi:docname="learn.svg">
  <defs
     id="defs2267" />
  <sodipodi:namedview
     id="base"
     pagecolor="#ffffff"
     bordercolor="#666666"
     borderopacity="1.0"
     inkscape:pageopacity="0.0"
     inkscape:pageshadow="2"
     inkscape:zoom="0.12374369"
     inkscape:cx="-1991.9245"
     inkscape:cy="637.13783"
     inkscape:document-units="mm"
     inkscape:current-layer="layer1"
     showgrid="false"
     fit-margin-top="0"
     fit-margin-left="0"
     fit-margin-right="0"
     fit-margin-bottom="0"
     inkscape:window-width="1880"
     inkscape:window-height="1136"
     inkscape:window-x="40"
     inkscape:window-y="27"
     inkscape:window-maximized="1" />
  <metadata
     id="metadata2270">
    <rdf:RDF>
      <cc:Work
         rdf:about="">
        <dc:format>image/svg+xml</dc:format>
        <dc:type
           rdf:resource="http://purl.org/dc/dcmitype/StillImage" />
        <dc:title></dc:title>
      </cc:Work>
    </rdf:RDF>
  </metadata>
  <g
     inkscape:label="Layer 1"
     inkscape:groupmode="layer"
     id="layer1"
     transform="translate(-1236.9119,-175.37479)">
    <circle
       style="fill:#ececec;fill-opacity:1;stroke:none;stroke-width:4.15889931;stroke-linecap:round;stroke-linejoin:round;stroke-miterlimit:4;stroke-dasharray:4.15889927, 4.15889927;stroke-dashoffset:0;stroke-opacity:1"
       id="path1985"
       cx="1495.6288"
       cy="434.09167"
       r="258.71689" />
    <g
       id="g2027"
       transform="translate(1201.6438,-365.62469)">
      <path
         inkscape:export-ydpi="200"
         inkscape:export-xdpi="200"
         style="stroke-width:0.077886"
         inkscape:connector-curvature="0"
         d="m 282.93675,932.34979 c -0.49561,-0.13692 -0.78587,-0.65016 -0.64895,-1.14578 0.13691,-0.49562 0.65017,-0.78586 1.14578,-0.64894 2.61401,0.72956 5.08572,1.7363 7.38515,2.97945 2.36244,1.276 4.55361,2.80722 6.54064,4.54596 0.38638,0.33893 0.42624,0.92826 0.0873,1.31464 -0.33893,0.38639 -0.92825,0.42624 -1.31464,0.0873 -1.87993,-1.6447 -3.95512,-3.09414 -6.19622,-4.3053 -2.18688,-1.18229 -4.53047,-2.13818 -6.99875,-2.82702 z m 16.92151,10.94843 c -0.33011,-0.39399 -0.27717,-0.98361 0.11713,-1.31368 0.39399,-0.33012 0.98362,-0.27718 1.3137,0.1171 l 1.23738,1.57081 c 0.30576,0.41285 0.21966,0.99788 -0.1932,1.30365 -0.41286,0.30578 -0.99787,0.21969 -1.30365,-0.19319 -0.38852,-0.5111 -0.76731,-0.98571 -1.17133,-1.48466 z m 4.01479,5.99752 c -0.23944,-0.45481 -0.0639,-1.01888 0.39064,-1.2583 0.45484,-0.23945 1.0189,-0.0639 1.25832,0.39063 0.49562,0.94377 0.94617,1.89973 1.35663,2.87999 0.4019,0.96594 0.75847,1.93741 1.07638,2.9332 0.15456,0.49014 -0.11592,1.0143 -0.60605,1.1689 -0.49013,0.1546 -1.01431,-0.11591 -1.16891,-0.60603 -0.29359,-0.92281 -0.63252,-1.84248 -1.02225,-2.77532 -0.40191,-0.95716 -0.82785,-1.86444 -1.28481,-2.73333 z m -1.06424,-13.25462 c -7.44146,-7.44145 -17.72296,-12.0443 -29.07951,-12.0443 -11.35578,0 -21.63751,4.60322 -29.07951,12.0443 -7.44201,7.44107 -12.0443,17.72296 -12.0443,29.07951 0,11.35655 4.60322,21.63752 12.0443,29.07954 7.44106,7.44193 17.72296,12.04423 29.07951,12.04423 11.35577,0 21.6375,-4.6032 29.07951,-12.04423 7.44146,-7.44149 12.04429,-17.72299 12.04429,-29.07954 0,-11.35655 -4.60321,-21.63749 -12.04429,-29.07951 z"
         id="path834" />
      <path
         inkscape:export-ydpi="200"
         inkscape:export-xdpi="200"
         style="stroke-width:0.077886"
         inkscape:connector-curvature="0"
         d="m 366.84056,779.74774 c -0.49561,-0.13691 -0.78587,-0.65016 -0.64895,-1.14578 0.13692,-0.49561 0.65017,-0.78587 1.14579,-0.64894 2.614,0.72957 5.08571,1.73631 7.38514,2.97945 2.36244,1.27601 4.55361,2.80724 6.54065,4.54597 0.38637,0.33893 0.42623,0.92825 0.0873,1.31463 -0.33894,0.38639 -0.92826,0.42625 -1.31465,0.0873 -1.87993,-1.64472 -3.95511,-3.09417 -6.19621,-4.3053 -2.18689,-1.18231 -4.53048,-2.1382 -6.99876,-2.82702 z m 16.92151,10.94844 c -0.33011,-0.394 -0.27717,-0.98362 0.11714,-1.3137 0.39398,-0.33011 0.98362,-0.27717 1.31369,0.11713 l 1.23738,1.5708 c 0.30576,0.41286 0.21967,0.99788 -0.1932,1.30366 -0.41286,0.30576 -0.99787,0.21966 -1.30365,-0.1932 -0.38851,-0.51112 -0.76731,-0.98572 -1.17133,-1.48466 z m 4.01479,5.99753 c -0.23944,-0.45484 -0.0639,-1.0189 0.39065,-1.25833 0.45484,-0.23943 1.0189,-0.0639 1.25831,0.39065 0.49562,0.94375 0.94618,1.89972 1.35664,2.88 0.40189,0.96593 0.75846,1.9374 1.07637,2.93319 0.15456,0.49013 -0.11591,1.0143 -0.60604,1.16891 -0.49013,0.15459 -1.01432,-0.11592 -1.16892,-0.60605 -0.29358,-0.9228 -0.63252,-1.84247 -1.02224,-2.77532 -0.40191,-0.95713 -0.82786,-1.86443 -1.28482,-2.73333 z m -1.06423,-13.25464 c -7.44147,-7.44146 -17.72296,-12.04429 -29.07951,-12.04429 -11.35579,0 -21.63752,4.60322 -29.07952,12.04429 -7.44201,7.44107 -12.04429,17.72296 -12.04429,29.07952 0,11.35657 4.60322,21.63751 12.04429,29.07952 7.44106,7.44201 17.72296,12.04428 29.07952,12.04428 11.35577,0 21.63749,-4.60321 29.07951,-12.04428 7.44145,-7.44147 12.04429,-17.72295 12.04429,-29.07952 0,-11.35656 -4.60322,-21.63751 -12.04429,-29.07952 z"
         id="path834-4" />
      <path
         inkscape:export-ydpi="200"
         inkscape:export-xdpi="200"
         style="stroke-width:0.077886"
         inkscape:connector-curvature="0"
         d="m 291.40342,601.54131 c -0.49561,-0.13691 -0.78587,-0.65016 -0.64894,-1.14578 0.13691,-0.49561 0.65017,-0.78587 1.14578,-0.64894 2.614,0.72957 5.08571,1.73631 7.38515,2.97945 2.36244,1.27601 4.55361,2.80724 6.54065,4.54597 0.38637,0.33893 0.42623,0.92825 0.0873,1.31463 -0.33895,0.38639 -0.92827,0.42625 -1.31466,0.0873 -1.87993,-1.64472 -3.95511,-3.09417 -6.19621,-4.3053 -2.18689,-1.18231 -4.53048,-2.1382 -6.99876,-2.82702 z m 16.92152,10.94844 c -0.33011,-0.394 -0.27718,-0.98362 0.11714,-1.3137 0.39398,-0.33011 0.98362,-0.27717 1.31369,0.11713 l 1.23738,1.5708 c 0.30576,0.41286 0.21967,0.99788 -0.19321,1.30366 -0.41285,0.30576 -0.99786,0.21966 -1.30365,-0.1932 -0.3885,-0.51112 -0.76731,-0.98572 -1.17132,-1.48466 z m 4.01479,5.99753 c -0.23944,-0.45484 -0.0639,-1.0189 0.39065,-1.25833 0.45484,-0.23943 1.0189,-0.0639 1.25831,0.39065 0.49561,0.94375 0.94618,1.89972 1.35663,2.88 0.4019,0.96593 0.75846,1.9374 1.07637,2.93319 0.15457,0.49013 -0.1159,1.0143 -0.60603,1.16891 -0.49013,0.15459 -1.01432,-0.11592 -1.16893,-0.60605 -0.29357,-0.9228 -0.63251,-1.84247 -1.02223,-2.77532 -0.40191,-0.95713 -0.82786,-1.86443 -1.28482,-2.73333 z m -1.06423,-13.25464 c -7.44147,-7.44146 -17.72297,-12.04429 -29.07952,-12.04429 -11.35578,0 -21.63752,4.60322 -29.07952,12.04429 -7.44201,7.44107 -12.0443,17.72296 -12.0443,29.07952 0,11.35657 4.60322,21.63751 12.0443,29.07952 7.44107,7.44202 17.72296,12.04428 29.07952,12.04428 11.35577,0 21.6375,-4.60321 29.07952,-12.04428 7.44144,-7.44147 12.04428,-17.72295 12.04428,-29.07952 0,-11.35656 -4.60321,-21.63751 -12.04428,-29.07952 z"
         id="path834-4-4" />
      <path
         inkscape:export-ydpi="200"
         inkscape:export-xdpi="200"
         sodipodi:nodetypes="ccc"
         inkscape:connector-curvature="0"
         id="path1157-4"
         d="m 282.9185,679.76091 c -3.42293,26.43605 10.70105,42.36015 39.49007,46.01823 35.99092,9.81423 35.62701,22.83725 35.37451,51.22315"
         style="fill:none;stroke:#000000;stroke-width:5.80038261;stroke-linecap:butt;stroke-linejoin:miter;stroke-miterlimit:4;stroke-dasharray:5.80038244, 5.80038244;stroke-dashoffset:0;stroke-opacity:1" />
      <path
         inkscape:export-ydpi="200"
         inkscape:export-xdpi="200"
         sodipodi:nodetypes="ccc"
         inkscape:connector-curvature="0"
         id="path1157-4-7"
         d="m 282.91849,949.99544 c -3.42292,-26.43603 10.70106,-42.36017 39.49008,-46.01824 35.99092,-9.81425 35.62701,-22.83728 35.37451,-51.22316"
         style="fill:none;stroke:#000000;stroke-width:5.80038261;stroke-linecap:butt;stroke-linejoin:miter;stroke-miterlimit:4;stroke-dasharray:5.8003825, 5.8003825;stroke-dashoffset:0;stroke-opacity:1" />
      <path
         inkscape:export-ydpi="200"
         inkscape:export-xdpi="200"
         inkscape:transform-center-y="-3.2464039"
         inkscape:transform-center-x="2.5184238e-06"
         d="m 294.16437,693.4186 -22.49177,0 11.24589,-19.47845 z"
         inkscape:randomized="0"
         inkscape:rounded="0"
         inkscape:flatsided="true"
         sodipodi:arg2="1.5707963"
         sodipodi:arg1="0.52359878"
         sodipodi:r2="6.492816"
         sodipodi:r1="12.985631"
         sodipodi:cy="686.92578"
         sodipodi:cx="282.91849"
         sodipodi:sides="3"
         id="path1191"
         style="fill:#000000;fill-opacity:1;stroke:none;stroke-width:5.46500015;stroke-linecap:round;stroke-linejoin:round;stroke-miterlimit:4;stroke-dasharray:5.46500012, 5.46500012;stroke-dashoffset:0;stroke-opacity:1"
         sodipodi:type="star" />
      <path
         inkscape:export-ydpi="200"
         inkscape:export-xdpi="200"
         inkscape:transform-center-y="-3.2464039"
         inkscape:transform-center-x="2.5184238e-06"
         d="m 369.02897,872.76168 -22.49178,0 11.24589,-19.47845 z"
         inkscape:randomized="0"
         inkscape:rounded="0"
         inkscape:flatsided="true"
         sodipodi:arg2="1.5707963"
         sodipodi:arg1="0.52359878"
         sodipodi:r2="6.492816"
         sodipodi:r1="12.985631"
         sodipodi:cy="866.26886"
         sodipodi:cx="357.78308"
         sodipodi:sides="3"
         id="path1191-6"
         style="fill:#000000;fill-opacity:1;stroke:none;stroke-width:5.46500015;stroke-linecap:round;stroke-linejoin:round;stroke-miterlimit:4;stroke-dasharray:5.46500018, 5.46500018;stroke-dashoffset:0;stroke-opacity:1"
         sodipodi:type="star" />
    </g>
  </g>
</svg>
