<?xml version="1.0" encoding="UTF-8" standalone="no"?>
<!-- Created with Inkscape (http://www.inkscape.org/) -->

<svg
   xmlns:dc="http://purl.org/dc/elements/1.1/"
   xmlns:cc="http://creativecommons.org/ns#"
   xmlns:rdf="http://www.w3.org/1999/02/22-rdf-syntax-ns#"
   xmlns:svg="http://www.w3.org/2000/svg"
   xmlns="http://www.w3.org/2000/svg"
   xmlns:sodipodi="http://sodipodi.sourceforge.net/DTD/sodipodi-0.dtd"
   xmlns:inkscape="http://www.inkscape.org/namespaces/inkscape"
   width="1029.0861mm"
   height="573.646mm"
   viewBox="0 0 1029.0861 573.64599"
   version="1.1"
   id="svg8"
   inkscape:version="0.92.5 (2060ec1f9f, 2020-04-08)"
   sodipodi:docname="logo.svg"
   inkscape:export-filename="/home/catherine/Pictures/misc_logos/under_construction.png"
   inkscape:export-xdpi="200"
   inkscape:export-ydpi="200">
  <defs
     id="defs2" />
  <sodipodi:namedview
     id="base"
     pagecolor="#ffffff"
     bordercolor="#666666"
     borderopacity="1.0"
     inkscape:pageopacity="0.0"
     inkscape:pageshadow="2"
     inkscape:zoom="0.076103124"
     inkscape:cx="4377.8346"
     inkscape:cy="2983.2419"
     inkscape:document-units="mm"
     inkscape:current-layer="layer1"
     showgrid="false"
     fit-margin-top="0"
     fit-margin-left="0"
     fit-margin-right="0"
     fit-margin-bottom="0"
     inkscape:window-width="1880"
     inkscape:window-height="1136"
     inkscape:window-x="40"
     inkscape:window-y="27"
     inkscape:window-maximized="1" />
  <metadata
     id="metadata5">
    <rdf:RDF>
      <cc:Work
         rdf:about="">
        <dc:format>image/svg+xml</dc:format>
        <dc:type
           rdf:resource="http://purl.org/dc/dcmitype/StillImage" />
        <dc:title />
      </cc:Work>
    </rdf:RDF>
  </metadata>
  <g
     inkscape:label="Layer 1"
     inkscape:groupmode="layer"
     id="layer1"
     transform="translate(2952.5608,-952.97504)">
    <g
       id="g1751"
       style="fill:#ffffff">
      <rect
         y="952.97504"
         x="-2952.5608"
         height="573.646"
         width="1029.0861"
         id="rect948"
         style="fill:#ffffff;fill-opacity:1;stroke:none;stroke-width:5.69999981;stroke-linecap:round;stroke-linejoin:round;stroke-miterlimit:4;stroke-dasharray:none;stroke-dashoffset:0;stroke-opacity:1" />
    </g>
    <g
       transform="matrix(1.5565078,0,0,1.5565078,845.18606,897.28688)"
       id="g1724">
      <path
         sodipodi:nodetypes="cccccccccccccccccccccccc"
         style="fill:#000000;fill-rule:evenodd;stroke-width:0.35277778"
         inkscape:connector-curvature="0"
         d="m -1952.1998,291.89572 h -325.8926 v 21.53037 c 0.01,1.39319 0.565,2.72717 1.5503,3.71229 0.9853,0.98531 2.3192,1.54202 3.7123,1.5503 h 315.3833 c 1.3904,-0.0124 2.7202,-0.57189 3.7013,-1.55583 0.9812,-0.9853 1.5366,-2.31648 1.5435,-3.70699 z m -191.5866,36.92878 v 37.3874 h 57.2982 v -37.3874 z m 157.48,47.52269 h -257.6689 c -2.4666,0.0138 -4.8274,0.99906 -6.5718,2.74367 -1.7433,1.74321 -2.7286,4.10387 -2.7423,6.57048 v 9.31264 h 276.3202 v -9.31264 c -0.014,-2.46668 -0.999,-4.8274 -2.7423,-6.57048 -1.7446,-1.74461 -4.1052,-2.72992 -6.5719,-2.74367 z"
         id="path1070" />
      <path
         sodipodi:nodetypes="ccccccccccccscsccccccccsscsscssccccccccccccsscsscsscccccccccccsscsscssccccccccccccccccccccsscsscsscccccscsscscccccccccccccccccascac"
         style="fill:#b3b3b3;fill-opacity:1;fill-rule:evenodd;stroke-width:0.35277778"
         inkscape:connector-curvature="0"
         d="m -2124.9195,132.85715 c -13.4634,11.95035 -28.9443,21.41044 -45.72,27.93965 -22.2676,8.38799 -45.8858,12.61886 -69.6806,12.48516 -1.3381,0.01 -2.6266,-0.51263 -3.58,-1.45109 -0.9522,-0.93983 -1.4938,-2.21865 -1.5048,-3.55811 -0.021,-2.78638 2.2214,-5.06307 5.0091,-5.08353 22.5612,0.13367 44.9544,-3.87103 66.0717,-11.81523 15.2961,-5.94889 29.4432,-14.50799 41.8148,-25.29382 h -5.2462 c -1.7253,-0.12264 -3.2701,-1.11343 -4.0982,-2.63204 -0.8296,-1.51722 -0.8296,-3.35276 0,-4.8715 0.8282,-1.51723 2.373,-2.50942 4.0982,-2.63205 h 17.9158 c 1.3478,0 2.639,0.53605 3.5927,1.4883 0.9522,0.9536 1.4869,2.24484 1.4869,3.59269 v 17.5768 c -0.1213,1.7253 -1.1134,3.27008 -2.6307,4.09822 -1.5186,0.82959 -3.3541,0.82959 -4.8715,0 -1.5186,-0.82821 -2.5094,-2.37299 -2.632,-4.09822 v -5.74498 z m -24.977,37.58847 c -1.3477,0 -2.6403,0.53605 -3.5927,1.4883 -0.9522,0.95222 -1.4883,2.24483 -1.4883,3.59269 v 79.54081 c 0,1.34634 0.5361,2.63895 1.4883,3.59127 0.9523,0.9536 2.2449,1.4883 3.5927,1.4883 h 21.1074 c 1.3464,0 2.639,-0.53467 3.5913,-1.4883 0.9536,-0.95221 1.4883,-2.24483 1.4883,-3.59127 v -79.55139 c 0,-1.34772 -0.5347,-2.64033 -1.4883,-3.59269 -0.9522,-0.95222 -2.2448,-1.4883 -3.5913,-1.4883 z m 16.0405,10.13425 v 69.42667 l -10.9859,0.001 v -69.42672 z m -59.6054,-1.75288 h 21.1074 v 0.001 c 1.3478,0 2.639,0.53467 3.5927,1.48828 0.9523,0.95222 1.4869,2.24484 1.4869,3.59128 v 71.15882 c 0,1.34634 -0.5346,2.63894 -1.4869,3.59128 -0.9536,0.95359 -2.2448,1.48828 -3.5927,1.48828 h -21.1197 c -1.3477,0 -2.6403,-0.53467 -3.5927,-1.48828 -0.9522,-0.95222 -1.4883,-2.24484 -1.4883,-3.59128 v -71.17298 c 0,-1.34772 0.5361,-2.63895 1.4883,-3.59269 0.9522,-0.95222 2.2448,-1.48689 3.5927,-1.48689 z m 16.0486,10.1353 h -11.0063 v 61.0482 h 11.0063 z m -59.6053,1.01974 21.0827,0.001 c 1.3463,0 2.6389,0.53467 3.5913,1.48688 0.9536,0.95359 1.4883,2.24484 1.4883,3.59269 v 60.00398 c 0,1.34634 -0.5347,2.63895 -1.4883,3.59127 -0.9523,0.95359 -2.2449,1.4883 -3.5913,1.4883 h -21.1032 c -1.3477,0 -2.6403,-0.53467 -3.5927,-1.4883 -0.9522,-0.95221 -1.4883,-2.24482 -1.4883,-3.59127 V 195.0519 c 0,-1.34771 0.5361,-2.63895 1.4883,-3.59269 0.9522,-0.95221 2.2449,-1.48829 3.5927,-1.48829 z m 16.0016,10.13531 h -10.9513 v 49.89336 h 10.9513 z m 192.1934,-67.13361 c 25.0818,0 50.6236,-10.27042 76.6233,-30.81021 v 184.76737 h -325.8926 V 88.341109 c 0.01,-1.39319 0.565,-2.72715 1.5503,-3.71228 0.9853,-0.98531 2.3192,-1.54203 3.7123,-1.54891 h 151.6239 c 29.6333,33.271181 60.4378,49.903951 92.4101,49.903951 z m -63.2178,23.9783 c -1.3477,0 -2.6403,0.53467 -3.5927,1.4883 -0.9522,0.95222 -1.4883,2.24483 -1.4883,3.59128 v 93.02397 c 0,1.34634 0.536,2.63896 1.4883,3.59128 0.9522,0.95359 2.2448,1.4883 3.5927,1.4883 h 93.0522 c 1.3477,0 2.6403,-0.53467 3.5927,-1.4883 0.9522,-0.95222 1.4883,-2.24483 1.4883,-3.59128 V 162.0275 c 0,-1.34634 -0.5361,-2.63896 -1.4883,-3.59128 -0.9523,-0.95359 -2.2449,-1.4883 -3.5927,-1.4883 z m 87.9863,10.13425 h -26.9999 v 21.69583 c 0,1.34772 -0.5346,2.64033 -1.4883,3.59269 -0.9522,0.95222 -2.2448,1.4883 -3.5912,1.4883 h -18.7717 c -1.3463,0 -2.6389,-0.53605 -3.5913,-1.4883 -0.9536,-0.95222 -1.4883,-2.24483 -1.4883,-3.59269 v -21.69583 h -26.9875 v 82.91689 h 82.9169 z m -37.1369,0 h -8.6473 v 16.62889 h 8.6487 v -16.62889 z m -8.2282,62.45225 h -21.1212 c -1.7253,0.12127 -3.2687,1.11344 -4.0982,2.63066 -0.8296,1.51861 -0.8296,3.35414 0,4.87151 0.8296,1.5186 2.373,2.50942 4.0982,2.63204 h 21.1212 c 1.4056,0.0992 2.7905,-0.38999 3.8213,-1.35047 1.0308,-0.96051 1.6178,-2.30685 1.6178,-3.71651 0,-1.40967 -0.5871,-2.75608 -1.6178,-3.71651 -1.0308,-0.96189 -2.4157,-1.45109 -3.8213,-1.35047 z"
         id="path1070-9" />
      <path
         sodipodi:nodetypes="cccsccccccccccccccccccccccc"
         style="fill:#7886ab;fill-opacity:1;fill-rule:evenodd;stroke-width:0.35277778"
         inkscape:connector-curvature="0"
         d="m -2112.2101,83.609089 c 27.0937,29.788911 54.8429,44.686371 83.2521,44.689891 28.4081,0.006 57.8661,-14.8276 88.3708,-44.499391 -30.9411,-25.18374 -61.3833,-38.6715 -90.6604,-38.6715 -27.9065,0 -55.065,12.30595 -80.9625,38.481 z m 86.1201,-31.9786 c 10.9115,-0.003 21.2027,5.06977 27.8462,13.72518 6.6449,8.6554 8.8844,19.90725 6.0621,30.44789 -2.8222,10.539241 -10.3861,19.165711 -20.4667,23.342601 -10.0803,4.17689 -21.529,3.42717 -30.9781,-2.02709 -9.4492,-5.45571 -15.8239,-14.99588 -17.2491,-25.812051 -1.4249,-10.81758 2.2641,-21.68348 9.9783,-29.39768 6.5733,-6.5913 15.5004,-10.28982 24.8073,-10.27888 z m 0,18.25908 h 0.6009 v -10e-4 c -0.9895,2.63621 -0.7511,5.57565 0.6476,8.01863 1.4001,2.44191 3.8171,4.1328 6.5913,4.61222 2.774,0.4782 5.617,-0.30454 7.7555,-2.13596 1.8162,4.48417 1.6164,9.53312 -0.5512,13.85888 -2.1677,4.32575 -6.0925,7.508871 -10.7721,8.738311 -4.6799,1.22783 -9.6629,0.3817 -13.6758,-2.32061 -4.0114,-2.703721 -6.6668,-7.003351 -7.2855,-11.802901 -0.6201,-4.79848 0.8557,-9.63118 4.0513,-13.26515 3.1943,-3.63254 7.7981,-5.71605 12.6365,-5.71605 z"
         id="path1070-9-7" />
    </g>
  </g>
</svg>
