<?xml version="1.0" encoding="UTF-8" standalone="no"?>
<!-- Created with Inkscape (http://www.inkscape.org/) -->

<svg
   xmlns:dc="http://purl.org/dc/elements/1.1/"
   xmlns:cc="http://creativecommons.org/ns#"
   xmlns:rdf="http://www.w3.org/1999/02/22-rdf-syntax-ns#"
   xmlns:svg="http://www.w3.org/2000/svg"
   xmlns="http://www.w3.org/2000/svg"
   xmlns:sodipodi="http://sodipodi.sourceforge.net/DTD/sodipodi-0.dtd"
   xmlns:inkscape="http://www.inkscape.org/namespaces/inkscape"
   width="1029.0861mm"
   height="573.646mm"
   viewBox="0 0 1029.0861 573.64599"
   version="1.1"
   id="svg8"
   inkscape:version="0.92.5 (2060ec1f9f, 2020-04-08)"
   sodipodi:docname="logo.svg"
   inkscape:export-filename="/home/catherine/Pictures/misc_logos/under_construction.png"
   inkscape:export-xdpi="200"
   inkscape:export-ydpi="200">
  <defs
     id="defs2" />
  <sodipodi:namedview
     id="base"
     pagecolor="#ffffff"
     bordercolor="#666666"
     borderopacity="1.0"
     inkscape:pageopacity="0.0"
     inkscape:pageshadow="2"
     inkscape:zoom="0.2512487"
     inkscape:cx="1930.1419"
     inkscape:cy="1449.4988"
     inkscape:document-units="mm"
     inkscape:current-layer="layer1"
     showgrid="false"
     fit-margin-top="0"
     fit-margin-left="0"
     fit-margin-right="0"
     fit-margin-bottom="0"
     inkscape:window-width="1880"
     inkscape:window-height="1136"
     inkscape:window-x="40"
     inkscape:window-y="27"
     inkscape:window-maximized="1" />
  <metadata
     id="metadata5">
    <rdf:RDF>
      <cc:Work
         rdf:about="">
        <dc:format>image/svg+xml</dc:format>
        <dc:type
           rdf:resource="http://purl.org/dc/dcmitype/StillImage" />
        <dc:title />
      </cc:Work>
    </rdf:RDF>
  </metadata>
  <g
     inkscape:label="Layer 1"
     inkscape:groupmode="layer"
     id="layer1"
     transform="translate(2952.5608,-952.97504)">
    <g
       id="g1751"
       style="fill:#ffffff">
      <rect
         y="952.97504"
         x="-2952.5608"
         height="573.646"
         width="1029.0861"
         id="rect948"
         style="fill:#ffffff;fill-opacity:1;stroke:none;stroke-width:5.69999981;stroke-linecap:round;stroke-linejoin:round;stroke-miterlimit:4;stroke-dasharray:none;stroke-dashoffset:0;stroke-opacity:1" />
    </g>
    <g
       id="g1443"
       transform="matrix(1.5296057,0,0,1.5296057,2374.0649,-265.73907)">
      <path
         sodipodi:nodetypes="ccccccccccccccccccccccsccccccccccsccccccsccsscsscscccccccccscsssccsssssssssssssssssssssssssssssssssssssssssssssssssssssssssssssssssssss"
         style="fill:#b3b3b3;fill-opacity:1;fill-rule:evenodd;stroke-width:0.35277778"
         inkscape:connector-curvature="0"
         d="m -3238.915,1069.0094 c 1.5545,-1.7859 4.2665,-1.9678 6.0523,-0.3968 1.7859,1.5544 1.9678,4.2665 0.3969,6.0522 l -4.9608,5.6886 4.9608,5.6885 c 1.5544,1.7859 1.3725,4.4979 -0.3969,6.0523 -1.7859,1.5544 -4.4979,1.3725 -6.0523,-0.3969 l -4.2001,-4.8451 -4.2002,4.8123 c -1.5544,1.7859 -4.2665,1.9678 -6.0523,0.3968 -1.7859,-1.5544 -1.9678,-4.2664 -0.3968,-6.0522 l 4.9607,-5.6885 -4.9607,-5.6886 c -1.5544,-1.7859 -1.3725,-4.4979 0.3968,-6.0522 1.786,-1.5545 4.498,-1.3726 6.0523,0.3968 l 4.2002,4.8123 z m -16.057,-135.65104 c -1.7032,-1.6371 -1.7529,-4.3656 -0.1157,-6.0688 1.6371,-1.7033 4.349,-1.7529 6.0688,-0.1158 l 3.9356,3.7868 7.524,-9.0784 c 1.5048,-1.8356 4.2168,-2.0836 6.0523,-0.5788 1.8355,1.5048 2.0836,4.2168 0.5787,6.0523 l -10.5007,12.6336 c -0.066,0.083 -0.1323,0.1654 -0.215,0.2481 -1.6371,1.7032 -4.3656,1.7529 -6.0688,0.1157 z m 0,74.69764 c -1.7032,-1.6372 -1.7529,-4.3493 -0.1157,-6.0692 1.6371,-1.7033 4.349,-1.7529 6.0688,-0.1158 l 3.9356,3.787 7.524,-9.07874 c 1.5048,-1.8355 4.2168,-2.0835 6.0523,-0.5787 1.8355,1.5048 2.0836,4.21674 0.5787,6.05224 l -10.4842,12.6345 c -0.066,0.083 -0.1322,0.1654 -0.2149,0.248 -1.6371,1.7034 -4.3657,1.753 -6.0689,0.1158 z m 14.2215,-140.18163 h -45.212 c -0.1819,0 -0.3638,0.0827 -0.4796,0.19843 v -0.0165 c -0.1157,0.11575 -0.1984,0.29765 -0.1984,0.47956 v 265.31094 c 0,0.1819 0.083,0.3638 0.1984,0.4796 0.1158,0.1157 0.2977,0.1984 0.4796,0.1984 h 202.9495 c 0.1819,0 0.3473,-0.083 0.4796,-0.1984 0.1158,-0.1158 0.1984,-0.2977 0.1984,-0.4796 v -49.8263 c -3.2246,1.1741 -6.8626,0.9922 -10.1205,-0.5292 -4.779,-2.2324 -7.8383,-6.9455 -7.6729,-12.2534 l 1.786,-54.617 4.531,-9.7239 4.6137,-9.88904 6.846,-14.6512 0.033,-113.80608 c 0,-0.1819 -0.083,-0.36379 -0.1985,-0.47957 -0.1157,-0.11578 -0.2976,-0.19843 -0.4796,-0.19843 h -45.1943 v 8.78099 c 0,2.38125 -1.9182,4.29965 -4.2997,4.29965 h -103.9671 c -2.3813,0 -4.2997,-1.91823 -4.2997,-4.29965 z m -16.8342,190.88193 c -3.919,0 -7.1106,3.1916 -7.1106,7.1106 v 28.9221 c 0,3.919 3.1916,7.1106 7.1106,7.1106 h 28.9221 c 3.919,0 7.1106,-3.1915 7.1106,-7.1106 v -28.9221 c 0,-3.919 -3.1915,-7.1106 -7.1106,-7.1106 z m 0,-149.39174 c -3.919,0 -7.1106,3.1915 -7.1106,7.1106 v 28.9221 c 0,3.919 3.1916,7.1106 7.1106,7.1106 h 28.9221 c 3.919,0 7.1106,-3.1915 7.1106,-7.1106 v -28.9221 c 0,-3.919 -3.1915,-7.1106 -7.1106,-7.1106 z m 0,74.6972 c -3.919,0 -7.1106,3.1915 -7.1106,7.1106 v 28.92304 c 0,3.919 3.1916,7.1106 7.1106,7.1106 h 28.9221 c 3.919,0 7.1106,-3.1916 7.1106,-7.1106 v -28.92304 c 0,-3.9191 -3.1915,-7.1106 -7.1106,-7.1106 z m 60.8189,36.16764 c -2.3813,0 -4.2997,-1.9182 -4.2997,-4.2996 0,-2.3816 1.9348,-4.3 4.2997,-4.3 h 81.1777 c 2.3812,0 4.2996,1.9184 4.2996,4.3 0,2.3814 -1.9347,4.2996 -4.2996,4.2996 z m 0,-95.26854 c -2.3813,0 -4.2997,-1.9348 -4.2997,-4.2997 0,-2.3812 1.9348,-4.2996 4.2997,-4.2996 h 53.7245 c 2.3813,0 4.2997,1.9182 4.2997,4.2996 0,2.3815 -1.9183,4.2997 -4.2997,4.2997 z m 0,20.5712 c -2.3813,0 -4.2997,-1.9182 -4.2997,-4.2997 0,-2.3814 1.9348,-4.2996 4.2997,-4.2996 h 92.5195 c 2.3812,0 4.2996,1.9347 4.2996,4.2996 0,2.3813 -1.9347,4.2997 -4.2996,4.2997 z m 0,128.82124 c -2.3813,0 -4.2997,-1.9182 -4.2997,-4.2996 0,-2.3815 1.9348,-4.2997 4.2997,-4.2997 h 53.7245 c 2.3813,0 4.2997,1.9182 4.2997,4.2997 0,2.3814 -1.9183,4.2996 -4.2997,4.2996 z m 0,20.5712 c -2.3813,0 -4.2997,-1.9348 -4.2997,-4.2997 0,-2.3812 1.9348,-4.2996 4.2997,-4.2996 h 92.5195 c 2.3812,0 4.2996,1.9182 4.2996,4.2996 0,2.3815 -1.9347,4.2997 -4.2996,4.2997 z m 0,-95.26857 c -2.3813,0 -4.2997,-1.93477 -4.2997,-4.29967 0,-2.3813 1.9348,-4.2997 4.2997,-4.2997 h 53.7245 c 2.3813,0 4.2997,1.9348 4.2997,4.2997 0,2.3812 -1.9183,4.29967 -4.2997,4.29967 z"
         id="path1399" />
      <path
         sodipodi:nodetypes="ccccccccccccccccccccccccccccccccccccccccccccccccccc"
         style="fill:#7886ab;fill-opacity:1;fill-rule:evenodd;stroke-width:0.35277778"
         inkscape:connector-curvature="0"
         d="m -3006.3577,898.17156 -65.285,139.83044 z m -24.1928,-11.2946 48.3694,22.5887 z m 6.2837,-13.444 48.3694,22.5887 z m -47.3766,164.56934 27.5664,4.0513 -24.226,21.6793 c -2.8773,-4.0351 -6.6971,-7.1604 -11.0462,-9.1941 -4.3656,-2.034 -9.2272,-2.9766 -14.1552,-2.5797 l 1.0584,-32.4774 z m 30.6253,-2.5135 56.4903,-120.98154 -20.3066,-9.4753 -59.3337,127.06694 z m 10.4676,-148.61114 1.2568,-2.7119 48.3694,22.5886 1.0252,-2.1827 4.0019,-8.5658 -1.819,3.8862 -48.3693,-22.5888 -2.6955,5.7711 -3.1088,6.6644 z m -2.3647,5.0603 -56.4726,120.98154 17.4625,15.5606 59.3337,-127.04924 z m 10.4676,-22.3905 3.0097,-6.46568 c 6.35,-13.59288 22.4232,-19.64549 35.7364,-13.44401 13.2954,6.21771 18.9836,22.42329 12.6336,36.01509 l -3.0096,6.4657 z m -52.3028,199.94024 -0.033,-0.05 c -2.0505,-3.175 -4.9279,-5.6225 -8.202,-7.1603 -3.2742,-1.5214 -6.9949,-2.1498 -10.7488,-1.6867 h -0.066 l -0.3968,12.0385 c -0.083,2.5301 1.389,4.68 3.6875,5.7545 2.2821,1.0749 4.8948,0.8103 6.7801,-0.8764 z"
         id="path1399-3" />
      <path
         sodipodi:nodetypes="cccsccscscccccscssccccccssccsscccsscccsccccccccccscscccscsccssscsccsccc"
         style="fill:#000000;fill-rule:evenodd;stroke-width:0.35277778"
         inkscape:connector-curvature="0"
         d="m -3184.4796,826.97644 c 2.1167,0 4.0351,0.8599 5.424,2.24896 l 0.016,0.0165 c 1.3891,1.38906 2.249,3.30729 2.249,5.42396 0,2.11666 -0.8599,4.03507 -2.249,5.42395 l -0.016,0.0165 c -1.3891,1.38906 -3.3073,2.24896 -5.424,2.24896 -2.1166,0 -4.0513,-0.8599 -5.4405,-2.24896 -1.3893,-1.38906 -2.249,-3.32384 -2.249,-5.44054 0,-2.1167 0.8599,-4.0513 2.249,-5.44054 0.1157,-0.11575 0.248,-0.23151 0.3638,-0.33073 1.356,-1.19062 3.1254,-1.91823 5.0768,-1.91823 z m -56.2903,25.07051 h -61.2528 c -0.1819,0 -0.3473,0.0827 -0.4796,0.19844 -0.1157,0.11575 -0.1984,0.29765 -0.1984,0.47956 v 297.87135 c 0,0.1323 0.017,0.2315 0.033,0.2812 0.016,0.05 0.083,0.1157 0.1488,0.1984 0.083,0.083 0.1654,0.1488 0.215,0.1654 0.066,0.033 0.1653,0.05 0.2811,0.05 l 235.0629,-0.43 c 0.1323,0 0.2646,-0.05 0.3803,-0.1323 l 0.099,-0.099 c 0.1158,-0.1158 0.1985,-0.2977 0.1985,-0.4796 v -78.9763 l -7.4581,6.6643 v 56.2751 c 0,2.5631 -1.0418,4.8782 -2.7285,6.5648 -1.6868,1.6867 -4.0019,2.7286 -6.5649,2.7286 l -202.9389,-0.017 c -2.5632,0 -4.8782,-1.0418 -6.5649,-2.7285 -1.6866,-1.6867 -2.7285,-4.0019 -2.7285,-6.5648 V 868.78633 c 0,-2.5466 1.0418,-4.86159 2.7285,-6.54822 l 0.017,-0.0165 -0.017,-0.0165 c 1.6867,-1.6867 4.002,-2.72852 6.5649,-2.72852 h 45.212 z m 174.4945,96.20948 v -95.52862 h 0.017 c 0,-0.16536 -0.083,-0.34727 -0.215,-0.47957 v -0.0165 c -0.1157,-0.11576 -0.2976,-0.19844 -0.4795,-0.19844 l -61.2528,0.0165 v 7.45807 h 45.212 c 2.5631,0 4.8782,1.04179 6.5648,2.72853 1.6866,1.68673 2.7285,4.00193 2.7285,6.56483 v 95.4334 z m -96.4943,-109.28907 c -2.3812,0 -4.2996,-1.91823 -4.2996,-4.29966 0,-4.81224 -1.9513,-9.16128 -5.0934,-12.3197 -3.1585,-3.15846 -7.5075,-5.10963 -12.3197,-5.10963 -4.7128,0 -8.9959,1.86862 -12.1377,4.89479 l -0.1819,0.19843 c -3.1419,3.14191 -5.0934,7.50747 -5.0934,12.31971 0,2.38125 -1.9182,4.29966 -4.2997,4.29966 h -13.6592 c -3.3734,0 -6.4491,1.38906 -8.6815,3.62161 -2.2324,2.23242 -3.6216,5.30825 -3.6216,8.68151 v 21.31555 h 95.3488 v -21.31555 c 0,-3.37344 -1.3891,-6.44913 -3.6216,-8.68151 -2.2325,-2.23241 -5.3083,-3.62161 -8.6815,-3.62161 z"
         id="path1399-3-6" />
    </g>
  </g>
</svg>
