<?xml version="1.0" encoding="UTF-8" standalone="no"?>
<!-- Created with Inkscape (http://www.inkscape.org/) -->

<svg
   xmlns:dc="http://purl.org/dc/elements/1.1/"
   xmlns:cc="http://creativecommons.org/ns#"
   xmlns:rdf="http://www.w3.org/1999/02/22-rdf-syntax-ns#"
   xmlns:svg="http://www.w3.org/2000/svg"
   xmlns="http://www.w3.org/2000/svg"
   xmlns:sodipodi="http://sodipodi.sourceforge.net/DTD/sodipodi-0.dtd"
   xmlns:inkscape="http://www.inkscape.org/namespaces/inkscape"
   width="1029.0861mm"
   height="573.646mm"
   viewBox="0 0 1029.0861 573.64598"
   version="1.1"
   id="svg8"
   inkscape:version="0.92.5 (2060ec1f9f, 2020-04-08)"
   sodipodi:docname="logo.svg"
   inkscape:export-filename="/home/catherine/Pictures/misc_logos/under_construction.png"
   inkscape:export-xdpi="200"
   inkscape:export-ydpi="200">
  <defs
     id="defs2" />
  <sodipodi:namedview
     id="base"
     pagecolor="#ffffff"
     bordercolor="#666666"
     borderopacity="1.0"
     inkscape:pageopacity="0.0"
     inkscape:pageshadow="2"
     inkscape:zoom="0.15220625"
     inkscape:cx="2278.1834"
     inkscape:cy="1744.1682"
     inkscape:document-units="mm"
     inkscape:current-layer="layer1"
     showgrid="false"
     fit-margin-top="0"
     fit-margin-left="0"
     fit-margin-right="0"
     fit-margin-bottom="0"
     inkscape:window-width="1880"
     inkscape:window-height="1136"
     inkscape:window-x="40"
     inkscape:window-y="27"
     inkscape:window-maximized="1" />
  <metadata
     id="metadata5">
    <rdf:RDF>
      <cc:Work
         rdf:about="">
        <dc:format>image/svg+xml</dc:format>
        <dc:type
           rdf:resource="http://purl.org/dc/dcmitype/StillImage" />
        <dc:title></dc:title>
      </cc:Work>
    </rdf:RDF>
  </metadata>
  <g
     inkscape:label="Layer 1"
     inkscape:groupmode="layer"
     id="layer1"
     transform="translate(1107.6019,10.489205)">
    <rect
       style="fill:none;fill-opacity:1;stroke:none;stroke-width:5.69999981;stroke-linecap:round;stroke-linejoin:round;stroke-miterlimit:4;stroke-dasharray:none;stroke-dashoffset:0;stroke-opacity:1"
       id="rect906"
       width="1029.0861"
       height="573.646"
       x="-445.30164"
       y="-744.06073" />
    <rect
       style="fill:none;fill-opacity:1;stroke:none;stroke-width:5.69999981;stroke-linecap:round;stroke-linejoin:round;stroke-miterlimit:4;stroke-dasharray:none;stroke-dashoffset:0;stroke-opacity:1"
       id="rect948"
       width="1029.0861"
       height="573.646"
       x="-1107.6019"
       y="-10.489205" />
    <g
       id="g1049"
       transform="matrix(1.1774747,0,0,1.1774747,-750.32171,698.35579)">
      <path
         id="path996"
         d="m 169.11116,-374.95761 107.95,-111.33667 17.7793,16.93333 c 3.81035,3.81036 9.73737,5.0793 14.81666,2.96277 5.0793,-1.69361 8.46667,-6.35 9.31263,-11.85404 l 9.31263,-79.58666 c 0.42305,-4.23334 -0.8461,-8.88965 -4.23333,-11.85404 -3.38724,-2.96277 -7.62071,-4.65632 -11.85404,-3.81035 l -80.00648,12.27984 c -5.50404,0.8461 -9.73737,4.65631 -11.42929,9.73737 -1.69362,5.07929 -0.42305,11.00631 3.81035,14.39369 l 17.7793,16.93333 -91.44,94.40333 -52.07,-50.8 c -4.233334,-4.23333 -9.737373,-6.35 -15.662628,-6.77298 -6.772981,-0.42305 -13.970706,2.11667 -19.05,7.19596 l -118.956668,122.76667 c -8.891058,10.16035 -8.468078,25.40141 0.844727,34.71404 2.539718,2.53972 5.504039,4.23333 8.889647,5.50404 1.270564,0.42305 2.962769,0.8461 4.656314,1.27056 1.270564,0 2.539718,0.42305 3.810353,0.42305 6.35,0 12.277019,-2.53971 16.933333,-7.19596 l 102.023334,-105.83333 52.069998,50.37667 c 9.73596,9.31262 25.39859,8.88964 34.71263,-0.84748 z"
         inkscape:connector-curvature="0"
         style="fill:#b3b3b3;fill-opacity:1;stroke:#b3b3b3;stroke-width:0.35277778;stroke-opacity:1" />
      <g
         transform="translate(-12.519188)"
         id="g1041">
        <path
           style="fill:#7886ab;fill-opacity:1;stroke-width:0.35277778"
           inkscape:connector-curvature="0"
           d="M 42.574054,-264.46761 H -28.96928 c -7.620706,0 -13.545961,5.92702 -13.545961,13.54596 v 63.5 c 0,7.62071 5.927019,13.54596 13.545961,13.54596 h 71.543334 c 7.620705,0 13.545961,-5.92702 13.545961,-13.54596 v -63.5 c 0,-7.19596 -5.925608,-13.54596 -13.545961,-13.54596 z"
           id="path998" />
        <path
           style="fill:#7886ab;fill-opacity:1;stroke-width:0.35277778"
           inkscape:connector-curvature="0"
           d="m 181.85072,-321.19428 h -71.54333 c -7.62071,0 -13.545964,5.92702 -13.545964,13.54596 v 120.22667 c 0,7.62071 5.927024,13.54596 13.545964,13.54596 h 71.54333 c 7.62071,0 13.54596,-5.92702 13.54596,-13.54596 v -120.65 c 0,-7.19596 -5.92702,-13.12298 -13.54596,-13.12298 z"
           id="path1000" />
        <path
           style="fill:#7886ab;fill-opacity:1;stroke-width:0.35277778"
           inkscape:connector-curvature="0"
           d="m 321.12739,-378.34428 h -71.54333 c -7.62071,0 -13.54597,5.92702 -13.54597,13.54596 l -0.001,177.37667 c 0,7.62071 5.92702,13.54596 13.54596,13.54596 h 71.54334 c 7.6207,0 13.54596,-5.92702 13.54596,-13.54596 v -177.37667 c 0,-7.61929 -5.92702,-13.54596 -13.54596,-13.54596 z"
           id="path1002" />
      </g>
      <path
         inkscape:connector-curvature="0"
         d="M 294.78651,-163.13478 H -27.667777 c -34.34742,0 -61.05346,0.58573 -61.05346,1.33867 v 17.52921 c 0,0.75311 26.7137,1.33867 61.05346,1.33867 H 294.78651 c 34.34742,0 61.05346,-0.58573 61.05346,-1.33867 v -17.52921 c 0,-0.75297 -26.71415,-1.33867 -61.05346,-1.33867 z"
         id="path1002-4"
         style="fill:#000000;fill-opacity:1;stroke-width:0.23544183" />
    </g>
  </g>
</svg>
