<?xml version="1.0" encoding="UTF-8" standalone="no"?>
<!-- Created with Inkscape (http://www.inkscape.org/) -->

<svg
   xmlns:dc="http://purl.org/dc/elements/1.1/"
   xmlns:cc="http://creativecommons.org/ns#"
   xmlns:rdf="http://www.w3.org/1999/02/22-rdf-syntax-ns#"
   xmlns:svg="http://www.w3.org/2000/svg"
   xmlns="http://www.w3.org/2000/svg"
   xmlns:sodipodi="http://sodipodi.sourceforge.net/DTD/sodipodi-0.dtd"
   xmlns:inkscape="http://www.inkscape.org/namespaces/inkscape"
   width="517.43378mm"
   height="517.43378mm"
   viewBox="0 0 517.43378 517.43377"
   version="1.1"
   id="svg1637"
   inkscape:version="0.92.5 (2060ec1f9f, 2020-04-08)"
   sodipodi:docname="eplore.svg">
  <defs
     id="defs1631" />
  <sodipodi:namedview
     id="base"
     pagecolor="#ffffff"
     bordercolor="#666666"
     borderopacity="1.0"
     inkscape:pageopacity="0.0"
     inkscape:pageshadow="2"
     inkscape:zoom="0.35"
     inkscape:cx="-356.92667"
     inkscape:cy="738.31799"
     inkscape:document-units="mm"
     inkscape:current-layer="layer1"
     showgrid="false"
     fit-margin-top="0"
     fit-margin-left="0"
     fit-margin-right="0"
     fit-margin-bottom="0"
     inkscape:window-width="1880"
     inkscape:window-height="1136"
     inkscape:window-x="40"
     inkscape:window-y="27"
     inkscape:window-maximized="1" />
  <metadata
     id="metadata1634">
    <rdf:RDF>
      <cc:Work
         rdf:about="">
        <dc:format>image/svg+xml</dc:format>
        <dc:type
           rdf:resource="http://purl.org/dc/dcmitype/StillImage" />
        <dc:title></dc:title>
      </cc:Work>
    </rdf:RDF>
  </metadata>
  <g
     inkscape:label="Layer 1"
     inkscape:groupmode="layer"
     id="layer1"
     transform="translate(77.164337,233.73)">
    <circle
       style="fill:#ececec;fill-opacity:1;stroke:none;stroke-width:4.15889931;stroke-linecap:round;stroke-linejoin:round;stroke-miterlimit:4;stroke-dasharray:4.15889932, 4.15889932;stroke-dashoffset:0;stroke-opacity:1"
       id="path1985"
       cx="181.55255"
       cy="24.986893"
       r="258.71689" />
    <g
       id="g2108"
       transform="translate(123.97618,-458.10714)">
      <path
         style="stroke-width:0.077886"
         inkscape:connector-curvature="0"
         d="m 63.340199,560.51959 c -0.49561,-0.13691 -0.78587,-0.65016 -0.64895,-1.14578 0.13691,-0.49561 0.65017,-0.78586 1.14578,-0.64893 2.61401,0.72957 5.08572,1.73631 7.38515,2.97944 2.36244,1.27601 4.55361,2.80725 6.54064,4.54598 0.38638,0.33893 0.42624,0.92824 0.0873,1.31463 -0.33893,0.38639 -0.92825,0.42625 -1.31464,0.0873 -1.87993,-1.64472 -3.95512,-3.09416 -6.19622,-4.30529 -2.18688,-1.18231 -4.53047,-2.1382 -6.99875,-2.82702 z m 16.92151,10.94844 c -0.33011,-0.394 -0.27717,-0.98361 0.11713,-1.31369 0.39399,-0.33011 0.98362,-0.27717 1.3137,0.11712 l 1.23738,1.57081 c 0.30576,0.41285 0.21966,0.99788 -0.1932,1.30365 -0.41286,0.30577 -0.99787,0.21967 -1.30365,-0.1932 -0.38852,-0.51112 -0.76731,-0.98571 -1.17133,-1.48465 z m 4.01479,5.99754 c -0.23944,-0.45484 -0.0639,-1.0189 0.39064,-1.25833 0.45484,-0.23943 1.0189,-0.0639 1.25832,0.39065 0.49562,0.94374 0.94617,1.89971 1.35663,2.87998 0.4019,0.96594 0.75847,1.93741 1.07638,2.9332 0.15456,0.49012 -0.11592,1.0143 -0.60605,1.16891 -0.49013,0.1546 -1.01431,-0.11591 -1.16891,-0.60605 -0.29359,-0.9228 -0.63252,-1.84247 -1.02225,-2.77531 -0.40191,-0.95715 -0.82785,-1.86443 -1.28481,-2.73333 z m -1.06424,-13.25465 c -7.44146,-7.44146 -17.72296,-12.04429 -29.07951,-12.04429 -11.35578,0 -21.63751,4.60323 -29.07951,12.04429 -7.44201,7.44108 -12.0443,17.72296 -12.0443,29.07952 0,11.35658 4.60322,21.63752 12.0443,29.07953 7.44106,7.44199 17.72296,12.04428 29.07951,12.04428 11.35577,0 21.6375,-4.60322 29.07951,-12.04428 7.44146,-7.44146 12.04429,-17.72295 12.04429,-29.07953 0,-11.35656 -4.60321,-21.6375 -12.04429,-29.07952 z"
         id="path834-3-5-4" />
      <g
         transform="matrix(-0.79081003,-0.61206168,-0.61206168,0.79081003,114.78177,905.43278)"
         id="g1263-2-8-5">
        <path
           style="fill:none;stroke:#000000;stroke-width:5.80038261;stroke-linecap:butt;stroke-linejoin:miter;stroke-miterlimit:4;stroke-dasharray:5.8003825, 5.8003825;stroke-dashoffset:0;stroke-opacity:1"
           d="m 264.47956,-242.08225 c 36.0181,-44.79128 32.23237,-43.89019 74.86459,-97.2414"
           id="path1157-4-7-1-9-1-5-4"
           inkscape:connector-curvature="0"
           sodipodi:nodetypes="cc" />
        <path
           sodipodi:type="star"
           style="fill:#000000;fill-opacity:1;stroke:none;stroke-width:5.46500015;stroke-linecap:round;stroke-linejoin:round;stroke-miterlimit:4;stroke-dasharray:5.46500018, 5.46500018;stroke-dashoffset:0;stroke-opacity:1"
           id="path1191-6-7-6-7-7-0"
           sodipodi:sides="3"
           sodipodi:cx="339.34415"
           sodipodi:cy="-325.80884"
           sodipodi:r1="12.985631"
           sodipodi:r2="6.492816"
           sodipodi:arg1="0.52359878"
           sodipodi:arg2="1.5707963"
           inkscape:flatsided="true"
           inkscape:rounded="0"
           inkscape:randomized="0"
           d="m 350.59003,-319.31602 -22.49177,0 11.24589,-19.47845 z"
           inkscape:transform-center-x="2.3715695"
           inkscape:transform-center-y="0.96826099"
           transform="rotate(38.576354,366.07639,-329.97118)" />
      </g>
      <g
         transform="rotate(7.3788858,-6090.446,-1233.9248)"
         id="g1263-5-6">
        <path
           style="fill:none;stroke:#000000;stroke-width:5.80038261;stroke-linecap:butt;stroke-linejoin:miter;stroke-miterlimit:4;stroke-dasharray:5.8003825, 5.8003825;stroke-dashoffset:0;stroke-opacity:1"
           d="m 264.47956,-242.08225 c 36.0181,-44.79128 32.23237,-43.89019 74.86459,-97.2414"
           id="path1157-4-7-1-9-9-9"
           inkscape:connector-curvature="0"
           sodipodi:nodetypes="cc" />
        <path
           sodipodi:type="star"
           style="fill:#000000;fill-opacity:1;stroke:none;stroke-width:5.46500015;stroke-linecap:round;stroke-linejoin:round;stroke-miterlimit:4;stroke-dasharray:5.46500018, 5.46500018;stroke-dashoffset:0;stroke-opacity:1"
           id="path1191-6-7-6-75-2"
           sodipodi:sides="3"
           sodipodi:cx="339.34415"
           sodipodi:cy="-325.80884"
           sodipodi:r1="12.985631"
           sodipodi:r2="6.492816"
           sodipodi:arg1="0.52359878"
           sodipodi:arg2="1.5707963"
           inkscape:flatsided="true"
           inkscape:rounded="0"
           inkscape:randomized="0"
           d="m 350.59003,-319.31602 -22.49177,0 11.24589,-19.47845 z"
           inkscape:transform-center-x="2.3715695"
           inkscape:transform-center-y="0.96826099"
           transform="rotate(38.576354,366.07639,-329.97118)" />
      </g>
      <g
         transform="matrix(-0.99171855,0.12843014,0.12843014,0.99171855,316.2391,773.46449)"
         id="g1263-5-3-2">
        <path
           style="fill:none;stroke:#000000;stroke-width:5.80038261;stroke-linecap:butt;stroke-linejoin:miter;stroke-miterlimit:4;stroke-dasharray:5.8003825, 5.8003825;stroke-dashoffset:0;stroke-opacity:1"
           d="m 264.47956,-242.08225 c 36.0181,-44.79128 32.23237,-43.89019 74.86459,-97.2414"
           id="path1157-4-7-1-9-9-8-4"
           inkscape:connector-curvature="0"
           sodipodi:nodetypes="cc" />
        <path
           sodipodi:type="star"
           style="fill:#000000;fill-opacity:1;stroke:none;stroke-width:5.46500015;stroke-linecap:round;stroke-linejoin:round;stroke-miterlimit:4;stroke-dasharray:5.46500018, 5.46500018;stroke-dashoffset:0;stroke-opacity:1"
           id="path1191-6-7-6-75-8-7"
           sodipodi:sides="3"
           sodipodi:cx="339.34415"
           sodipodi:cy="-325.80884"
           sodipodi:r1="12.985631"
           sodipodi:r2="6.492816"
           sodipodi:arg1="0.52359878"
           sodipodi:arg2="1.5707963"
           inkscape:flatsided="true"
           inkscape:rounded="0"
           inkscape:randomized="0"
           d="m 350.59003,-319.31602 -22.49177,0 11.24589,-19.47845 z"
           inkscape:transform-center-x="2.3715695"
           inkscape:transform-center-y="0.96826099"
           transform="rotate(38.576354,366.07639,-329.97118)" />
      </g>
      <path
         style="stroke-width:0.077886"
         inkscape:connector-curvature="0"
         d="m 63.340209,340.12677 c -0.49562,-0.13691 -0.78587,-0.65016 -0.64896,-1.14578 0.13692,-0.49561 0.65018,-0.78586 1.14579,-0.64893 2.614,0.72957 5.08572,1.73631 7.38515,2.97944 2.36243,1.27601 4.5536,2.80725 6.54064,4.54598 0.38638,0.33893 0.42623,0.92824 0.0873,1.31463 -0.33894,0.38639 -0.92826,0.42625 -1.31465,0.0873 -1.87993,-1.64472 -3.95511,-3.09416 -6.19621,-4.30529 -2.18689,-1.18231 -4.53048,-2.1382 -6.99875,-2.82702 z m 16.92151,10.94844 c -0.33011,-0.394 -0.27717,-0.98361 0.11713,-1.31369 0.39398,-0.33011 0.98362,-0.27717 1.31369,0.11712 l 1.23738,1.57081 c 0.30576,0.41285 0.21966,0.99788 -0.19319,1.30365 -0.41287,0.30577 -0.99788,0.21967 -1.30365,-0.1932 -0.38852,-0.51112 -0.76731,-0.98571 -1.17134,-1.48465 z m 4.01479,5.99754 c -0.23944,-0.45484 -0.0639,-1.0189 0.39063,-1.25833 0.45484,-0.23943 1.01891,-0.0639 1.25833,0.39065 0.49562,0.94374 0.94617,1.89971 1.35663,2.87999 0.40189,0.96593 0.75847,1.9374 1.07638,2.9332 0.15455,0.49012 -0.11592,1.01429 -0.60605,1.1689 -0.49013,0.15461 -1.01432,-0.1159 -1.16891,-0.60605 -0.29359,-0.9228 -0.63253,-1.84247 -1.02225,-2.77531 -0.40191,-0.95714 -0.82786,-1.86443 -1.28482,-2.73333 z m -1.06424,-13.25465 c -7.44147,-7.44146 -17.72296,-12.04429 -29.07952,-12.04429 -11.35578,0 -21.63751,4.60323 -29.07951,12.04429 -7.44201,7.44108 -12.0443,17.72296 -12.0443,29.07952 0,11.35657 4.60322,21.63753 12.0443,29.07952 7.44106,7.44201 17.72296,12.0443 29.07951,12.0443 11.35577,0 21.6375,-4.60321 29.07952,-12.0443 7.44146,-7.44145 12.04428,-17.72295 12.04428,-29.07952 0,-11.35656 -4.60321,-21.6375 -12.04428,-29.07952 z"
         id="path834-3-5-4-8" />
      <path
         style="stroke-width:0.077886"
         inkscape:connector-curvature="0"
         d="m 218.3039,403.83408 c -0.49562,-0.13691 -0.78587,-0.65016 -0.64895,-1.14578 0.13692,-0.49561 0.65016,-0.78586 1.14578,-0.64893 2.61401,0.72957 5.08572,1.73631 7.38516,2.97944 2.36244,1.27601 4.55361,2.80725 6.54063,4.54598 0.38637,0.33893 0.42624,0.92824 0.0873,1.31463 -0.33893,0.38639 -0.92826,0.42625 -1.31466,0.0873 -1.87992,-1.64472 -3.9551,-3.09416 -6.1962,-4.30529 -2.18689,-1.18231 -4.53049,-2.1382 -6.99876,-2.82702 z m 16.9215,10.94844 c -0.33009,-0.394 -0.27715,-0.98361 0.11713,-1.31369 0.394,-0.33011 0.98365,-0.27717 1.31371,0.11712 l 1.23738,1.57081 c 0.30575,0.41285 0.21966,0.99788 -0.1932,1.30365 -0.41285,0.30577 -0.99787,0.21967 -1.30365,-0.1932 -0.38852,-0.51112 -0.7673,-0.98571 -1.17134,-1.48465 z m 4.01479,5.99754 c -0.23942,-0.45484 -0.0639,-1.0189 0.39066,-1.25833 0.45482,-0.23943 1.01888,-0.0639 1.2583,0.39065 0.49562,0.94374 0.94618,1.89971 1.35665,2.87998 0.40188,0.96594 0.75846,1.93741 1.07638,2.9332 0.15455,0.49012 -0.11594,1.0143 -0.60605,1.16891 -0.49014,0.1546 -1.01431,-0.11591 -1.16891,-0.60605 -0.2936,-0.9228 -0.63253,-1.84247 -1.02227,-2.77531 -0.4019,-0.95715 -0.82785,-1.86443 -1.28479,-2.73333 z m -1.06423,-13.25465 c -7.44146,-7.44146 -17.72296,-12.04429 -29.07951,-12.04429 -11.35578,0 -21.63752,4.60323 -29.07951,12.04429 -7.44201,7.44108 -12.04431,17.72296 -12.04431,29.07952 0,11.35656 4.60322,21.63752 12.04431,29.07952 7.44106,7.442 17.72296,12.04429 29.07951,12.04429 11.35578,0 21.63749,-4.60321 29.07951,-12.04429 7.44146,-7.44146 12.04428,-17.72296 12.04428,-29.07952 0,-11.35656 -4.60319,-21.6375 -12.04428,-29.07952 z"
         id="path834-3-5-4-9" />
      <path
         style="stroke-width:0.077886"
         inkscape:connector-curvature="0"
         d="m -84.736231,403.83408 c -0.49561,-0.13691 -0.78587,-0.65016 -0.64895,-1.14578 0.13691,-0.49561 0.65017,-0.78586 1.14578,-0.64893 2.61401,0.72957 5.08572,1.73631 7.38515,2.97944 2.36244,1.27601 4.55361,2.80725 6.54064,4.54598 0.38638,0.33893 0.42624,0.92824 0.0873,1.31463 -0.33893,0.38639 -0.92825,0.42625 -1.31464,0.0873 -1.87993,-1.64472 -3.95512,-3.09416 -6.19622,-4.30529 -2.18688,-1.18231 -4.53047,-2.1382 -6.99875,-2.82702 z m 16.92151,10.94844 c -0.33011,-0.394 -0.27717,-0.98361 0.11713,-1.31369 0.39399,-0.33011 0.98362,-0.27717 1.3137,0.11712 l 1.23738,1.57081 c 0.30576,0.41285 0.21966,0.99788 -0.1932,1.30365 -0.41286,0.30577 -0.99787,0.21967 -1.30365,-0.1932 -0.38852,-0.51112 -0.76731,-0.98571 -1.17133,-1.48465 z m 4.01479,5.99754 c -0.23944,-0.45484 -0.0639,-1.0189 0.39064,-1.25833 0.45484,-0.23943 1.0189,-0.0639 1.25832,0.39065 0.49562,0.94374 0.94617,1.89971 1.35663,2.87998 0.4019,0.96594 0.75847,1.93741 1.07638,2.9332 0.15456,0.49012 -0.11592,1.0143 -0.60605,1.16891 -0.49013,0.1546 -1.01431,-0.11591 -1.16891,-0.60605 -0.29359,-0.9228 -0.63252,-1.84247 -1.02225,-2.77531 -0.40191,-0.95715 -0.82785,-1.86443 -1.28481,-2.73333 z m -1.06424,-13.25465 c -7.44146,-7.44146 -17.72296,-12.04429 -29.07951,-12.04429 -11.355779,0 -21.637509,4.60323 -29.079509,12.04429 -7.44201,7.44108 -12.0443,17.72296 -12.0443,29.07952 0,11.35656 4.60322,21.63752 12.0443,29.07952 7.44106,7.442 17.72296,12.04429 29.079509,12.04429 11.35577,0 21.6375,-4.60321 29.07951,-12.04429 7.44146,-7.44146 12.04429,-17.72296 12.04429,-29.07952 0,-11.35656 -4.60321,-21.6375 -12.04429,-29.07952 z"
         id="path834-3-5-4-3" />
    </g>
  </g>
</svg>
